# File produced by Open Asset Import Library (http://www.assimp.sf.net)
# (assimp v5.0.1588609223)

mtllib result.mtl

# 168 vertex positions
v  0.014427237 0.0017965492 0.25335583
v  0.0067810565 -0.00049195252 0.25335583
v  0.014668789 -0.0016340893 0.25335583
v  0.0065952018 -0.0021663662 0.25335583
v  0.0060376376 -0.0035520606 0.25335583
v  0.0051083714 -0.0046490338 0.25335583
v  0.0038769394 -0.0054428801 0.25335583
v  0.014468726 -0.0037397165 0.25335583
v  0.0024128966 -0.0059191845 0.25335583
v  0.013981622 -0.0056110676 0.25335583
v  0.00071625412 -0.0060779527 0.25335583
v  0.013207451 -0.0072481446 0.25335583
v  -0.00080195814 -0.0059435684 0.25335583
v  0.012215067 -0.0086664688 0.25335583
v  0.011073355 -0.0098815449 0.25335583
v  -0.0021828748 -0.0055404156 0.25335583
v  0.0097822845 -0.010893384 0.25335583
v  0.00838162 -0.011716393 0.25335583
v  -0.0034264885 -0.0048684832 0.25335583
v  0.0069111437 -0.012364974 0.25335583
v  0.0053708367 -0.012839133 0.25335583
v  0.0038123801 -0.01316159 0.25335583
v  -0.0044056308 -0.0038623922 0.25335583
v  0.0022874549 -0.013355061 0.25335583
v  -0.0016880687 -0.013298053 0.25335583
v  0.00079605356 -0.013419553 0.25335583
v  -0.0057955515 -0.012326043 0.25335583
v  -0.003885271 -0.012933549 0.25335583
v  -0.0088839252 -0.010544121 0.25335583
v  -0.0074510593 -0.011516062 0.25335583
v  -0.01108473 -0.0081594046 0.25335583
v  -0.010094155 -0.0094102249 0.25335583
v  -0.012415836 -0.0054420456 0.25335583
v  -0.011858622 -0.0068366751 0.25335583
v  -0.013014335 -0.0026074816 0.25335583
v  -0.012789901 -0.0040181167 0.25335583
v  -0.013033874 9.495765e-06 0.25335583
v  -0.013089148 -0.0012101531 0.25335583
v  -0.012591645 0.0026445631 0.25335583
v  -0.012868036 0.0012944043 0.25335583
v  -0.011567269 0.0053522214 0.25335583
v  -0.012169719 0.0040128641 0.25335583
v  -0.0098041203 0.0079045668 0.25335583
v  -0.0107843 0.0066626184 0.25335583
v  -0.0072020274 0.010064717 0.25335583
v  -0.0086100269 0.0090386048 0.25335583
v  -0.0039274562 0.011513863 0.25335583
v  -0.0056259073 0.010913067 0.25335583
v  -0.0021066703 0.011867072 0.25335583
v  -0.0016428344 0.01359247 0.25335583
v  -0.0019483194 0.012787614 0.25335583
v  -0.0011902191 0.014281649 0.25335583
v  7.8823417e-05 0.015123423 0.25335583
v  -0.000609871 0.014807753 0.25335583
v  0.0016553551 0.015130077 0.25335583
v  0.000875853 0.015228651 0.25335583
v  0.0029886812 0.014341496 0.25335583
v  0.0023596361 0.014834359 0.25335583
v  0.0038365573 0.012842476 0.25335583
v  0.0034963638 0.013671026 0.25335583
v  0.0040092506 0.011855852 0.25335583
v  0.0096204653 0.0096150823 0.25335583
v  0.0070146993 0.011069972 0.25335583
v  0.011826534 0.0074911676 0.25335583
v  0.013479814 0.0048382916 0.25335583
v  0.0065947101 0.0010108054 0.25335583
v  -0.0049931183 -0.0024567507 0.25335583
v  -0.0051889457 -0.00065155327 0.25335583
v  -0.005113719 0.00049307942 0.25335583
v  -0.0048880391 0.0014598183 0.25335583
v  -0.0045118947 0.0022486784 0.25335583
v  -0.0040278286 0.0028974675 0.25335583
v  -0.0034783762 0.0034440123 0.25335583
v  -0.0028635263 0.003888322 0.25335583
v  -0.0021986645 0.00423689 0.25335583
v  -0.0014991704 0.0044962373 0.25335583
v  -0.00076503493 0.0046663694 0.25335583
v  -7.2881579e-05 0.0047709681 0.25335583
v  0.0060357004 0.0023038182 0.25335583
v  0.00050067902 0.0048337243 0.25335583
v  0.00095565245 0.0048546493 0.25335583
v  0.0025149398 0.0046915859 0.25335583
v  0.0038977191 0.004202392 0.25335583
v  0.0051040053 0.0033870768 0.25335583
v  0.014668789 -0.0016340893 0.24508952
v  0.0067810565 -0.00049195252 0.24508952
v  0.014427237 0.0017965492 0.24508952
v  0.0065952018 -0.0021663662 0.24508952
v  0.0060376376 -0.0035520606 0.24508952
v  0.0051083714 -0.0046490338 0.24508952
v  0.0038769394 -0.0054428801 0.24508952
v  0.014468726 -0.0037397165 0.24508952
v  0.0024128966 -0.0059191845 0.24508952
v  0.013981622 -0.0056110676 0.24508952
v  0.00071625412 -0.0060779527 0.24508952
v  0.013207451 -0.0072481446 0.24508952
v  -0.00080195814 -0.0059435684 0.24508952
v  0.012215067 -0.0086664688 0.24508952
v  0.011073355 -0.0098815449 0.24508952
v  -0.0021828748 -0.0055404156 0.24508952
v  0.0097822845 -0.010893384 0.24508952
v  0.00838162 -0.011716393 0.24508952
v  -0.0034264885 -0.0048684832 0.24508952
v  0.0069111437 -0.012364974 0.24508952
v  0.0053708367 -0.012839133 0.24508952
v  0.0038123801 -0.01316159 0.24508952
v  -0.0044056308 -0.0038623922 0.24508952
v  0.0022874549 -0.013355061 0.24508952
v  0.00079605356 -0.013419553 0.24508952
v  -0.0016880687 -0.013298053 0.24508952
v  -0.003885271 -0.012933549 0.24508952
v  -0.0057955515 -0.012326043 0.24508952
v  -0.0074510593 -0.011516062 0.24508952
v  -0.0088839252 -0.010544121 0.24508952
v  -0.010094155 -0.0094102249 0.24508952
v  -0.01108473 -0.0081594046 0.24508952
v  -0.011858622 -0.0068366751 0.24508952
v  -0.012415836 -0.0054420456 0.24508952
v  -0.012789901 -0.0040181167 0.24508952
v  -0.013014335 -0.0026074816 0.24508952
v  -0.013089148 -0.0012101531 0.24508952
v  -0.013033874 9.495765e-06 0.24508952
v  -0.012868036 0.0012944043 0.24508952
v  -0.012591645 0.0026445631 0.24508952
v  -0.012169719 0.0040128641 0.24508952
v  -0.011567269 0.0053522214 0.24508952
v  -0.0107843 0.0066626184 0.24508952
v  -0.0098041203 0.0079045668 0.24508952
v  -0.0086100269 0.0090386048 0.24508952
v  -0.0072020274 0.010064717 0.24508952
v  -0.0056259073 0.010913067 0.24508952
v  -0.0039274562 0.011513863 0.24508952
v  -0.0019483194 0.012787614 0.24508952
v  -0.0016428344 0.01359247 0.24508952
v  -0.0021066703 0.011867072 0.24508952
v  -0.0011902191 0.014281649 0.24508952
v  -0.000609871 0.014807753 0.24508952
v  7.8823417e-05 0.015123423 0.24508952
v  0.000875853 0.015228651 0.24508952
v  0.0016553551 0.015130077 0.24508952
v  0.0023596361 0.014834359 0.24508952
v  0.0029886812 0.014341496 0.24508952
v  0.0034963638 0.013671026 0.24508952
v  0.0038365573 0.012842476 0.24508952
v  0.0070146993 0.011069972 0.24508952
v  0.0096204653 0.0096150823 0.24508952
v  0.0040092506 0.011855852 0.24508952
v  0.011826534 0.0074911676 0.24508952
v  0.013479814 0.0048382916 0.24508952
v  0.0065947101 0.0010108054 0.24508952
v  -0.0049931183 -0.0024567507 0.24508952
v  -0.0051889457 -0.00065155327 0.24508952
v  -0.005113719 0.00049307942 0.24508952
v  -0.0048880391 0.0014598183 0.24508952
v  -0.0045118947 0.0022486784 0.24508952
v  -0.0040278286 0.0028974675 0.24508952
v  -0.0034783762 0.0034440123 0.24508952
v  -0.0028635263 0.003888322 0.24508952
v  -0.0021986645 0.00423689 0.24508952
v  -0.0014991704 0.0044962373 0.24508952
v  -0.00076503493 0.0046663694 0.24508952
v  -7.2881579e-05 0.0047709681 0.24508952
v  0.0060357004 0.0023038182 0.24508952
v  0.00050067902 0.0048337243 0.24508952
v  0.00095565245 0.0048546493 0.24508952
v  0.0025149398 0.0046915859 0.24508952
v  0.0038977191 0.004202392 0.24508952
v  0.0051040053 0.0033870768 0.24508952

# 0 UV coordinates

# 88 vertex normals
vn 5.1324e-13 -6.9679885e-13 0.00055108726
vn -5.1324e-13 6.9679885e-13 -0.00055108726
vn 0.0012499068 -1.52712e-05 -1.1833754e-12
vn 0.0012309764 -0.00021724938 -1.4211279e-12
vn 0.0011749903 -0.00042649516 -1.6335587e-12
vn 0.0010809494 -0.00062773284 -1.8004227e-12
vn 0.00097007869 -0.00078831939 -1.9002131e-12
vn 0.00084343844 -0.00092255732 -1.9520017e-12
vn 0.00070372596 -0.0010330877 -1.9616396e-12
vn 0.00056980626 -0.001112574 -1.9374205e-12
vn 0.00043684943 -0.00117118 -1.8876966e-12
vn 0.00031086392 -0.0012107287 -1.8203689e-12
vn 0.00020545535 -0.0012329997 -1.7503593e-12
vn 0.00010575662 -0.0012455182 -1.6733362e-12
vn -3.5352011e-06 -0.0012499951 -1.5772108e-12
vn -0.00013304054 -0.0012429 -1.4476285e-12
vn -0.0002924531 -0.0012153072 -1.2642754e-12
vn -0.00046534956 -0.0011601509 -1.0335129e-12
vn -0.00062708405 -0.001081326 -7.8321919e-13
vn -0.00078057148 -0.00097632402 -5.0750756e-13
vn -0.00091980927 -0.00084643438 -2.1359883e-13
vn -0.0010319598 -0.00070537883 6.9201155e-14
vn -0.0011229686 -0.00054903695 3.5163962e-13
vn -0.0011871315 -0.00039143208 6.106727e-13
vn -0.0012232282 -0.00025731901 8.138639e-13
vn -0.0012430324 -0.00013179726 9.9101868e-13
vn -0.0012499896 -5.1249613e-06 1.1576635e-12
vn -0.0012452917 0.00010839241 1.2968204e-12
vn -0.0012329946 0.0002054863 1.4081341e-12
vn -0.0012109819 0.00030987631 1.5196247e-12
vn -0.0011694747 0.0004413948 1.6472611e-12
vn -0.0011083754 0.00057793106 1.7629953e-12
vn -0.0010292924 0.00070926547 1.8554039e-12
vn -0.00092337042 0.00084254809 1.9252798e-12
vn -0.0008001863 0.00096031354 1.9594591e-12
vn -0.00066586462 0.0010578869 1.9577348e-12
vn -0.00050614565 0.0011429421 1.9165294e-12
vn -0.00032835349 0.0012061029 1.8308085e-12
vn -0.00023804694 0.0012271242 1.7732837e-12
vn -0.0012319065 0.0002119117 1.4152451e-12
vn -0.0012058555 0.0003292608 1.5393603e-12
vn -0.0011133658 0.00056825794 1.7554122e-12
vn -0.00094978837 0.00081265141 1.912082e-12
vn -0.00068826764 0.00104345 1.9603451e-12
vn -0.00034607667 0.0012011374 1.8410362e-12
vn -3.4207644e-06 0.0012499954 1.5836893e-12
vn 0.00032335697 0.0012074522 1.2255619e-12
vn 0.00063306611 0.0010778346 7.7323353e-13
vn 0.00089114939 0.00087655743 2.7837823e-13
vn 0.0010854892 0.0006198496 -2.2719809e-13
vn 0.0012008206 0.00034717465 -6.7938103e-13
vn 0.0012312809 0.0002155173 -8.7421796e-13
vn 0.00031622508 0.0012093395 1.2345903e-12
vn 0.00046653918 0.0011596731 1.0318008e-12
vn 0.00074431044 0.0010042421 5.7657817e-13
vn 0.00097130716 0.00078680541 9.0242375e-14
vn 0.0011364011 0.00052066578 -4.0002225e-13
vn 0.0012284117 0.00023131134 -8.5157575e-13
vn -0.0012499744 -8.0167529e-06 1.1539929e-12
vn -0.0012061303 -0.00032825323 7.0825052e-13
vn -0.0010596052 -0.00066312682 1.4837166e-13
vn -0.00083118043 -0.00093361636 -4.0637442e-13
vn -0.00056298147 -0.0011160431 -8.868159e-13
vn -0.00027536679 -0.0012192922 -1.2852268e-12
vn -3.6392448e-05 -0.0012494702 -1.5459463e-12
vn 9.6740434e-05 -0.001246251 -1.6658657e-12
vn 0.0001614011 -0.0012395362 -1.7175954e-12
vn 0.00023466944 -0.0012277747 -1.7709603e-12
vn 0.00035910349 -0.0011973074 -1.8483255e-12
vn 0.00050851761 -0.0011418889 -1.9174068e-12
vn 0.00065795094 -0.0010628268 -1.9566109e-12
vn 0.000809327 -0.0009526228 -1.9582478e-12
vn 0.00094425306 -0.00081907661 -1.9150508e-12
vn 0.0010702237 -0.00064584933 -1.8133403e-12
vn 0.0011796332 -0.00041348007 -1.6214263e-12
vn 0.0012364303 -0.00018368589 -1.3837692e-12
vn 0.0012497188 2.6516096e-05 -1.1303642e-12
vn 0.0012105289 0.00031164082 -7.3335186e-13
vn 0.0010429305 0.00068905455 -1.0005901e-13
vn 0.00075366488 0.000997241 5.5901388e-13
vn 0.00047490071 0.001156274 1.0197158e-12
vn 0.00023136794 0.0012284011 1.3377214e-12
vn -3.137988e-06 0.0012499961 1.583427e-12
vn -0.00025313793 0.0012241002 1.7835145e-12
vn -0.00053645973 0.0011290311 1.9271724e-12
vn -0.00082450575 0.00093951612 1.955812e-12
vn -0.0010704075 0.00064554485 1.8131265e-12
vn -0.0012122014 0.00030507057 1.5146841e-12

# Mesh 'mesh_id517' with 336 faces
g mesh_id517
usemtl 395
f  1//1 2//1 3//1
f  4//1 3//1 2//1
f  5//1 3//1 4//1
f  6//1 3//1 5//1
f  7//1 3//1 6//1
f  7//1 8//1 3//1
f  9//1 8//1 7//1
f  9//1 10//1 8//1
f  11//1 10//1 9//1
f  11//1 12//1 10//1
f  13//1 12//1 11//1
f  13//1 14//1 12//1
f  13//1 15//1 14//1
f  16//1 15//1 13//1
f  16//1 17//1 15//1
f  16//1 18//1 17//1
f  19//1 18//1 16//1
f  19//1 20//1 18//1
f  19//1 21//1 20//1
f  19//1 22//1 21//1
f  23//1 22//1 19//1
f  23//1 24//1 22//1
f  24//1 25//1 26//1
f  25//1 27//1 28//1
f  27//1 29//1 30//1
f  29//1 31//1 32//1
f  31//1 33//1 34//1
f  33//1 35//1 36//1
f  35//1 37//1 38//1
f  37//1 39//1 40//1
f  39//1 41//1 42//1
f  41//1 43//1 44//1
f  43//1 45//1 46//1
f  45//1 47//1 48//1
f  49//1 50//1 51//1
f  49//1 52//1 50//1
f  52//1 53//1 54//1
f  53//1 55//1 56//1
f  55//1 57//1 58//1
f  57//1 59//1 60//1
f  61//1 62//1 63//1
f  61//1 64//1 62//1
f  64//1 1//1 65//1
f  1//1 66//1 2//1
f  23//1 25//1 24//1
f  67//1 25//1 23//1
f  67//1 27//1 25//1
f  68//1 27//1 67//1
f  68//1 29//1 27//1
f  69//1 29//1 68//1
f  70//1 29//1 69//1
f  70//1 31//1 29//1
f  71//1 31//1 70//1
f  71//1 33//1 31//1
f  72//1 33//1 71//1
f  73//1 33//1 72//1
f  73//1 35//1 33//1
f  35//1 39//1 37//1
f  39//1 43//1 41//1
f  43//1 47//1 45//1
f  49//1 53//1 52//1
f  49//1 55//1 53//1
f  55//1 59//1 57//1
f  61//1 1//1 64//1
f  61//1 66//1 1//1
f  74//1 35//1 73//1
f  74//1 39//1 35//1
f  75//1 39//1 74//1
f  76//1 39//1 75//1
f  77//1 39//1 76//1
f  77//1 43//1 39//1
f  78//1 43//1 77//1
f  78//1 47//1 43//1
f  49//1 59//1 55//1
f  49//1 61//1 59//1
f  61//1 79//1 66//1
f  80//1 47//1 78//1
f  81//1 47//1 80//1
f  82//1 47//1 81//1
f  82//1 49//1 47//1
f  49//1 79//1 61//1
f  83//1 49//1 82//1
f  84//1 49//1 83//1
f  84//1 79//1 49//1
f  85//2 86//2 87//2
f  86//2 85//2 88//2
f  88//2 85//2 89//2
f  89//2 85//2 90//2
f  90//2 85//2 91//2
f  85//2 92//2 91//2
f  91//2 92//2 93//2
f  92//2 94//2 93//2
f  93//2 94//2 95//2
f  94//2 96//2 95//2
f  95//2 96//2 97//2
f  96//2 98//2 97//2
f  98//2 99//2 97//2
f  97//2 99//2 100//2
f  99//2 101//2 100//2
f  101//2 102//2 100//2
f  100//2 102//2 103//2
f  102//2 104//2 103//2
f  104//2 105//2 103//2
f  105//2 106//2 103//2
f  103//2 106//2 107//2
f  106//2 108//2 107//2
f  109//2 110//2 108//2
f  111//2 112//2 110//2
f  113//2 114//2 112//2
f  115//2 116//2 114//2
f  117//2 118//2 116//2
f  119//2 120//2 118//2
f  121//2 122//2 120//2
f  123//2 124//2 122//2
f  125//2 126//2 124//2
f  127//2 128//2 126//2
f  129//2 130//2 128//2
f  131//2 132//2 130//2
f  133//2 134//2 135//2
f  134//2 136//2 135//2
f  137//2 138//2 136//2
f  139//2 140//2 138//2
f  141//2 142//2 140//2
f  143//2 144//2 142//2
f  145//2 146//2 147//2
f  146//2 148//2 147//2
f  149//2 87//2 148//2
f  86//2 150//2 87//2
f  108//2 110//2 107//2
f  107//2 110//2 151//2
f  110//2 112//2 151//2
f  151//2 112//2 152//2
f  112//2 114//2 152//2
f  152//2 114//2 153//2
f  153//2 114//2 154//2
f  114//2 116//2 154//2
f  154//2 116//2 155//2
f  116//2 118//2 155//2
f  155//2 118//2 156//2
f  156//2 118//2 157//2
f  118//2 120//2 157//2
f  122//2 124//2 120//2
f  126//2 128//2 124//2
f  130//2 132//2 128//2
f  136//2 138//2 135//2
f  138//2 140//2 135//2
f  142//2 144//2 140//2
f  148//2 87//2 147//2
f  87//2 150//2 147//2
f  157//2 120//2 158//2
f  120//2 124//2 158//2
f  158//2 124//2 159//2
f  159//2 124//2 160//2
f  160//2 124//2 161//2
f  124//2 128//2 161//2
f  161//2 128//2 162//2
f  128//2 132//2 162//2
f  140//2 144//2 135//2
f  144//2 147//2 135//2
f  150//2 163//2 147//2
f  162//2 132//2 164//2
f  164//2 132//2 165//2
f  165//2 132//2 166//2
f  132//2 135//2 166//2
f  147//2 163//2 135//2
f  166//2 135//2 167//2
f  167//2 135//2 168//2
f  135//2 163//2 168//2
f  3//3 92//4 85//3
f  3//3 8//4 92//4
f  8//4 94//5 92//4
f  8//4 10//5 94//5
f  10//5 96//6 94//5
f  10//5 12//6 96//6
f  12//6 98//7 96//6
f  12//6 14//7 98//7
f  14//7 99//8 98//7
f  14//7 15//8 99//8
f  15//8 101//9 99//8
f  15//8 17//9 101//9
f  17//9 102//10 101//9
f  17//9 18//10 102//10
f  18//10 104//11 102//10
f  18//10 20//11 104//11
f  20//11 105//12 104//11
f  20//11 21//12 105//12
f  21//12 106//13 105//12
f  21//12 22//13 106//13
f  22//13 108//14 106//13
f  22//13 24//14 108//14
f  24//14 109//15 108//14
f  24//14 26//15 109//15
f  26//15 110//16 109//15
f  26//15 25//16 110//16
f  25//16 111//17 110//16
f  25//16 28//17 111//17
f  28//17 112//18 111//17
f  28//17 27//18 112//18
f  27//18 113//19 112//18
f  27//18 30//19 113//19
f  30//19 114//20 113//19
f  30//19 29//20 114//20
f  29//20 115//21 114//20
f  29//20 32//21 115//21
f  32//21 116//22 115//21
f  32//21 31//22 116//22
f  31//22 117//23 116//22
f  31//22 34//23 117//23
f  34//23 118//24 117//23
f  34//23 33//24 118//24
f  33//24 119//25 118//24
f  33//24 36//25 119//25
f  36//25 120//26 119//25
f  36//25 35//26 120//26
f  35//26 121//27 120//26
f  35//26 38//27 121//27
f  38//27 122//28 121//27
f  38//27 37//28 122//28
f  37//28 123//29 122//28
f  37//28 40//29 123//29
f  40//29 124//30 123//29
f  40//29 39//30 124//30
f  39//30 125//31 124//30
f  39//30 42//31 125//31
f  42//31 126//32 125//31
f  42//31 41//32 126//32
f  41//32 127//33 126//32
f  41//32 44//33 127//33
f  44//33 128//34 127//33
f  44//33 43//34 128//34
f  43//34 129//35 128//34
f  43//34 46//35 129//35
f  46//35 130//36 129//35
f  46//35 45//36 130//36
f  45//36 131//37 130//36
f  45//36 48//37 131//37
f  48//37 132//38 131//37
f  48//37 47//38 132//38
f  47//38 135//39 132//38
f  47//38 49//39 135//39
f  49//40 133//41 135//40
f  49//40 51//41 133//41
f  51//41 134//42 133//41
f  51//41 50//42 134//42
f  50//42 136//43 134//42
f  50//42 52//43 136//43
f  52//43 137//44 136//43
f  52//43 54//44 137//44
f  54//44 138//45 137//44
f  54//44 53//45 138//45
f  53//45 139//46 138//45
f  53//45 56//46 139//46
f  56//46 140//47 139//46
f  56//46 55//47 140//47
f  55//47 141//48 140//47
f  55//47 58//48 141//48
f  58//48 142//49 141//48
f  58//48 57//49 142//49
f  57//49 143//50 142//49
f  57//49 60//50 143//50
f  60//50 144//51 143//50
f  60//50 59//51 144//51
f  59//51 147//52 144//51
f  59//51 61//52 147//52
f  61//53 145//54 147//53
f  61//53 63//54 145//54
f  63//54 146//55 145//54
f  63//54 62//55 146//55
f  62//55 148//56 146//55
f  62//55 64//56 148//56
f  64//56 149//57 148//56
f  64//56 65//57 149//57
f  65//57 87//58 149//57
f  65//57 1//58 87//58
f  1//58 85//3 87//58
f  1//58 3//3 85//3
f  2//59 150//60 86//59
f  2//59 66//60 150//60
f  66//60 163//61 150//60
f  66//60 79//61 163//61
f  79//61 168//62 163//61
f  79//61 84//62 168//62
f  84//62 167//63 168//62
f  84//62 83//63 167//63
f  83//63 166//64 167//63
f  83//63 82//64 166//64
f  82//64 165//65 166//64
f  82//64 81//65 165//65
f  81//65 164//66 165//65
f  81//65 80//66 164//66
f  80//66 162//67 164//66
f  80//66 78//67 162//67
f  78//67 161//68 162//67
f  78//67 77//68 161//68
f  77//68 160//69 161//68
f  77//68 76//69 160//69
f  76//69 159//70 160//69
f  76//69 75//70 159//70
f  75//70 158//71 159//70
f  75//70 74//71 158//71
f  74//71 157//72 158//71
f  74//71 73//72 157//72
f  73//72 156//73 157//72
f  73//72 72//73 156//73
f  72//73 155//74 156//73
f  72//73 71//74 155//74
f  71//74 154//75 155//74
f  71//74 70//75 154//75
f  70//75 153//76 154//75
f  70//75 69//76 153//76
f  69//76 152//77 153//76
f  69//76 68//77 152//77
f  68//77 151//78 152//77
f  68//77 67//78 151//78
f  67//78 107//79 151//78
f  67//78 23//79 107//79
f  23//79 103//80 107//79
f  23//79 19//80 103//80
f  19//80 100//81 103//80
f  19//80 16//81 100//81
f  16//81 97//82 100//81
f  16//81 13//82 97//82
f  13//82 95//83 97//82
f  13//82 11//83 95//83
f  11//83 93//84 95//83
f  11//83 9//84 93//84
f  9//84 91//85 93//84
f  9//84 7//85 91//85
f  7//85 90//86 91//85
f  7//85 6//86 90//86
f  6//86 89//87 90//86
f  6//86 5//87 89//87
f  5//87 88//88 89//87
f  5//87 4//88 88//88
f  4//88 86//59 88//88
f  4//88 2//59 86//59

