# File produced by Open Asset Import Library (http://www.assimp.sf.net)
# (assimp v5.0.1588609223)

mtllib result.mtl

# 62 vertex positions
v  0.010773923 -0.013989978 0.25242826
v  -0.009677602 -0.013827331 0.25242826
v  -0.0082184765 -0.013989978 0.25242826
v  -0.012053864 -0.012526146 0.25242826
v  -0.010956058 -0.013339385 0.25242826
v  -0.013397167 -0.0098661464 0.25242826
v  -0.012893429 -0.011373202 0.25242826
v  -0.013565077 0.010349024 0.25242826
v  -0.013565077 -0.0080049764 0.25242826
v  -0.01172081 0.013824757 0.25242826
v  -0.013104014 0.012521356 0.25242826
v  -0.0071988124 0.013824757 0.25242826
v  -0.0094154757 0.014259223 0.25242826
v  -0.0054254774 0.010349024 0.25242826
v  -0.0058688112 0.01252136 0.25242826
v  -0.0040688775 -0.0064089764 0.25242826
v  0.011476807 -0.0064833071 0.25242826
v  0.010694128 -0.0064089764 0.25242826
v  0.012317002 -0.0067062881 0.25242826
v  0.013214681 -0.0070779249 0.25242826
v  0.013986707 -0.0076999106 0.25242826
v  0.014449924 -0.008673925 0.25242826
v  0.01448559 -0.011148074 0.25242826
v  0.014604323 -0.0099999774 0.25242826
v  0.013535753 -0.012921406 0.25242826
v  0.014129404 -0.012121882 0.25242826
v  0.011833351 -0.013871246 0.25242826
v  0.012753952 -0.013515059 0.25242826
v  -0.0048225448 -0.0062227771 0.25242826
v  -0.0052747466 -0.0056641791 0.25242826
v  -0.0054254774 -0.004733175 0.25242826
v  -0.0082184765 -0.013989978 0.24447213
v  -0.009677602 -0.013827331 0.24447213
v  0.010773923 -0.013989978 0.24447213
v  -0.010956058 -0.013339385 0.24447213
v  -0.012053864 -0.012526146 0.24447213
v  -0.012893429 -0.011373202 0.24447213
v  -0.013397167 -0.0098661464 0.24447213
v  -0.013565077 -0.0080049764 0.24447213
v  -0.013565077 0.010349024 0.24447213
v  -0.013104014 0.012521356 0.24447213
v  -0.01172081 0.013824757 0.24447213
v  -0.0094154757 0.014259223 0.24447213
v  -0.0071988124 0.013824757 0.24447213
v  -0.0058688112 0.01252136 0.24447213
v  -0.0054254774 0.010349024 0.24447213
v  0.010694128 -0.0064089764 0.24447213
v  0.011476807 -0.0064833071 0.24447213
v  -0.0040688775 -0.0064089764 0.24447213
v  0.012317002 -0.0067062881 0.24447213
v  0.013214681 -0.0070779249 0.24447213
v  0.013986707 -0.0076999106 0.24447213
v  0.014449924 -0.008673925 0.24447213
v  0.014604323 -0.0099999774 0.24447213
v  0.01448559 -0.011148074 0.24447213
v  0.014129404 -0.012121882 0.24447213
v  0.013535753 -0.012921406 0.24447213
v  0.012753952 -0.013515059 0.24447213
v  0.011833351 -0.013871246 0.24447213
v  -0.0048225448 -0.0062227771 0.24447213
v  -0.0052747466 -0.0056641791 0.24447213
v  -0.0054254774 -0.004733175 0.24447213

# 0 UV coordinates

# 33 vertex normals
vn 0 3.0534128e-12 0.00053040858
vn 0 -3.0534128e-12 -0.00053040858
vn -6.9345951e-05 -0.001248075 7.1848165e-12
vn -0.00029446452 -0.0012148214 6.9933842e-12
vn -0.00060047803 -0.0010963241 6.3112284e-12
vn -0.00088749162 -0.00088026066 5.0674126e-12
vn -0.0011110511 -0.00057277043 3.297278e-12
vn -0.0012235007 -0.00025602014 1.4738358e-12
vn -0.0012487355 -5.6215111e-05 3.2361456e-13
vn -0.001243172 0.00013047442 -7.5110447e-13
vn -0.0010896368 0.00061252929 -3.5261585e-12
vn -0.00056721055 0.0011138996 -6.4124066e-12
vn 4.5444349e-06 0.0012499918 -7.1958507e-12
vn 0.00058212056 0.0011061808 -6.3679713e-12
vn 0.0010979302 0.0005975361 -3.4398471e-12
vn 0.0012436728 0.00012561113 -7.2310793e-13
vn 0.0012459768 0.00010021019 -5.7688186e-13
vn 0.001141098 0.00051029003 -2.9375957e-12
vn 0.00067057868 0.001054905 -6.0727907e-12
vn 0.00015101061 0.0012408448 -7.1431945e-12
vn 5.9156184e-05 0.0012485995 -7.1878358e-12
vn 0.00022015604 0.0012304599 -7.0834111e-12
vn 0.00040027619 0.0011841787 -6.8169836e-12
vn 0.00063767453 0.0010751146 -6.1891321e-12
vn 0.00098112074 0.00077453378 -4.4587728e-12
vn 0.0012013483 0.00034534393 -1.9880477e-12
vn 0.0012499742 8.0395394e-06 -4.6281362e-14
vn 0.0012179743 -0.00028113832 1.6184341e-12
vn 0.0011001566 -0.00059342728 3.4161938e-12
vn 0.00088862807 -0.00087911345 5.0608085e-12
vn 0.00060947036 -0.0010913506 6.2825981e-12
vn 0.00029759872 -0.0012140573 6.9889862e-12
vn 6.9717236e-05 -0.0012480543 7.1846973e-12

# Mesh 'mesh_id463' with 120 faces
g mesh_id463
usemtl 353
f  1//1 2//1 3//1
f  2//1 4//1 5//1
f  4//1 6//1 7//1
f  6//1 8//1 9//1
f  8//1 10//1 11//1
f  10//1 12//1 13//1
f  12//1 14//1 15//1
f  16//1 17//1 18//1
f  16//1 19//1 17//1
f  16//1 20//1 19//1
f  16//1 21//1 20//1
f  16//1 22//1 21//1
f  22//1 23//1 24//1
f  23//1 25//1 26//1
f  25//1 27//1 28//1
f  27//1 2//1 1//1
f  2//1 6//1 4//1
f  6//1 10//1 8//1
f  10//1 14//1 12//1
f  16//1 23//1 22//1
f  29//1 23//1 16//1
f  29//1 25//1 23//1
f  29//1 27//1 25//1
f  27//1 6//1 2//1
f  6//1 14//1 10//1
f  29//1 6//1 27//1
f  30//1 6//1 29//1
f  6//1 31//1 14//1
f  30//1 31//1 6//1
f  32//2 33//2 34//2
f  35//2 36//2 33//2
f  37//2 38//2 36//2
f  39//2 40//2 38//2
f  41//2 42//2 40//2
f  43//2 44//2 42//2
f  45//2 46//2 44//2
f  47//2 48//2 49//2
f  48//2 50//2 49//2
f  50//2 51//2 49//2
f  51//2 52//2 49//2
f  52//2 53//2 49//2
f  54//2 55//2 53//2
f  56//2 57//2 55//2
f  58//2 59//2 57//2
f  34//2 33//2 59//2
f  36//2 38//2 33//2
f  40//2 42//2 38//2
f  44//2 46//2 42//2
f  53//2 55//2 49//2
f  49//2 55//2 60//2
f  55//2 57//2 60//2
f  57//2 59//2 60//2
f  33//2 38//2 59//2
f  42//2 46//2 38//2
f  59//2 38//2 60//2
f  60//2 38//2 61//2
f  46//2 62//2 38//2
f  38//2 62//2 61//2
f  3//3 33//4 32//3
f  3//3 2//4 33//4
f  2//4 35//5 33//4
f  2//4 5//5 35//5
f  5//5 36//6 35//5
f  5//5 4//6 36//6
f  4//6 37//7 36//6
f  4//6 7//7 37//7
f  7//7 38//8 37//7
f  7//7 6//8 38//8
f  6//8 39//9 38//8
f  6//8 9//9 39//9
f  9//9 40//10 39//9
f  9//9 8//10 40//10
f  8//10 41//11 40//10
f  8//10 11//11 41//11
f  11//11 42//12 41//11
f  11//11 10//12 42//12
f  10//12 43//13 42//12
f  10//12 13//13 43//13
f  13//13 44//14 43//13
f  13//13 12//14 44//14
f  12//14 45//15 44//14
f  12//14 15//15 45//15
f  15//15 46//16 45//15
f  15//15 14//16 46//16
f  14//16 62//17 46//16
f  14//16 31//17 62//17
f  31//17 61//18 62//17
f  31//17 30//18 61//18
f  30//18 60//19 61//18
f  30//18 29//19 60//19
f  29//19 49//20 60//19
f  29//19 16//20 49//20
f  16//20 47//21 49//20
f  16//20 18//21 47//21
f  18//21 48//22 47//21
f  18//21 17//22 48//22
f  17//22 50//23 48//22
f  17//22 19//23 50//23
f  19//23 51//24 50//23
f  19//23 20//24 51//24
f  20//24 52//25 51//24
f  20//24 21//25 52//25
f  21//25 53//26 52//25
f  21//25 22//26 53//26
f  22//26 54//27 53//26
f  22//26 24//27 54//27
f  24//27 55//28 54//27
f  24//27 23//28 55//28
f  23//28 56//29 55//28
f  23//28 26//29 56//29
f  26//29 57//30 56//29
f  26//29 25//30 57//30
f  25//30 58//31 57//30
f  25//30 28//31 58//31
f  28//31 59//32 58//31
f  28//31 27//32 59//32
f  27//32 34//33 59//32
f  27//32 1//33 34//33
f  1//33 32//3 34//33
f  1//33 3//3 32//3

