# File produced by Open Asset Import Library (http://www.assimp.sf.net)
# (assimp v5.0.1588609223)

mtllib result.mtl

# 182 vertex positions
v  -0.0051400233 0.005123144 0.25306952
v  -0.004599506 -0.0028026216 0.25306952
v  -0.0043420214 -0.0027770568 0.25306952
v  -0.0047917292 -0.0028792992 0.25306952
v  -0.0051190369 0.0049946439 0.25306952
v  -0.0050560683 0.0048335921 0.25306952
v  -0.0049511213 0.0046399813 0.25306952
v  -0.0047728885 0.0044650678 0.25306952
v  0.0065905787 -0.0027770568 0.25306952
v  0.006785091 -0.0027976986 0.25306952
v  0.006956324 -0.0028596297 0.25306952
v  -0.0044900551 0.0043601263 0.25306952
v  -0.0041026231 0.0043251459 0.25306952
v  0.0061915778 0.0043251459 0.25306952
v  0.0071042925 -0.0029628426 0.25306952
v  0.0072178915 -0.0031223036 0.25306952
v  0.0072860532 -0.0033529773 0.25306952
v  0.006622646 0.0043596383 0.25306952
v  0.0069200285 0.0044631343 0.25306952
v  0.0073087811 -0.0036548562 0.25306952
v  0.0070837177 0.0046356153 0.25306952
v  0.007228978 0.005123144 0.25306952
v  0.0073625296 0.01167568 0.25306952
v  0.007228978 0.010549543 0.25306952
v  0.0077631958 0.012618525 0.25306952
v  0.0084309652 0.013378082 0.25306952
v  0.0092749521 0.013934666 0.25306952
v  0.01121898 0.014379947 0.25306952
v  0.0102043 0.014268627 0.25306952
v  0.013287682 0.013909737 0.25306952
v  0.012327168 0.014262388 0.25306952
v  0.014716323 0.012552576 0.25306952
v  0.014100507 0.013321972 0.25306952
v  0.015208978 0.010629347 0.25306952
v  0.015085816 0.011655038 0.25306952
v  0.015087817 -0.013041126 0.25306952
v  0.015208978 -0.012113658 0.25306952
v  0.014118589 -0.014530725 0.25306952
v  0.014724359 -0.013846814 0.25306952
v  0.012522586 -0.015361421 0.25306952
v  0.013356116 -0.015049911 0.25306952
v  -0.0096088219 -0.015465258 0.25306952
v  0.011617981 -0.015465258 0.25306952
v  -0.011414299 -0.015049356 0.25306952
v  -0.010563934 -0.015361284 0.25306952
v  -0.01273765 -0.013845152 0.25306952
v  -0.012159929 -0.014529478 0.25306952
v  -0.013199823 -0.012113658 0.25306952
v  -0.013084281 -0.013039878 0.25306952
v  -0.013199823 0.007024629 0.25306952
v  -0.014072914 0.0078054499 0.25306952
v  -0.013632976 0.0073761027 0.25306952
v  -0.014519641 0.0083126519 0.25306952
v  -0.015119802 0.0095999818 0.25306952
v  -0.014894744 0.0089075472 0.25306952
v  -0.015069099 0.01142644 0.25306952
v  -0.015194822 0.010389945 0.25306952
v  -0.014063284 0.013199778 0.25306952
v  -0.014691917 0.012363056 0.25306952
v  -0.012254484 0.01424882 0.25306952
v  -0.013233906 0.013855422 0.25306952
v  -0.010380087 0.014329305 0.25306952
v  -0.011125023 0.014379947 0.25306952
v  -0.008909326 0.013924213 0.25306952
v  -0.0096415188 0.014177395 0.25306952
v  -0.0075701848 0.013192987 0.25306952
v  -0.0082100406 0.013589488 0.25306952
v  -0.0064739753 0.012218481 0.25306952
v  -0.0069897622 0.012734694 0.25306952
v  -0.0056518652 0.011023981 0.25306952
v  -0.0060280059 0.011648251 0.25306952
v  -0.0051968936 0.0096695963 0.25306952
v  -0.0053675119 0.010359732 0.25306952
v  -0.0051400233 0.0089535434 0.25306952
v  -0.0049187019 -0.0030071046 0.25306952
v  0.007164415 0.0048277695 0.25306952
v  0.0072128363 0.0049902853 0.25306952
v  0.0073087811 -0.007405458 0.25306952
v  0.0072874464 -0.0076374467 0.25306952
v  0.0072234347 -0.0078330003 0.25306952
v  -0.0049973298 -0.0031813234 0.25306952
v  0.0071167611 -0.0079921111 0.25306952
v  0.0069729537 -0.0081095267 0.25306952
v  0.0067975558 -0.0081799757 0.25306952
v  0.0065905787 -0.0082034562 0.25306952
v  -0.0043420214 -0.0082034562 0.25306952
v  -0.0047410224 -0.0081147924 0.25306952
v  -0.0049804263 -0.0078487918 0.25306952
v  -0.005060222 -0.007405458 0.25306952
v  -0.0050444975 -0.0033972412 0.25306952
v  -0.005060222 -0.0036548562 0.25306952
v  -0.0043420214 -0.0027770568 0.24495783
v  -0.004599506 -0.0028026216 0.24495783
v  -0.0051400233 0.005123144 0.24495783
v  -0.0047917292 -0.0028792992 0.24495783
v  -0.0051190369 0.0049946439 0.24495783
v  -0.0050560683 0.0048335921 0.24495783
v  -0.0049511213 0.0046399813 0.24495783
v  -0.0047728885 0.0044650678 0.24495783
v  0.0065905787 -0.0027770568 0.24495783
v  0.006785091 -0.0027976986 0.24495783
v  0.006956324 -0.0028596297 0.24495783
v  -0.0044900551 0.0043601263 0.24495783
v  -0.0041026231 0.0043251459 0.24495783
v  0.0061915778 0.0043251459 0.24495783
v  0.0071042925 -0.0029628426 0.24495783
v  0.0072178915 -0.0031223036 0.24495783
v  0.0072860532 -0.0033529773 0.24495783
v  0.006622646 0.0043596383 0.24495783
v  0.0069200285 0.0044631343 0.24495783
v  0.0073087811 -0.0036548562 0.24495783
v  0.0070837177 0.0046356153 0.24495783
v  0.007228978 0.010549543 0.24495783
v  0.0073625296 0.01167568 0.24495783
v  0.007228978 0.005123144 0.24495783
v  0.0077631958 0.012618525 0.24495783
v  0.0084309652 0.013378082 0.24495783
v  0.0092749521 0.013934666 0.24495783
v  0.0102043 0.014268627 0.24495783
v  0.01121898 0.014379947 0.24495783
v  0.012327168 0.014262388 0.24495783
v  0.013287682 0.013909737 0.24495783
v  0.014100507 0.013321972 0.24495783
v  0.014716323 0.012552576 0.24495783
v  0.015085816 0.011655038 0.24495783
v  0.015208978 0.010629347 0.24495783
v  0.015208978 -0.012113658 0.24495783
v  0.015087817 -0.013041126 0.24495783
v  0.014724359 -0.013846814 0.24495783
v  0.014118589 -0.014530725 0.24495783
v  0.013356116 -0.015049911 0.24495783
v  0.012522586 -0.015361421 0.24495783
v  0.011617981 -0.015465258 0.24495783
v  -0.0096088219 -0.015465258 0.24495783
v  -0.010563934 -0.015361284 0.24495783
v  -0.011414299 -0.015049356 0.24495783
v  -0.012159929 -0.014529478 0.24495783
v  -0.01273765 -0.013845152 0.24495783
v  -0.013084281 -0.013039878 0.24495783
v  -0.013199823 -0.012113658 0.24495783
v  -0.013632976 0.0073761027 0.24495783
v  -0.014072914 0.0078054499 0.24495783
v  -0.013199823 0.007024629 0.24495783
v  -0.014519641 0.0083126519 0.24495783
v  -0.014894744 0.0089075472 0.24495783
v  -0.015119802 0.0095999818 0.24495783
v  -0.015194822 0.010389945 0.24495783
v  -0.015069099 0.01142644 0.24495783
v  -0.014691917 0.012363056 0.24495783
v  -0.014063284 0.013199778 0.24495783
v  -0.013233906 0.013855422 0.24495783
v  -0.012254484 0.01424882 0.24495783
v  -0.011125023 0.014379947 0.24495783
v  -0.010380087 0.014329305 0.24495783
v  -0.0096415188 0.014177395 0.24495783
v  -0.008909326 0.013924213 0.24495783
v  -0.0082100406 0.013589488 0.24495783
v  -0.0075701848 0.013192987 0.24495783
v  -0.0069897622 0.012734694 0.24495783
v  -0.0064739753 0.012218481 0.24495783
v  -0.0060280059 0.011648251 0.24495783
v  -0.0056518652 0.011023981 0.24495783
v  -0.0053675119 0.010359732 0.24495783
v  -0.0051968936 0.0096695963 0.24495783
v  -0.0051400233 0.0089535434 0.24495783
v  -0.0049187019 -0.0030071046 0.24495783
v  0.007164415 0.0048277695 0.24495783
v  0.0072128363 0.0049902853 0.24495783
v  0.0073087811 -0.007405458 0.24495783
v  0.0072874464 -0.0076374467 0.24495783
v  0.0072234347 -0.0078330003 0.24495783
v  -0.0049973298 -0.0031813234 0.24495783
v  0.0071167611 -0.0079921111 0.24495783
v  0.0069729537 -0.0081095267 0.24495783
v  0.0067975558 -0.0081799757 0.24495783
v  0.0065905787 -0.0082034562 0.24495783
v  -0.0043420214 -0.0082034562 0.24495783
v  -0.0047410224 -0.0081147924 0.24495783
v  -0.0049804263 -0.0078487918 0.24495783
v  -0.005060222 -0.007405458 0.24495783
v  -0.0050444975 -0.0033972412 0.24495783
v  -0.005060222 -0.0036548562 0.24495783

# 0 UV coordinates

# 93 vertex normals
vn 0 -1.5746872e-12 0.00054077909
vn 0 1.5746872e-12 -0.00054077909
vn 0.0012459076 0.00010106609 2.9429294e-13
vn 0.0012056108 0.00033015601 9.613767e-13
vn 0.0011337372 0.00052644114 1.5329366e-12
vn 0.00099830434 0.00075225584 2.1904833e-12
vn 0.00066994893 0.001055305 3.072928e-12
vn 0.00027604119 0.0012191397 3.5499958e-12
vn 5.626263e-05 0.0012487333 3.6361691e-12
vn -4.989341e-05 0.0012490039 3.6369573e-12
vn -0.00025737175 0.0012232171 3.5618689e-12
vn -0.00067793514 0.0010501924 3.0580408e-12
vn -0.0010466576 0.00068337994 1.9899247e-12
vn -0.0011769393 0.00042108662 1.2261563e-12
vn -0.0012237653 0.0002547522 7.4180945e-13
vn -0.001247717 7.5514603e-05 2.1988993e-13
vn -0.0012478236 7.3732415e-05 2.147004e-13
vn -0.0012080083 0.00032127282 9.3550992e-13
vn -0.0010580681 0.00066557643 1.9380827e-12
vn -0.00082075706 0.00094279274 2.7453051e-12
vn -0.00055940246 0.0011178413 3.2550267e-12
vn -0.00028147284 0.0012178971 3.5463776e-12
vn -2.2392571e-06 0.0012499981 3.6398519e-12
vn 0.00028348438 0.0012174305 3.5450189e-12
vn 0.00058714481 0.0011035221 3.2133309e-12
vn 0.00086200645 0.0009052321 2.6359329e-12
vn 0.0010767651 0.00063488347 1.8487085e-12
vn 0.0012095741 0.00031532659 9.181951e-13
vn 0.0012477693 7.4646145e-05 2.1736107e-13
vn 0.0012473646 -8.112986e-05 -2.3624093e-13
vn 0.0012024047 -0.00034164765 -9.9483909e-13
vn 0.0010494441 -0.00067909306 -1.9774416e-12
vn 0.00082597882 -0.00093822129 -2.7319937e-12
vn 0.00057470537 -0.0011100514 -3.2323432e-12
vn 0.00029223121 -0.0012153606 -3.5389916e-12
vn 7.1390408e-05 -0.0012479598 -3.633917e-12
vn -6.7737994e-05 -0.0012481634 -3.6345096e-12
vn -0.00028497836 -0.0012170817 -3.5440032e-12
vn -0.00057746953 -0.0011086159 -3.2281632e-12
vn -0.0008421833 -0.00092370313 -2.6897185e-12
vn -0.0010631632 -0.00065740716 -1.9142949e-12
vn -0.0012062702 -0.00032773844 -9.5433698e-13
vn -0.0012475942 -7.7515877e-05 -2.2571739e-13
vn -0.0011284992 -0.00053757778 -1.5653652e-12
vn -0.00083120394 -0.00093359529 -2.7185231e-12
vn -0.00090618699 -0.00086100248 -2.5071412e-12
vn -0.0010008778 -0.00074882834 -2.1805027e-12
vn -0.0011317836 -0.00053062808 -1.5451285e-12
vn -0.0012239614 -0.00025380895 -7.3906273e-13
vn -0.0012498943 1.6264805e-05 4.7361261e-14
vn -0.0012105906 0.00031140118 9.0676479e-13
vn -0.0010887356 0.00061412953 1.7882753e-12
vn -0.00089468801 0.00087294541 2.5419176e-12
vn -0.00062698987 0.0010813805 3.148857e-12
vn -0.00030775295 0.0012115232 3.5278176e-12
vn -2.9811914e-05 0.0012496446 3.6388228e-12
vn 0.000168689 0.0012385654 3.6065614e-12
vn 0.00033086489 0.0012054164 3.5100354e-12
vn 0.00047486118 0.0011562903 3.3669855e-12
vn 0.00059993728 0.00109662 3.1932328e-12
vn 0.00071767939 0.0010234435 2.9801508e-12
vn 0.00083086808 0.00093389431 2.7193939e-12
vn 0.00093616039 0.00082831405 2.4119563e-12
vn 0.001029548 0.00070889434 2.0642197e-12
vn 0.0011125419 0.0005698693 1.6593945e-12
vn 0.0011851919 0.00039726641 1.1567945e-12
vn 0.0012338725 0.00020014755 5.8280686e-13
vn 0.0012490188 4.952155e-05 1.4420111e-13
vn -0.0012486865 5.7293833e-05 1.6683311e-13
vn -0.001249118 -4.6951714e-05 -1.3671804e-13
vn -0.0012295294 -0.00022529464 -6.5603236e-13
vn -0.0011238361 -0.00054725929 -1.5935568e-12
vn -0.00087948312 -0.00088826224 -2.5865185e-12
vn -0.00057506753 -0.0011098639 -3.231797e-12
vn -0.00028056873 -0.0012181057 -3.5469852e-12
vn -6.6049251e-05 -0.0012482539 -3.6347733e-12
vn 6.1828163e-05 -0.0012484702 -3.6354027e-12
vn 0.00029623223 -0.0012143916 -3.5361698e-12
vn 0.00068932294 -0.0010427531 -3.0363784e-12
vn 0.0010295192 -0.00070893613 -2.0643413e-12
vn 0.0011867356 -0.00039263075 -1.1432961e-12
vn 0.0012381132 -0.00017197711 -5.0077775e-13
vn 0.0012494194 -3.8093982e-05 -1.1092534e-13
vn 0.001245048 0.00011115574 3.2367286e-13
vn 0.0011225773 0.00054983661 1.6010616e-12
vn 0.00063010264 0.0010795698 3.1435844e-12
vn 0.00013639223 0.0012425367 3.6181253e-12
vn -7.0564558e-05 0.0012480067 3.6340536e-12
vn -0.00030615969 0.0012119268 3.5289929e-12
vn -0.00063549558 0.0010764041 3.134366e-12
vn -0.00092448277 0.00084132736 2.4498496e-12
vn -0.0011236625 0.00054761587 1.594595e-12
vn -0.0012240736 0.00025326674 7.3748391e-13

# Mesh 'mesh_id499' with 364 faces
g mesh_id499
usemtl 381
f  1//1 2//1 3//1
f  1//1 4//1 2//1
f  3//1 5//1 1//1
f  3//1 6//1 5//1
f  3//1 7//1 6//1
f  3//1 8//1 7//1
f  9//1 8//1 3//1
f  10//1 8//1 9//1
f  11//1 8//1 10//1
f  11//1 12//1 8//1
f  11//1 13//1 12//1
f  11//1 14//1 13//1
f  15//1 14//1 11//1
f  16//1 14//1 15//1
f  17//1 14//1 16//1
f  17//1 18//1 14//1
f  17//1 19//1 18//1
f  20//1 19//1 17//1
f  20//1 21//1 19//1
f  22//1 23//1 24//1
f  22//1 25//1 23//1
f  22//1 26//1 25//1
f  22//1 27//1 26//1
f  27//1 28//1 29//1
f  28//1 30//1 31//1
f  30//1 32//1 33//1
f  32//1 34//1 35//1
f  34//1 36//1 37//1
f  36//1 38//1 39//1
f  38//1 40//1 41//1
f  40//1 42//1 43//1
f  42//1 44//1 45//1
f  44//1 46//1 47//1
f  46//1 48//1 49//1
f  50//1 51//1 52//1
f  50//1 53//1 51//1
f  53//1 54//1 55//1
f  54//1 56//1 57//1
f  56//1 58//1 59//1
f  58//1 60//1 61//1
f  60//1 62//1 63//1
f  62//1 64//1 65//1
f  64//1 66//1 67//1
f  66//1 68//1 69//1
f  68//1 70//1 71//1
f  70//1 72//1 73//1
f  72//1 1//1 74//1
f  1//1 75//1 4//1
f  20//1 76//1 21//1
f  20//1 77//1 76//1
f  20//1 22//1 77//1
f  20//1 27//1 22//1
f  78//1 27//1 20//1
f  79//1 27//1 78//1
f  79//1 28//1 27//1
f  79//1 30//1 28//1
f  79//1 32//1 30//1
f  80//1 32//1 79//1
f  80//1 34//1 32//1
f  80//1 36//1 34//1
f  80//1 38//1 36//1
f  38//1 42//1 40//1
f  42//1 46//1 44//1
f  46//1 50//1 48//1
f  50//1 54//1 53//1
f  54//1 58//1 56//1
f  58//1 62//1 60//1
f  62//1 66//1 64//1
f  66//1 70//1 68//1
f  70//1 1//1 72//1
f  1//1 81//1 75//1
f  82//1 38//1 80//1
f  83//1 38//1 82//1
f  84//1 38//1 83//1
f  85//1 38//1 84//1
f  86//1 38//1 85//1
f  87//1 38//1 86//1
f  38//1 46//1 42//1
f  50//1 58//1 54//1
f  50//1 62//1 58//1
f  62//1 70//1 66//1
f  70//1 81//1 1//1
f  87//1 46//1 38//1
f  88//1 46//1 87//1
f  89//1 46//1 88//1
f  89//1 50//1 46//1
f  50//1 70//1 62//1
f  70//1 90//1 81//1
f  91//1 50//1 89//1
f  91//1 70//1 50//1
f  91//1 90//1 70//1
f  92//2 93//2 94//2
f  93//2 95//2 94//2
f  94//2 96//2 92//2
f  96//2 97//2 92//2
f  97//2 98//2 92//2
f  98//2 99//2 92//2
f  92//2 99//2 100//2
f  100//2 99//2 101//2
f  101//2 99//2 102//2
f  99//2 103//2 102//2
f  103//2 104//2 102//2
f  104//2 105//2 102//2
f  102//2 105//2 106//2
f  106//2 105//2 107//2
f  107//2 105//2 108//2
f  105//2 109//2 108//2
f  109//2 110//2 108//2
f  108//2 110//2 111//2
f  110//2 112//2 111//2
f  113//2 114//2 115//2
f  114//2 116//2 115//2
f  116//2 117//2 115//2
f  117//2 118//2 115//2
f  119//2 120//2 118//2
f  121//2 122//2 120//2
f  123//2 124//2 122//2
f  125//2 126//2 124//2
f  127//2 128//2 126//2
f  129//2 130//2 128//2
f  131//2 132//2 130//2
f  133//2 134//2 132//2
f  135//2 136//2 134//2
f  137//2 138//2 136//2
f  139//2 140//2 138//2
f  141//2 142//2 143//2
f  142//2 144//2 143//2
f  145//2 146//2 144//2
f  147//2 148//2 146//2
f  149//2 150//2 148//2
f  151//2 152//2 150//2
f  153//2 154//2 152//2
f  155//2 156//2 154//2
f  157//2 158//2 156//2
f  159//2 160//2 158//2
f  161//2 162//2 160//2
f  163//2 164//2 162//2
f  165//2 94//2 164//2
f  95//2 166//2 94//2
f  112//2 167//2 111//2
f  167//2 168//2 111//2
f  168//2 115//2 111//2
f  115//2 118//2 111//2
f  111//2 118//2 169//2
f  169//2 118//2 170//2
f  118//2 120//2 170//2
f  120//2 122//2 170//2
f  122//2 124//2 170//2
f  170//2 124//2 171//2
f  124//2 126//2 171//2
f  126//2 128//2 171//2
f  128//2 130//2 171//2
f  132//2 134//2 130//2
f  136//2 138//2 134//2
f  140//2 143//2 138//2
f  144//2 146//2 143//2
f  148//2 150//2 146//2
f  152//2 154//2 150//2
f  156//2 158//2 154//2
f  160//2 162//2 158//2
f  164//2 94//2 162//2
f  166//2 172//2 94//2
f  171//2 130//2 173//2
f  173//2 130//2 174//2
f  174//2 130//2 175//2
f  175//2 130//2 176//2
f  176//2 130//2 177//2
f  177//2 130//2 178//2
f  134//2 138//2 130//2
f  146//2 150//2 143//2
f  150//2 154//2 143//2
f  158//2 162//2 154//2
f  94//2 172//2 162//2
f  130//2 138//2 178//2
f  178//2 138//2 179//2
f  179//2 138//2 180//2
f  138//2 143//2 180//2
f  154//2 162//2 143//2
f  172//2 181//2 162//2
f  180//2 143//2 182//2
f  143//2 162//2 182//2
f  162//2 181//2 182//2
f  1//3 96//4 94//3
f  1//3 5//4 96//4
f  5//4 97//5 96//4
f  5//4 6//5 97//5
f  6//5 98//6 97//5
f  6//5 7//6 98//6
f  7//6 99//7 98//6
f  7//6 8//7 99//7
f  8//7 103//8 99//7
f  8//7 12//8 103//8
f  12//8 104//9 103//8
f  12//8 13//9 104//9
f  13//9 105//10 104//9
f  13//9 14//10 105//10
f  14//10 109//11 105//10
f  14//10 18//11 109//11
f  18//11 110//12 109//11
f  18//11 19//12 110//12
f  19//12 112//13 110//12
f  19//12 21//13 112//13
f  21//13 167//14 112//13
f  21//13 76//14 167//14
f  76//14 168//15 167//14
f  76//14 77//15 168//15
f  77//15 115//16 168//15
f  77//15 22//16 115//16
f  22//16 113//17 115//16
f  22//16 24//17 113//17
f  24//17 114//18 113//17
f  24//17 23//18 114//18
f  23//18 116//19 114//18
f  23//18 25//19 116//19
f  25//19 117//20 116//19
f  25//19 26//20 117//20
f  26//20 118//21 117//20
f  26//20 27//21 118//21
f  27//21 119//22 118//21
f  27//21 29//22 119//22
f  29//22 120//23 119//22
f  29//22 28//23 120//23
f  28//23 121//24 120//23
f  28//23 31//24 121//24
f  31//24 122//25 121//24
f  31//24 30//25 122//25
f  30//25 123//26 122//25
f  30//25 33//26 123//26
f  33//26 124//27 123//26
f  33//26 32//27 124//27
f  32//27 125//28 124//27
f  32//27 35//28 125//28
f  35//28 126//29 125//28
f  35//28 34//29 126//29
f  34//29 127//30 126//29
f  34//29 37//30 127//30
f  37//30 128//31 127//30
f  37//30 36//31 128//31
f  36//31 129//32 128//31
f  36//31 39//32 129//32
f  39//32 130//33 129//32
f  39//32 38//33 130//33
f  38//33 131//34 130//33
f  38//33 41//34 131//34
f  41//34 132//35 131//34
f  41//34 40//35 132//35
f  40//35 133//36 132//35
f  40//35 43//36 133//36
f  43//36 134//37 133//36
f  43//36 42//37 134//37
f  42//37 135//38 134//37
f  42//37 45//38 135//38
f  45//38 136//39 135//38
f  45//38 44//39 136//39
f  44//39 137//40 136//39
f  44//39 47//40 137//40
f  47//40 138//41 137//40
f  47//40 46//41 138//41
f  46//41 139//42 138//41
f  46//41 49//42 139//42
f  49//42 140//43 139//42
f  49//42 48//43 140//43
f  48//43 143//44 140//43
f  48//43 50//44 143//44
f  50//44 141//45 143//44
f  50//44 52//45 141//45
f  52//45 142//46 141//45
f  52//45 51//46 142//46
f  51//46 144//47 142//46
f  51//46 53//47 144//47
f  53//47 145//48 144//47
f  53//47 55//48 145//48
f  55//48 146//49 145//48
f  55//48 54//49 146//49
f  54//49 147//50 146//49
f  54//49 57//50 147//50
f  57//50 148//51 147//50
f  57//50 56//51 148//51
f  56//51 149//52 148//51
f  56//51 59//52 149//52
f  59//52 150//53 149//52
f  59//52 58//53 150//53
f  58//53 151//54 150//53
f  58//53 61//54 151//54
f  61//54 152//55 151//54
f  61//54 60//55 152//55
f  60//55 153//56 152//55
f  60//55 63//56 153//56
f  63//56 154//57 153//56
f  63//56 62//57 154//57
f  62//57 155//58 154//57
f  62//57 65//58 155//58
f  65//58 156//59 155//58
f  65//58 64//59 156//59
f  64//59 157//60 156//59
f  64//59 67//60 157//60
f  67//60 158//61 157//60
f  67//60 66//61 158//61
f  66//61 159//62 158//61
f  66//61 69//62 159//62
f  69//62 160//63 159//62
f  69//62 68//63 160//63
f  68//63 161//64 160//63
f  68//63 71//64 161//64
f  71//64 162//65 161//64
f  71//64 70//65 162//65
f  70//65 163//66 162//65
f  70//65 73//66 163//66
f  73//66 164//67 163//66
f  73//66 72//67 164//67
f  72//67 165//68 164//67
f  72//67 74//68 165//68
f  74//68 94//3 165//68
f  74//68 1//3 94//3
f  78//69 111//70 169//69
f  78//69 20//70 111//70
f  20//70 108//71 111//70
f  20//70 17//71 108//71
f  17//71 107//72 108//71
f  17//71 16//72 107//72
f  16//72 106//73 107//72
f  16//72 15//73 106//73
f  15//73 102//74 106//73
f  15//73 11//74 102//74
f  11//74 101//75 102//74
f  11//74 10//75 101//75
f  10//75 100//76 101//75
f  10//75 9//76 100//76
f  9//76 92//77 100//76
f  9//76 3//77 92//77
f  3//77 93//78 92//77
f  3//77 2//78 93//78
f  2//78 95//79 93//78
f  2//78 4//79 95//79
f  4//79 166//80 95//79
f  4//79 75//80 166//80
f  75//80 172//81 166//80
f  75//80 81//81 172//81
f  81//81 181//82 172//81
f  81//81 90//82 181//82
f  90//82 182//83 181//82
f  90//82 91//83 182//83
f  91//83 180//84 182//83
f  91//83 89//84 180//84
f  89//84 179//85 180//84
f  89//84 88//85 179//85
f  88//85 178//86 179//85
f  88//85 87//86 178//86
f  87//86 177//87 178//86
f  87//86 86//87 177//87
f  86//87 176//88 177//87
f  86//87 85//88 176//88
f  85//88 175//89 176//88
f  85//88 84//89 175//89
f  84//89 174//90 175//89
f  84//89 83//90 174//90
f  83//90 173//91 174//90
f  83//90 82//91 173//91
f  82//91 171//92 173//91
f  82//91 80//92 171//92
f  80//92 170//93 171//92
f  80//92 79//93 170//93
f  79//93 169//69 170//93
f  79//93 78//69 169//69

