# File produced by Open Asset Import Library (http://www.assimp.sf.net)
# (assimp v5.0.1588609223)

mtllib result.mtl

# 92 vertex positions
v  0.0087092556 -0.012135173 0.25282633
v  0.00032811984 0.0019183122 0.25282633
v  0.00036391988 0.0018435437 0.25282633
v  0.00031085312 0.001954373 0.25282633
v  0.00030420721 0.0018590596 0.25282633
v  0.00029963255 0.0020208787 0.25282633
v  -0.0081597194 -0.011953129 0.25282633
v  -0.0088946205 -0.012858294 0.25282633
v  -0.010863569 -0.014014837 0.25282633
v  -0.0097958986 -0.013545527 0.25282633
v  -0.013247041 -0.014101841 0.25282633
v  -0.012034874 -0.014216763 0.25282633
v  -0.015387097 -0.013019625 0.25282633
v  -0.014500082 -0.013670076 0.25282633
v  -0.016243838 -0.01114266 0.25282633
v  -0.015968349 -0.01217715 0.25282633
v  -0.01606207 -0.0090977866 0.25282633
v  -0.016259702 -0.010066194 0.25282633
v  -0.0040263273 0.010865932 0.25282633
v  -0.015650949 -0.008237442 0.25282633
v  -0.0026628021 0.012710752 0.25282633
v  -0.0033408962 0.011899864 0.25282633
v  -0.0013070367 0.013695503 0.25282633
v  -0.0019920524 0.013298588 0.25282633
v  0.00017065182 0.014013043 0.25282633
v  -0.00058612972 0.01393366 0.25282633
v  0.0023385547 0.01352427 0.25282633
v  0.0013743006 0.013890846 0.25282633
v  0.003640566 0.012177499 0.25282633
v  0.0030634031 0.012913303 0.25282633
v  0.0046269856 0.010690121 0.25282633
v  0.0041617602 0.011436449 0.25282633
v  0.016642354 -0.009061629 0.25282633
v  0.016242877 -0.0081152488 0.25282633
v  0.016775917 -0.011106501 0.25282633
v  0.01682004 -0.010058712 0.25282633
v  0.015803903 -0.013000089 0.25282633
v  0.016455393 -0.012116472 0.25282633
v  0.013901167 -0.014155875 0.25282633
v  0.014821436 -0.013757357 0.25282633
v  0.011591408 -0.014151994 0.25282633
v  0.012824502 -0.014287418 0.25282633
v  0.0094362535 -0.013076357 0.25282633
v  0.010396965 -0.013748631 0.25282633
v  0.00035989657 0.0019970462 0.25282633
v  0.00033025444 0.0020430442 0.25282633
v  0.00036391988 0.0018435437 0.24493933
v  0.00032811984 0.0019183122 0.24493933
v  0.0087092556 -0.012135173 0.24493933
v  0.00030420721 0.0018590596 0.24493933
v  0.00031085312 0.001954373 0.24493933
v  0.00029963255 0.0020208787 0.24493933
v  -0.0081597194 -0.011953129 0.24493933
v  -0.0088946205 -0.012858294 0.24493933
v  -0.0097958986 -0.013545527 0.24493933
v  -0.010863569 -0.014014837 0.24493933
v  -0.012034874 -0.014216763 0.24493933
v  -0.013247041 -0.014101841 0.24493933
v  -0.014500082 -0.013670076 0.24493933
v  -0.015387097 -0.013019625 0.24493933
v  -0.015968349 -0.01217715 0.24493933
v  -0.016243838 -0.01114266 0.24493933
v  -0.016259702 -0.010066194 0.24493933
v  -0.01606207 -0.0090977866 0.24493933
v  -0.015650949 -0.008237442 0.24493933
v  -0.0040263273 0.010865932 0.24493933
v  -0.0033408962 0.011899864 0.24493933
v  -0.0026628021 0.012710752 0.24493933
v  -0.0019920524 0.013298588 0.24493933
v  -0.0013070367 0.013695503 0.24493933
v  -0.00058612972 0.01393366 0.24493933
v  0.00017065182 0.014013043 0.24493933
v  0.0013743006 0.013890846 0.24493933
v  0.0023385547 0.01352427 0.24493933
v  0.0030634031 0.012913303 0.24493933
v  0.003640566 0.012177499 0.24493933
v  0.0041617602 0.011436449 0.24493933
v  0.0046269856 0.010690121 0.24493933
v  0.016242877 -0.0081152488 0.24493933
v  0.016642354 -0.009061629 0.24493933
v  0.01682004 -0.010058712 0.24493933
v  0.016775917 -0.011106501 0.24493933
v  0.016455393 -0.012116472 0.24493933
v  0.015803903 -0.013000089 0.24493933
v  0.014821436 -0.013757357 0.24493933
v  0.013901167 -0.014155875 0.24493933
v  0.012824502 -0.014287418 0.24493933
v  0.011591408 -0.014151994 0.24493933
v  0.010396965 -0.013748631 0.24493933
v  0.0094362535 -0.013076357 0.24493933
v  0.00035989657 0.0019970462 0.24493933
v  0.00033025444 0.0020430442 0.24493933

# 0 UV coordinates

# 50 vertex normals
vn -1.8856628e-26 1.3269169e-12 0.00052580057
vn 1.8856628e-26 -1.3269169e-12 -0.00052580057
vn -0.0011015076 -0.00059091597 1.4912429e-12
vn -0.0012493813 -3.9335067e-05 9.9266468e-14
vn -0.0012444309 -0.00011786678 2.9745005e-13
vn -0.0010506958 -0.00067715492 1.7088765e-12
vn 0.00073297689 -0.0010125439 2.5552685e-12
vn 0.0012325831 0.00020794175 -5.2476437e-13
vn 0.0011916158 0.00037756129 -9.5281834e-13
vn 0.0012493811 3.9340735e-05 -9.9280766e-14
vn 0.0011163326 -0.00056240766 1.4192989e-12
vn 0.0010203462 -0.00072207634 1.8222409e-12
vn 0.000870305 -0.00089725677 2.2643283e-12
vn 0.00063493475 -0.001076735 2.7172617e-12
vn 0.00036034864 -0.0011969332 3.0205955e-12
vn 4.760798e-05 -0.0012490931 3.152227e-12
vn -0.00026445952 -0.0012217043 3.0831082e-12
vn -0.00057975168 -0.0011074241 2.7947093e-12
vn -0.00089651608 -0.00087106798 2.1982379e-12
vn -0.0011351105 -0.00052347395 1.3210454e-12
vn -0.0012382024 -0.00017133419 4.323811e-13
vn -0.001244565 0.000116442 -2.9385449e-13
vn -0.001185143 0.00039741246 -1.002915e-12
vn -0.0010992386 0.00059512613 -1.5018676e-12
vn -0.0010550428 0.00067036209 -1.6917341e-12
vn -0.0010019237 0.00074742874 -1.8862203e-12
vn -0.00089406094 0.00087358779 -2.204597e-12
vn -0.00072871725 0.001015614 -2.563016e-12
vn -0.00051211083 0.0011402819 -2.8776296e-12
vn -0.00026276501 0.00122207 -3.0840309e-12
vn -2.0855089e-06 0.0012499983 -3.1545114e-12
vn 0.0002876895 0.0012164436 -3.0698321e-12
vn 0.00063387962 0.0010773565 -2.7188304e-12
vn 0.00089930074 0.00086819287 -2.1909824e-12
vn 0.0010033271 0.00074554374 -1.8814635e-12
vn 0.0010420149 0.00069043867 -1.7423995e-12
vn 0.0010621318 0.0006590726 -1.6632438e-12
vn 0.0011108295 0.00057320035 -1.4465355e-12
vn 0.0011985574 0.00035490963 -8.9565432e-13
vn 0.0012471845 8.3854437e-05 -2.116161e-13
vn 0.0012309747 -0.00021726069 5.482818e-13
vn 0.0011137156 -0.00056757248 1.4323329e-12
vn 0.00089326809 -0.00087439857 2.2066431e-12
vn 0.00063479127 -0.0010768197 2.7174756e-12
vn 0.00032752988 -0.0012063269 3.0443014e-12
vn 7.6168444e-06 -0.0012499769 3.1544572e-12
vn -0.00026977385 -0.0012205419 3.0801746e-12
vn -0.00056401413 -0.0011155216 2.8151442e-12
vn -0.00086281111 -0.00090446533 2.2825199e-12
vn -0.0010331097 -0.00070369366 1.7758501e-12

# Mesh 'mesh_id508' with 184 faces
g mesh_id508
usemtl 388
f  1//1 2//1 3//1
f  4//1 5//1 2//1
f  6//1 5//1 4//1
f  6//1 7//1 5//1
f  6//1 8//1 7//1
f  8//1 9//1 10//1
f  9//1 11//1 12//1
f  11//1 13//1 14//1
f  13//1 15//1 16//1
f  15//1 17//1 18//1
f  17//1 19//1 20//1
f  19//1 21//1 22//1
f  21//1 23//1 24//1
f  23//1 25//1 26//1
f  25//1 27//1 28//1
f  27//1 29//1 30//1
f  29//1 31//1 32//1
f  31//1 33//1 34//1
f  33//1 35//1 36//1
f  35//1 37//1 38//1
f  37//1 39//1 40//1
f  39//1 41//1 42//1
f  41//1 43//1 44//1
f  43//1 2//1 1//1
f  6//1 9//1 8//1
f  6//1 11//1 9//1
f  6//1 13//1 11//1
f  6//1 15//1 13//1
f  15//1 19//1 17//1
f  19//1 23//1 21//1
f  23//1 27//1 25//1
f  27//1 31//1 29//1
f  31//1 35//1 33//1
f  35//1 39//1 37//1
f  39//1 43//1 41//1
f  43//1 45//1 2//1
f  6//1 19//1 15//1
f  46//1 19//1 6//1
f  19//1 27//1 23//1
f  27//1 35//1 31//1
f  35//1 43//1 39//1
f  45//1 19//1 46//1
f  45//1 27//1 19//1
f  27//1 43//1 35//1
f  27//1 45//1 43//1
f  47//2 48//2 49//2
f  48//2 50//2 51//2
f  51//2 50//2 52//2
f  50//2 53//2 52//2
f  53//2 54//2 52//2
f  55//2 56//2 54//2
f  57//2 58//2 56//2
f  59//2 60//2 58//2
f  61//2 62//2 60//2
f  63//2 64//2 62//2
f  65//2 66//2 64//2
f  67//2 68//2 66//2
f  69//2 70//2 68//2
f  71//2 72//2 70//2
f  73//2 74//2 72//2
f  75//2 76//2 74//2
f  77//2 78//2 76//2
f  79//2 80//2 78//2
f  81//2 82//2 80//2
f  83//2 84//2 82//2
f  85//2 86//2 84//2
f  87//2 88//2 86//2
f  89//2 90//2 88//2
f  49//2 48//2 90//2
f  54//2 56//2 52//2
f  56//2 58//2 52//2
f  58//2 60//2 52//2
f  60//2 62//2 52//2
f  64//2 66//2 62//2
f  68//2 70//2 66//2
f  72//2 74//2 70//2
f  76//2 78//2 74//2
f  80//2 82//2 78//2
f  84//2 86//2 82//2
f  88//2 90//2 86//2
f  48//2 91//2 90//2
f  62//2 66//2 52//2
f  52//2 66//2 92//2
f  70//2 74//2 66//2
f  78//2 82//2 74//2
f  86//2 90//2 82//2
f  92//2 66//2 91//2
f  66//2 74//2 91//2
f  82//2 90//2 74//2
f  90//2 91//2 74//2
f  3//3 48//4 47//3
f  3//3 2//4 48//4
f  2//4 91//5 48//4
f  2//4 45//5 91//5
f  45//5 92//6 91//5
f  45//5 46//6 92//6
f  46//7 52//7 92//7
f  46//7 6//7 52//7
f  6//8 51//9 52//8
f  6//8 4//9 51//9
f  4//9 48//10 51//9
f  4//9 2//10 48//10
f  2//10 50//11 48//10
f  2//10 5//11 50//11
f  5//11 53//12 50//11
f  5//11 7//12 53//12
f  7//12 54//13 53//12
f  7//12 8//13 54//13
f  8//13 55//14 54//13
f  8//13 10//14 55//14
f  10//14 56//15 55//14
f  10//14 9//15 56//15
f  9//15 57//16 56//15
f  9//15 12//16 57//16
f  12//16 58//17 57//16
f  12//16 11//17 58//17
f  11//17 59//18 58//17
f  11//17 14//18 59//18
f  14//18 60//19 59//18
f  14//18 13//19 60//19
f  13//19 61//20 60//19
f  13//19 16//20 61//20
f  16//20 62//21 61//20
f  16//20 15//21 62//21
f  15//21 63//22 62//21
f  15//21 18//22 63//22
f  18//22 64//23 63//22
f  18//22 17//23 64//23
f  17//23 65//24 64//23
f  17//23 20//24 65//24
f  20//24 66//25 65//24
f  20//24 19//25 66//25
f  19//25 67//26 66//25
f  19//25 22//26 67//26
f  22//26 68//27 67//26
f  22//26 21//27 68//27
f  21//27 69//28 68//27
f  21//27 24//28 69//28
f  24//28 70//29 69//28
f  24//28 23//29 70//29
f  23//29 71//30 70//29
f  23//29 26//30 71//30
f  26//30 72//31 71//30
f  26//30 25//31 72//31
f  25//31 73//32 72//31
f  25//31 28//32 73//32
f  28//32 74//33 73//32
f  28//32 27//33 74//33
f  27//33 75//34 74//33
f  27//33 30//34 75//34
f  30//34 76//35 75//34
f  30//34 29//35 76//35
f  29//35 77//36 76//35
f  29//35 32//36 77//36
f  32//36 78//37 77//36
f  32//36 31//37 78//37
f  31//37 79//38 78//37
f  31//37 34//38 79//38
f  34//38 80//39 79//38
f  34//38 33//39 80//39
f  33//39 81//40 80//39
f  33//39 36//40 81//40
f  36//40 82//41 81//40
f  36//40 35//41 82//41
f  35//41 83//42 82//41
f  35//41 38//42 83//42
f  38//42 84//43 83//42
f  38//42 37//43 84//43
f  37//43 85//44 84//43
f  37//43 40//44 85//44
f  40//44 86//45 85//44
f  40//44 39//45 86//45
f  39//45 87//46 86//45
f  39//45 42//46 87//46
f  42//46 88//47 87//46
f  42//46 41//47 88//47
f  41//47 89//48 88//47
f  41//47 44//48 89//48
f  44//48 90//49 89//48
f  44//48 43//49 90//49
f  43//49 49//50 90//49
f  43//49 1//50 49//50
f  1//50 47//3 49//50
f  1//50 3//3 47//3

