# File produced by Open Asset Import Library (http://www.assimp.sf.net)
# (assimp v5.0.1588609223)

mtllib result.mtl

# 114 vertex positions
v  0.0031588059 -0.0014638044 0.25378788
v  0.0030493569 -0.01716296 0.25378788
v  0.0031588059 -0.016298626 0.25378788
v  0.0021737758 -0.018439759 0.25378788
v  0.0027210135 -0.01787667 0.25378788
v  0.00070900284 -0.019061755 0.25378788
v  0.0014792364 -0.018839149 0.25378788
v  -0.00090955384 -0.018998027 0.25378788
v  -0.00013693422 -0.019107586 0.25378788
v  -0.0023104846 -0.018420808 0.25378788
v  -0.0016340725 -0.0187691 0.25378788
v  -0.0031803064 -0.017290751 0.25378788
v  -0.0028541274 -0.017934304 0.25378788
v  -0.0032890327 0.013700193 0.25378788
v  -0.0032890327 -0.016490147 0.25378788
v  -0.0039919391 0.014295364 0.25378788
v  -0.0036246944 0.013936097 0.25378788
v  -0.0047362987 0.01533387 0.25378788
v  -0.0043907724 0.01477799 0.25378788
v  -0.0050127134 0.016515138 0.25378788
v  -0.0049436092 0.015912918 0.25378788
v  -0.0045944303 0.018097615 0.25378788
v  -0.0049081426 0.01734733 0.25378788
v  -0.0033960994 0.019288847 0.25378788
v  -0.0040715728 0.018765995 0.25378788
v  -0.001756873 0.019707138 0.25378788
v  -0.0026245322 0.019602561 0.25378788
v  0.00061872788 0.019137898 0.25378788
v  -0.00047337264 0.019564824 0.25378788
v  0.0022382233 0.017514626 0.25378788
v  0.0015194155 0.018426346 0.25378788
v  0.0031588059 0.01534407 0.25378788
v  0.002784688 0.016487205 0.25378788
v  0.0031588059 0.0045770574 0.25378788
v  0.0043156836 0.0047373194 0.25378788
v  0.003594324 0.0046546906 0.25378788
v  0.0053228829 0.0048249364 0.25378788
v  0.0073591154 0.0048559662 0.25378788
v  0.0064069983 0.0048777442 0.25378788
v  0.0088310316 0.004568411 0.25378788
v  0.008179225 0.0047595985 0.25378788
v  0.0096924305 0.0037690811 0.25378788
v  0.0093354359 0.0042382367 0.25378788
v  0.010070156 0.0026625209 0.25378788
v  0.0099285059 0.0032231137 0.25378788
v  0.010084447 0.0015486423 0.25378788
v  0.010117367 0.0020872951 0.25378788
v  0.0098211095 0.00040750578 0.25378788
v  0.0099856965 0.00098871626 0.25378788
v  0.0091530047 -0.00050310045 0.25378788
v  0.0095553286 -0.0001160726 0.25378788
v  0.0079975091 -0.00096078962 0.25378788
v  0.008614134 -0.00075358525 0.25378788
v  0.0060610343 -0.0012578201 0.25378788
v  0.0071464796 -0.0011288673 0.25378788
v  0.0039693862 -0.0014222972 0.25378788
v  0.0049367938 -0.0013536364 0.25378788
v  0.0031588059 -0.016298626 0.24622187
v  0.0030493569 -0.01716296 0.24622187
v  0.0031588059 -0.0014638044 0.24622187
v  0.0027210135 -0.01787667 0.24622187
v  0.0021737758 -0.018439759 0.24622187
v  0.0014792364 -0.018839149 0.24622187
v  0.00070900284 -0.019061755 0.24622187
v  -0.00013693422 -0.019107586 0.24622187
v  -0.00090955384 -0.018998027 0.24622187
v  -0.0016340725 -0.0187691 0.24622187
v  -0.0023104846 -0.018420808 0.24622187
v  -0.0028541274 -0.017934304 0.24622187
v  -0.0031803064 -0.017290751 0.24622187
v  -0.0032890327 -0.016490147 0.24622187
v  -0.0032890327 0.013700193 0.24622187
v  -0.0036246944 0.013936097 0.24622187
v  -0.0039919391 0.014295364 0.24622187
v  -0.0043907724 0.01477799 0.24622187
v  -0.0047362987 0.01533387 0.24622187
v  -0.0049436092 0.015912918 0.24622187
v  -0.0050127134 0.016515138 0.24622187
v  -0.0049081426 0.01734733 0.24622187
v  -0.0045944303 0.018097615 0.24622187
v  -0.0040715728 0.018765995 0.24622187
v  -0.0033960994 0.019288847 0.24622187
v  -0.0026245322 0.019602561 0.24622187
v  -0.001756873 0.019707138 0.24622187
v  -0.00047337264 0.019564824 0.24622187
v  0.00061872788 0.019137898 0.24622187
v  0.0015194155 0.018426346 0.24622187
v  0.0022382233 0.017514626 0.24622187
v  0.002784688 0.016487205 0.24622187
v  0.0031588059 0.01534407 0.24622187
v  0.003594324 0.0046546906 0.24622187
v  0.0043156836 0.0047373194 0.24622187
v  0.0031588059 0.0045770574 0.24622187
v  0.0053228829 0.0048249364 0.24622187
v  0.0064069983 0.0048777442 0.24622187
v  0.0073591154 0.0048559662 0.24622187
v  0.008179225 0.0047595985 0.24622187
v  0.0088310316 0.004568411 0.24622187
v  0.0093354359 0.0042382367 0.24622187
v  0.0096924305 0.0037690811 0.24622187
v  0.0099285059 0.0032231137 0.24622187
v  0.010070156 0.0026625209 0.24622187
v  0.010117367 0.0020872951 0.24622187
v  0.010084447 0.0015486423 0.24622187
v  0.0099856965 0.00098871626 0.24622187
v  0.0098211095 0.00040750578 0.24622187
v  0.0095553286 -0.0001160726 0.24622187
v  0.0091530047 -0.00050310045 0.24622187
v  0.008614134 -0.00075358525 0.24622187
v  0.0079975091 -0.00096078962 0.24622187
v  0.0071464796 -0.0011288673 0.24622187
v  0.0060610343 -0.0012578201 0.24622187
v  0.0049367938 -0.0013536364 0.24622187
v  0.0039693862 -0.0014222972 0.24622187

# 0 UV coordinates

# 60 vertex normals
vn -1.879036e-12 2.2334929e-12 0.00050439994
vn 1.879036e-12 -2.2334929e-12 -0.00050439994
vn 0.00099801749 -6.293747e-05 3.996593e-12
vn 0.0009614497 -0.00027498123 4.7993011e-12
vn 0.00082468439 -0.00056559325 5.5766468e-12
vn 0.00061372435 -0.00078952051 5.782313e-12
vn 0.0003908973 -0.00092043437 5.5319074e-12
vn 0.00016695014 -0.00098596537 4.9878122e-12
vn -4.3355671e-05 -0.00099905976 4.2623444e-12
vn -0.00022159798 -0.00097513816 3.4924143e-12
vn -0.00038090552 -0.00092461408 2.6752259e-12
vn -0.00056690769 -0.00082378142 1.5358253e-12
vn -0.00079307408 -0.0006091253 -2.5721222e-13
vn -0.00095473096 -0.00029747086 -2.2394426e-12
vn -0.00099772355 -6.7438625e-05 -3.4181898e-12
vn -0.00088741269 -0.00046097595 -1.264659e-12
vn -0.00063924288 -0.00076900504 1.0238047e-12
vn -0.00073610351 -0.00067686912 2.5499091e-13
vn -0.00081190933 -0.00058378372 -4.3959172e-13
vn -0.00090046076 -0.00043493739 -1.428566e-12
vn -0.00097388815 -0.00022702868 -2.6227282e-12
vn -0.00099998561 5.3751096e-06 -3.7490375e-12
vn -0.00096625701 0.00025758025 -4.7401579e-12
vn -0.00086283952 0.00050547818 -5.4525945e-12
vn -0.00070529344 0.00070891553 -5.7665144e-12
vn -0.00049900351 0.00086660008 -5.6962551e-12
vn -0.00025037164 0.00096814986 -5.219694e-12
vn -4.7594895e-06 0.00099998876 -4.4457003e-12
vn 0.00023920069 0.0009709702 -3.4083834e-12
vn 0.00049743324 0.0008675023 -1.9882344e-12
vn 0.00070745562 0.00070675788 -4.9406074e-13
vn 0.00083743193 0.00054654176 6.9957907e-13
vn 0.00092006242 0.00039177193 1.6927253e-12
vn 0.00098752137 0.00015748545 2.9814547e-12
vn 0.001 8.2478292e-21 3.72529e-12
vn -0.00017549278 0.00098448084 -5.0130616e-12
vn -0.00014471714 0.00098947319 -4.9205202e-12
vn -0.00010024097 0.00099496322 -4.7791437e-12
vn -6.7670364e-05 0.00099770783 -4.6699615e-12
vn -1.2901392e-05 0.00099991681 -4.4757128e-12
vn 6.9861948e-05 0.00099755672 -4.1569452e-12
vn 0.00019978998 0.00097983878 -3.59447e-12
vn 0.00041909929 0.0009079405 -2.4591123e-12
vn 0.00068161119 0.00073171459 -7.0084737e-13
vn 0.00086316699 0.00050491869 9.7975729e-13
vn 0.00094675034 0.00032196884 2.101235e-12
vn 0.00098646851 0.00016395158 2.9489002e-12
vn 0.0009999458 1.0424148e-05 3.6789296e-12
vn 0.00099306949 -0.00011752949 4.2198944e-12
vn 0.000974736 -0.00022336024 4.6202178e-12
vn 0.00093129539 -0.00036426514 5.0823182e-12
vn 0.00080373406 -0.00059498887 5.6287648e-12
vn 0.00056511414 -0.00082501286 5.7583873e-12
vn 0.00037059447 -0.00092879485 5.4932938e-12
vn 0.00025667733 -0.00096649723 5.2358664e-12
vn 0.00015597946 -0.00098776037 4.9548911e-12
vn 0.00010146015 -0.00099483971 4.7831383e-12
vn 7.7859462e-05 -0.0009969644 4.7046277e-12
vn 6.0971139e-05 -0.00099813961 4.646917e-12
vn 5.1140476e-05 -0.00099869154 4.612739e-12

# Mesh 'mesh_id89' with 224 faces
g mesh_id89
usemtl 82
f  1//1 2//1 3//1
f  2//1 4//1 5//1
f  4//1 6//1 7//1
f  6//1 8//1 9//1
f  8//1 10//1 11//1
f  10//1 12//1 13//1
f  12//1 14//1 15//1
f  14//1 16//1 17//1
f  16//1 18//1 19//1
f  18//1 20//1 21//1
f  20//1 22//1 23//1
f  22//1 24//1 25//1
f  24//1 26//1 27//1
f  26//1 28//1 29//1
f  28//1 30//1 31//1
f  30//1 32//1 33//1
f  34//1 35//1 36//1
f  34//1 37//1 35//1
f  37//1 38//1 39//1
f  38//1 40//1 41//1
f  40//1 42//1 43//1
f  42//1 44//1 45//1
f  44//1 46//1 47//1
f  46//1 48//1 49//1
f  48//1 50//1 51//1
f  50//1 52//1 53//1
f  52//1 54//1 55//1
f  54//1 56//1 57//1
f  1//1 4//1 2//1
f  1//1 6//1 4//1
f  6//1 10//1 8//1
f  10//1 14//1 12//1
f  14//1 18//1 16//1
f  18//1 22//1 20//1
f  22//1 26//1 24//1
f  26//1 30//1 28//1
f  30//1 34//1 32//1
f  34//1 38//1 37//1
f  38//1 42//1 40//1
f  42//1 46//1 44//1
f  46//1 50//1 48//1
f  50//1 54//1 52//1
f  54//1 1//1 56//1
f  1//1 10//1 6//1
f  14//1 22//1 18//1
f  14//1 26//1 22//1
f  26//1 34//1 30//1
f  34//1 42//1 38//1
f  42//1 50//1 46//1
f  50//1 1//1 54//1
f  1//1 14//1 10//1
f  14//1 34//1 26//1
f  34//1 50//1 42//1
f  1//1 34//1 14//1
f  50//1 34//1 1//1
f  58//2 59//2 60//2
f  61//2 62//2 59//2
f  63//2 64//2 62//2
f  65//2 66//2 64//2
f  67//2 68//2 66//2
f  69//2 70//2 68//2
f  71//2 72//2 70//2
f  73//2 74//2 72//2
f  75//2 76//2 74//2
f  77//2 78//2 76//2
f  79//2 80//2 78//2
f  81//2 82//2 80//2
f  83//2 84//2 82//2
f  85//2 86//2 84//2
f  87//2 88//2 86//2
f  89//2 90//2 88//2
f  91//2 92//2 93//2
f  92//2 94//2 93//2
f  95//2 96//2 94//2
f  97//2 98//2 96//2
f  99//2 100//2 98//2
f  101//2 102//2 100//2
f  103//2 104//2 102//2
f  105//2 106//2 104//2
f  107//2 108//2 106//2
f  109//2 110//2 108//2
f  111//2 112//2 110//2
f  113//2 114//2 112//2
f  59//2 62//2 60//2
f  62//2 64//2 60//2
f  66//2 68//2 64//2
f  70//2 72//2 68//2
f  74//2 76//2 72//2
f  78//2 80//2 76//2
f  82//2 84//2 80//2
f  86//2 88//2 84//2
f  90//2 93//2 88//2
f  94//2 96//2 93//2
f  98//2 100//2 96//2
f  102//2 104//2 100//2
f  106//2 108//2 104//2
f  110//2 112//2 108//2
f  114//2 60//2 112//2
f  64//2 68//2 60//2
f  76//2 80//2 72//2
f  80//2 84//2 72//2
f  88//2 93//2 84//2
f  96//2 100//2 93//2
f  104//2 108//2 100//2
f  112//2 60//2 108//2
f  68//2 72//2 60//2
f  84//2 93//2 72//2
f  100//2 108//2 93//2
f  72//2 93//2 60//2
f  60//2 93//2 108//2
f  3//3 59//4 58//3
f  3//3 2//4 59//4
f  2//4 61//5 59//4
f  2//4 5//5 61//5
f  5//5 62//6 61//5
f  5//5 4//6 62//6
f  4//6 63//7 62//6
f  4//6 7//7 63//7
f  7//7 64//8 63//7
f  7//7 6//8 64//8
f  6//8 65//9 64//8
f  6//8 9//9 65//9
f  9//9 66//10 65//9
f  9//9 8//10 66//10
f  8//10 67//11 66//10
f  8//10 11//11 67//11
f  11//11 68//12 67//11
f  11//11 10//12 68//12
f  10//12 69//13 68//12
f  10//12 13//13 69//13
f  13//13 70//14 69//13
f  13//13 12//14 70//14
f  12//14 71//15 70//14
f  12//14 15//15 71//15
f  15//15 72//16 71//15
f  15//15 14//16 72//16
f  14//16 73//17 72//16
f  14//16 17//17 73//17
f  17//17 74//18 73//17
f  17//17 16//18 74//18
f  16//18 75//19 74//18
f  16//18 19//19 75//19
f  19//19 76//20 75//19
f  19//19 18//20 76//20
f  18//20 77//21 76//20
f  18//20 21//21 77//21
f  21//21 78//22 77//21
f  21//21 20//22 78//22
f  20//22 79//23 78//22
f  20//22 23//23 79//23
f  23//23 80//24 79//23
f  23//23 22//24 80//24
f  22//24 81//25 80//24
f  22//24 25//25 81//25
f  25//25 82//26 81//25
f  25//25 24//26 82//26
f  24//26 83//27 82//26
f  24//26 27//27 83//27
f  27//27 84//28 83//27
f  27//27 26//28 84//28
f  26//28 85//29 84//28
f  26//28 29//29 85//29
f  29//29 86//30 85//29
f  29//29 28//30 86//30
f  28//30 87//31 86//30
f  28//30 31//31 87//31
f  31//31 88//32 87//31
f  31//31 30//32 88//32
f  30//32 89//33 88//32
f  30//32 33//33 89//33
f  33//33 90//34 89//33
f  33//33 32//34 90//34
f  32//34 93//35 90//34
f  32//34 34//35 93//35
f  34//36 91//37 93//36
f  34//36 36//37 91//37
f  36//37 92//38 91//37
f  36//37 35//38 92//38
f  35//38 94//39 92//38
f  35//38 37//39 94//39
f  37//39 95//40 94//39
f  37//39 39//40 95//40
f  39//40 96//41 95//40
f  39//40 38//41 96//41
f  38//41 97//42 96//41
f  38//41 41//42 97//42
f  41//42 98//43 97//42
f  41//42 40//43 98//43
f  40//43 99//44 98//43
f  40//43 43//44 99//44
f  43//44 100//45 99//44
f  43//44 42//45 100//45
f  42//45 101//46 100//45
f  42//45 45//46 101//46
f  45//46 102//47 101//46
f  45//46 44//47 102//47
f  44//47 103//48 102//47
f  44//47 47//48 103//48
f  47//48 104//49 103//48
f  47//48 46//49 104//49
f  46//49 105//50 104//49
f  46//49 49//50 105//50
f  49//50 106//51 105//50
f  49//50 48//51 106//51
f  48//51 107//52 106//51
f  48//51 51//52 107//52
f  51//52 108//53 107//52
f  51//52 50//53 108//53
f  50//53 109//54 108//53
f  50//53 53//54 109//54
f  53//54 110//55 109//54
f  53//54 52//55 110//55
f  52//55 111//56 110//55
f  52//55 55//56 111//56
f  55//56 112//57 111//56
f  55//56 54//57 112//57
f  54//57 113//58 112//57
f  54//57 57//58 113//58
f  57//58 114//59 113//58
f  57//58 56//59 114//59
f  56//59 60//60 114//59
f  56//59 1//60 60//60
f  1//35 58//3 60//35
f  1//35 3//3 58//3

