# File produced by Open Asset Import Library (http://www.assimp.sf.net)
# (assimp v5.0.1588609223)

mtllib result.mtl

# 140 vertex positions
v  0.010852927 0.019986551 0.25351703
v  0.012943244 0.019955907 0.25351703
v  0.011720588 0.020072084 0.25351703
v  0.015031794 0.019026525 0.25351703
v  0.01404698 0.019607395 0.25351703
v  0.016333422 0.017290317 0.25351703
v  0.015819868 0.01824395 0.25351703
v  0.016572433 -0.0178895 0.25351703
v  0.016572433 0.016165618 0.25351703
v  0.016134636 -0.019180233 0.25351703
v  0.01646298 -0.018596465 0.25351703
v  0.014892856 -0.019967472 0.25351703
v  0.015587399 -0.0196408 0.25351703
v  0.013276691 -0.020187037 0.25351703
v  0.014122626 -0.020149551 0.25351703
v  0.011779552 -0.019910179 0.25351703
v  0.012504069 -0.020097425 0.25351703
v  0.010559497 -0.019227372 0.25351703
v  0.01110314 -0.019625299 0.25351703
v  0.010124592 -0.01804615 0.25351703
v  0.010233318 -0.018700989 0.25351703
v  0.010124592 0.015081305 0.25351703
v  0.0086491797 0.016533583 0.25351703
v  0.0092024561 0.015740268 0.25351703
v  0.008464748 0.017461248 0.25351703
v  0.0088830348 0.018755607 0.25351703
v  0.0085693169 0.018141918 0.25351703
v  0.010081364 0.01972995 0.25351703
v  0.0094058905 0.019302294 0.25351703
v  -0.0092189312 -0.0085949162 0.25351703
v  -0.018199092 -0.0085069817 0.25351703
v  -0.017262772 -0.0085949162 0.25351703
v  -0.019561011 -0.0078035053 0.25351703
v  -0.018965172 -0.008243178 0.25351703
v  -0.020241972 -0.0066663399 0.25351703
v  -0.019986611 -0.0072554117 0.25351703
v  -0.020239368 -0.0054253787 0.25351703
v  -0.020327091 -0.0060362946 0.25351703
v  -0.019537572 -0.0042650048 0.25351703
v  -0.019976195 -0.0048349472 0.25351703
v  -0.018118903 -0.0035187397 0.25351703
v  -0.018919731 -0.00379859 0.25351703
v  0.0048258696 -0.0034254566 0.25351703
v  -0.017135091 -0.0034254566 0.25351703
v  0.0066492986 -0.0037902482 0.25351703
v  0.0058316756 -0.0035166554 0.25351703
v  0.0077248197 -0.004804126 0.25351703
v  0.0072787199 -0.0042462396 0.25351703
v  0.00808171 -0.0059840772 0.25351703
v  0.0079924893 -0.005383404 0.25351703
v  0.0077390093 -0.0071984809 0.25351703
v  0.007996032 -0.0066047879 0.25351703
v  0.0067131314 -0.0082261367 0.25351703
v  0.0073106419 -0.007765159 0.25351703
v  0.0050173905 -0.0085949162 0.25351703
v  0.0059487205 -0.0085027209 0.25351703
v  -0.0029626098 -0.0085949162 0.25351703
v  -0.0030728951 -0.018062467 0.25351703
v  -0.0029626098 -0.017210681 0.25351703
v  -0.003403727 -0.018764129 0.25351703
v  -0.0046335347 -0.019712733 0.25351703
v  -0.0039551221 -0.019315669 0.25351703
v  -0.0060907714 -0.020030387 0.25351703
v  -0.0053454153 -0.019950973 0.25351703
v  -0.007585248 -0.019738117 0.25351703
v  -0.0068640579 -0.019957319 0.25351703
v  -0.0087902304 -0.018863486 0.25351703
v  -0.0082543492 -0.019372782 0.25351703
v  -0.0092189312 -0.017419549 0.25351703
v  -0.0091117546 -0.01821241 0.25351703
v  0.011720588 0.020072084 0.24649274
v  0.012943244 0.019955907 0.24649274
v  0.010852927 0.019986551 0.24649274
v  0.01404698 0.019607395 0.24649274
v  0.015031794 0.019026525 0.24649274
v  0.015819868 0.01824395 0.24649274
v  0.016333422 0.017290317 0.24649274
v  0.016572433 0.016165618 0.24649274
v  0.016572433 -0.0178895 0.24649274
v  0.01646298 -0.018596465 0.24649274
v  0.016134636 -0.019180233 0.24649274
v  0.015587399 -0.0196408 0.24649274
v  0.014892856 -0.019967472 0.24649274
v  0.014122626 -0.020149551 0.24649274
v  0.013276691 -0.020187037 0.24649274
v  0.012504069 -0.020097425 0.24649274
v  0.011779552 -0.019910179 0.24649274
v  0.01110314 -0.019625299 0.24649274
v  0.010559497 -0.019227372 0.24649274
v  0.010233318 -0.018700989 0.24649274
v  0.010124592 -0.01804615 0.24649274
v  0.0092024561 0.015740268 0.24649274
v  0.0086491797 0.016533583 0.24649274
v  0.010124592 0.015081305 0.24649274
v  0.008464748 0.017461248 0.24649274
v  0.0085693169 0.018141918 0.24649274
v  0.0088830348 0.018755607 0.24649274
v  0.0094058905 0.019302294 0.24649274
v  0.010081364 0.01972995 0.24649274
v  -0.017262772 -0.0085949162 0.24649274
v  -0.018199092 -0.0085069817 0.24649274
v  -0.0092189312 -0.0085949162 0.24649274
v  -0.018965172 -0.008243178 0.24649274
v  -0.019561011 -0.0078035053 0.24649274
v  -0.019986611 -0.0072554117 0.24649274
v  -0.020241972 -0.0066663399 0.24649274
v  -0.020327091 -0.0060362946 0.24649274
v  -0.020239368 -0.0054253787 0.24649274
v  -0.019976195 -0.0048349472 0.24649274
v  -0.019537572 -0.0042650048 0.24649274
v  -0.018919731 -0.00379859 0.24649274
v  -0.018118903 -0.0035187397 0.24649274
v  -0.017135091 -0.0034254566 0.24649274
v  0.0048258696 -0.0034254566 0.24649274
v  0.0058316756 -0.0035166554 0.24649274
v  0.0066492986 -0.0037902482 0.24649274
v  0.0072787199 -0.0042462396 0.24649274
v  0.0077248197 -0.004804126 0.24649274
v  0.0079924893 -0.005383404 0.24649274
v  0.00808171 -0.0059840772 0.24649274
v  0.007996032 -0.0066047879 0.24649274
v  0.0077390093 -0.0071984809 0.24649274
v  0.0073106419 -0.007765159 0.24649274
v  0.0067131314 -0.0082261367 0.24649274
v  0.0059487205 -0.0085027209 0.24649274
v  0.0050173905 -0.0085949162 0.24649274
v  -0.0029626098 -0.017210681 0.24649274
v  -0.0030728951 -0.018062467 0.24649274
v  -0.0029626098 -0.0085949162 0.24649274
v  -0.003403727 -0.018764129 0.24649274
v  -0.0039551221 -0.019315669 0.24649274
v  -0.0046335347 -0.019712733 0.24649274
v  -0.0053454153 -0.019950973 0.24649274
v  -0.0060907714 -0.020030387 0.24649274
v  -0.0068640579 -0.019957319 0.24649274
v  -0.007585248 -0.019738117 0.24649274
v  -0.0082543492 -0.019372782 0.24649274
v  -0.0087902304 -0.018863486 0.24649274
v  -0.0091117546 -0.01821241 0.24649274
v  -0.0092189312 -0.017419549 0.24649274

# 0 UV coordinates

# 73 vertex normals
vn 0 0 0.00046828578
vn 0 0 -0.00046828578
vn -2.1440974e-06 0.0008179298 0
vn 0.00023968007 0.00079409056 0
vn 0.00047642854 0.00071913638 0
vn 0.00068402878 0.00059664442 0
vn 0.00085149886 0.00042888787 0
vn 0.00095723651 0.00023663316 0
vn 0.00099630014 7.029585e-05 0
vn 0.00099801749 -5.1479463e-05 0
vn 0.00096144975 -0.00022491564 0
vn 0.00082468515 -0.00046261575 0
vn 0.00061372231 -0.00064577512 0
vn 0.00039089625 -0.00075285282 0
vn 0.00016695146 -0.00080645212 0
vn -4.335566e-05 -0.00081716257 0
vn -0.00022159853 -0.00079759624 0
vn -0.00038090526 -0.00075627113 0
vn -0.00056690816 -0.00067379657 0
vn -0.00079307478 -0.00049822213 0
vn -0.00095473084 -0.00024331101 0
vn -0.00099772355 -5.5160206e-05 0
vn -0.00091047725 -0.00033826329 0
vn -0.00077406387 -0.00051783881 0
vn -0.00094282045 -0.00027261756 0
vn -0.00099983625 -1.4804927e-05 0
vn -0.00096625712 0.00021068267 0
vn -0.00086283858 0.00041344785 0
vn -0.00070529251 0.00057984522 0
vn -0.00049900607 0.00070881832 0
vn -0.00025037234 0.00079188024 0
vn -5.7128254e-05 -0.00081659586 0
vn -0.00025360158 -0.00079119246 0
vn -0.00053646707 -0.00069026998 0
vn -0.00076399033 -0.00052775227 0
vn -0.00089900871 -0.00035819746 0
vn -0.00097470521 -0.00018280324 0
vn -0.00099999423 2.8044756e-06 0
vn -0.00097291853 0.00018906381 0
vn -0.00089795061 0.00035996875 0
vn -0.00076893216 0.0005229286 0
vn -0.00054346403 0.00068659848 0
vn -0.00025668149 0.00079052779 0
vn -5.7672751e-05 0.0008165703 0
vn 5.5174663e-05 0.00081668573 0
vn 0.00024679161 0.00079263188 0
vn 0.00052830332 0.00069446961 0
vn 0.00075668673 0.00053474552 0
vn 0.000891442 0.00037063338 0
vn 0.00097106991 0.00019531841 0
vn 0.00099999108 3.4660859e-06 0
vn 0.00097448664 -0.00018358132 0
vn 0.00090172898 -0.00035359352 0
vn 0.00077493477 -0.00051696657 0
vn 0.0005533158 -0.0006813138 0
vn 0.00026525211 -0.00078863261 0
vn 6.0185186e-05 -0.00081644894 0
vn 0 -0.00081793166 0
vn 0.001 0 0
vn 0.00099860888 -4.3129268e-05 0
vn 0.00097209547 -0.00019187509 0
vn 0.00086443848 -0.00041120593 0
vn 0.00068399188 -0.0005966727 0
vn 0.00048357621 -0.00071593747 0
vn 0.00025606842 -0.00079066079 0
vn 7.259026e-06 -0.00081791013 0
vn -0.00023323187 -0.00079537404 0
vn -0.00045484694 -0.0007284251 0
vn -0.0006626778 -0.00061255286 0
vn -0.00085395423 -0.00042560927 0
vn -0.00096965005 -0.00019998202 0
vn -0.00099848467 -4.5011573e-05 0
vn -0.001 -0 -0

# Mesh 'mesh_id203' with 272 faces
g mesh_id203
usemtl 168
f  1//1 2//1 3//1
f  2//1 4//1 5//1
f  4//1 6//1 7//1
f  6//1 8//1 9//1
f  8//1 10//1 11//1
f  10//1 12//1 13//1
f  12//1 14//1 15//1
f  14//1 16//1 17//1
f  16//1 18//1 19//1
f  18//1 20//1 21//1
f  22//1 23//1 24//1
f  22//1 25//1 23//1
f  25//1 26//1 27//1
f  26//1 28//1 29//1
f  28//1 2//1 1//1
f  2//1 6//1 4//1
f  6//1 10//1 8//1
f  10//1 14//1 12//1
f  14//1 18//1 16//1
f  18//1 22//1 20//1
f  22//1 26//1 25//1
f  26//1 2//1 28//1
f  2//1 10//1 6//1
f  10//1 18//1 14//1
f  22//1 2//1 26//1
f  22//1 10//1 2//1
f  22//1 18//1 10//1
f  30//1 31//1 32//1
f  31//1 33//1 34//1
f  33//1 35//1 36//1
f  35//1 37//1 38//1
f  37//1 39//1 40//1
f  39//1 41//1 42//1
f  41//1 43//1 44//1
f  43//1 45//1 46//1
f  45//1 47//1 48//1
f  47//1 49//1 50//1
f  49//1 51//1 52//1
f  51//1 53//1 54//1
f  53//1 55//1 56//1
f  57//1 58//1 59//1
f  57//1 60//1 58//1
f  60//1 61//1 62//1
f  61//1 63//1 64//1
f  63//1 65//1 66//1
f  65//1 67//1 68//1
f  67//1 69//1 70//1
f  30//1 33//1 31//1
f  30//1 35//1 33//1
f  35//1 39//1 37//1
f  39//1 43//1 41//1
f  43//1 47//1 45//1
f  47//1 51//1 49//1
f  51//1 55//1 53//1
f  57//1 61//1 60//1
f  57//1 63//1 61//1
f  63//1 67//1 65//1
f  67//1 30//1 69//1
f  30//1 39//1 35//1
f  39//1 47//1 43//1
f  47//1 55//1 51//1
f  57//1 67//1 63//1
f  57//1 30//1 67//1
f  30//1 47//1 39//1
f  47//1 57//1 55//1
f  47//1 30//1 57//1
f  71//2 72//2 73//2
f  74//2 75//2 72//2
f  76//2 77//2 75//2
f  78//2 79//2 77//2
f  80//2 81//2 79//2
f  82//2 83//2 81//2
f  84//2 85//2 83//2
f  86//2 87//2 85//2
f  88//2 89//2 87//2
f  90//2 91//2 89//2
f  92//2 93//2 94//2
f  93//2 95//2 94//2
f  96//2 97//2 95//2
f  98//2 99//2 97//2
f  73//2 72//2 99//2
f  75//2 77//2 72//2
f  79//2 81//2 77//2
f  83//2 85//2 81//2
f  87//2 89//2 85//2
f  91//2 94//2 89//2
f  95//2 97//2 94//2
f  99//2 72//2 97//2
f  77//2 81//2 72//2
f  85//2 89//2 81//2
f  97//2 72//2 94//2
f  72//2 81//2 94//2
f  81//2 89//2 94//2
f  100//2 101//2 102//2
f  103//2 104//2 101//2
f  105//2 106//2 104//2
f  107//2 108//2 106//2
f  109//2 110//2 108//2
f  111//2 112//2 110//2
f  113//2 114//2 112//2
f  115//2 116//2 114//2
f  117//2 118//2 116//2
f  119//2 120//2 118//2
f  121//2 122//2 120//2
f  123//2 124//2 122//2
f  125//2 126//2 124//2
f  127//2 128//2 129//2
f  128//2 130//2 129//2
f  131//2 132//2 130//2
f  133//2 134//2 132//2
f  135//2 136//2 134//2
f  137//2 138//2 136//2
f  139//2 140//2 138//2
f  101//2 104//2 102//2
f  104//2 106//2 102//2
f  108//2 110//2 106//2
f  112//2 114//2 110//2
f  116//2 118//2 114//2
f  120//2 122//2 118//2
f  124//2 126//2 122//2
f  130//2 132//2 129//2
f  132//2 134//2 129//2
f  136//2 138//2 134//2
f  140//2 102//2 138//2
f  106//2 110//2 102//2
f  114//2 118//2 110//2
f  122//2 126//2 118//2
f  134//2 138//2 129//2
f  138//2 102//2 129//2
f  110//2 118//2 102//2
f  126//2 129//2 118//2
f  129//2 102//2 118//2
f  3//3 72//4 71//3
f  3//3 2//4 72//4
f  2//4 74//5 72//4
f  2//4 5//5 74//5
f  5//5 75//6 74//5
f  5//5 4//6 75//6
f  4//6 76//7 75//6
f  4//6 7//7 76//7
f  7//7 77//8 76//7
f  7//7 6//8 77//8
f  6//8 78//9 77//8
f  6//8 9//9 78//9
f  9//9 79//10 78//9
f  9//9 8//10 79//10
f  8//10 80//11 79//10
f  8//10 11//11 80//11
f  11//11 81//12 80//11
f  11//11 10//12 81//12
f  10//12 82//13 81//12
f  10//12 13//13 82//13
f  13//13 83//14 82//13
f  13//13 12//14 83//14
f  12//14 84//15 83//14
f  12//14 15//15 84//15
f  15//15 85//16 84//15
f  15//15 14//16 85//16
f  14//16 86//17 85//16
f  14//16 17//17 86//17
f  17//17 87//18 86//17
f  17//17 16//18 87//18
f  16//18 88//19 87//18
f  16//18 19//19 88//19
f  19//19 89//20 88//19
f  19//19 18//20 89//20
f  18//20 90//21 89//20
f  18//20 21//21 90//21
f  21//21 91//22 90//21
f  21//21 20//22 91//22
f  20//22 94//23 91//22
f  20//22 22//23 94//23
f  22//23 92//24 94//23
f  22//23 24//24 92//24
f  24//24 93//25 92//24
f  24//24 23//25 93//25
f  23//25 95//26 93//25
f  23//25 25//26 95//26
f  25//26 96//27 95//26
f  25//26 27//27 96//27
f  27//27 97//28 96//27
f  27//27 26//28 97//28
f  26//28 98//29 97//28
f  26//28 29//29 98//29
f  29//29 99//30 98//29
f  29//29 28//30 99//30
f  28//30 73//31 99//30
f  28//30 1//31 73//31
f  1//31 71//3 73//31
f  1//31 3//3 71//3
f  32//32 101//33 100//32
f  32//32 31//33 101//33
f  31//33 103//34 101//33
f  31//33 34//34 103//34
f  34//34 104//35 103//34
f  34//34 33//35 104//35
f  33//35 105//36 104//35
f  33//35 36//36 105//36
f  36//36 106//37 105//36
f  36//36 35//37 106//37
f  35//37 107//38 106//37
f  35//37 38//38 107//38
f  38//38 108//39 107//38
f  38//38 37//39 108//39
f  37//39 109//40 108//39
f  37//39 40//40 109//40
f  40//40 110//41 109//40
f  40//40 39//41 110//41
f  39//41 111//42 110//41
f  39//41 42//42 111//42
f  42//42 112//43 111//42
f  42//42 41//43 112//43
f  41//43 113//44 112//43
f  41//43 44//44 113//44
f  44//44 114//45 113//44
f  44//44 43//45 114//45
f  43//45 115//46 114//45
f  43//45 46//46 115//46
f  46//46 116//47 115//46
f  46//46 45//47 116//47
f  45//47 117//48 116//47
f  45//47 48//48 117//48
f  48//48 118//49 117//48
f  48//48 47//49 118//49
f  47//49 119//50 118//49
f  47//49 50//50 119//50
f  50//50 120//51 119//50
f  50//50 49//51 120//51
f  49//51 121//52 120//51
f  49//51 52//52 121//52
f  52//52 122//53 121//52
f  52//52 51//53 122//53
f  51//53 123//54 122//53
f  51//53 54//54 123//54
f  54//54 124//55 123//54
f  54//54 53//55 124//55
f  53//55 125//56 124//55
f  53//55 56//56 125//56
f  56//56 126//57 125//56
f  56//56 55//57 126//57
f  55//57 129//58 126//57
f  55//57 57//58 129//58
f  57//59 127//60 129//59
f  57//59 59//60 127//60
f  59//60 128//61 127//60
f  59//60 58//61 128//61
f  58//61 130//62 128//61
f  58//61 60//62 130//62
f  60//62 131//63 130//62
f  60//62 62//63 131//63
f  62//63 132//64 131//63
f  62//63 61//64 132//64
f  61//64 133//65 132//64
f  61//64 64//65 133//65
f  64//65 134//66 133//65
f  64//65 63//66 134//66
f  63//66 135//67 134//66
f  63//66 66//67 135//67
f  66//67 136//68 135//67
f  66//67 65//68 136//68
f  65//68 137//69 136//68
f  65//68 68//69 137//69
f  68//69 138//70 137//69
f  68//69 67//70 138//70
f  67//70 139//71 138//70
f  67//70 70//71 139//71
f  70//71 140//72 139//71
f  70//71 69//72 140//72
f  69//72 102//73 140//72
f  69//72 30//73 102//73
f  30//58 100//32 102//58
f  30//58 32//32 100//32

