# File produced by Open Asset Import Library (http://www.assimp.sf.net)
# (assimp v5.0.1588609223)

mtllib result.mtl

# 112 vertex positions
v  0.010107711 0.0028922353 0.25304499
v  0.0099845156 -0.011973732 0.25304499
v  0.010107711 -0.011088726 0.25304499
v  0.0089989863 -0.013108663 0.25304499
v  0.0096149445 -0.012647043 0.25304499
v  0.0075235739 -0.013583031 0.25304499
v  0.0082605593 -0.013405143 0.25304499
v  0.0059726797 -0.013578321 0.25304499
v  0.0067880265 -0.013642326 0.25304499
v  0.004497271 -0.013066269 0.25304499
v  0.0052090976 -0.013386301 0.25304499
v  0.0035826731 -0.011817844 0.25304499
v  0.003925642 -0.012562145 0.25304499
v  0.0034683477 0.0028922353 0.25304499
v  0.0034683477 -0.010833366 0.25304499
v  -0.0026602913 0.0028922353 0.25304499
v  -0.0027834848 -0.011973732 0.25304499
v  -0.0026602913 -0.011088726 0.25304499
v  -0.0031530578 -0.012647043 0.25304499
v  -0.0045074448 -0.013405143 0.25304499
v  -0.0037690122 -0.013108663 0.25304499
v  -0.005979972 -0.013642326 0.25304499
v  -0.0052444264 -0.013583031 0.25304499
v  -0.0075589027 -0.013386301 0.25304499
v  -0.0067953188 -0.013578321 0.25304499
v  -0.0088423565 -0.012562145 0.25304499
v  -0.0082707312 -0.013066269 0.25304499
v  -0.0092996527 -0.010833366 0.25304499
v  -0.0091853272 -0.011817844 0.25304499
v  -0.0092996527 0.0028922353 0.25304499
v  -0.015525051 0.002996305 0.25304499
v  -0.014662213 0.0028922353 0.25304499
v  -0.016238263 0.0033085234 0.25304499
v  -0.017209165 0.004481582 0.25304499
v  -0.016801849 0.0038288869 0.25304499
v  -0.017535012 0.0059565548 0.25304499
v  -0.017453551 0.0051908065 0.25304499
v  -0.017207168 0.0074758604 0.25304499
v  -0.017453052 0.0067626424 0.25304499
v  -0.016218092 0.0085744336 0.25304499
v  -0.01679736 0.008096192 0.25304499
v  -0.014534533 0.0089570358 0.25304499
v  -0.015463815 0.0088613853 0.25304499
v  0.016266875 0.0088607185 0.25304499
v  0.015342589 0.0089570358 0.25304499
v  0.017600432 0.0080902055 0.25304499
v  0.017019495 0.0085717775 0.25304499
v  0.018260553 0.0067566596 0.25304499
v  0.018013004 0.0074678771 0.25304499
v  0.018261053 0.0051972847 0.25304499
v  0.018343069 0.0059565548 0.25304499
v  0.017604917 0.0038353726 0.25304499
v  0.018015001 0.0044902302 0.25304499
v  0.016328119 0.0029970277 0.25304499
v  0.017039664 0.003311405 0.25304499
v  0.01547027 0.0028922353 0.25304499
v  0.010107711 -0.011088726 0.24696477
v  0.0099845156 -0.011973732 0.24696477
v  0.010107711 0.0028922353 0.24696477
v  0.0096149445 -0.012647043 0.24696477
v  0.0089989863 -0.013108663 0.24696477
v  0.0082605593 -0.013405143 0.24696477
v  0.0075235739 -0.013583031 0.24696477
v  0.0067880265 -0.013642326 0.24696477
v  0.0059726797 -0.013578321 0.24696477
v  0.0052090976 -0.013386301 0.24696477
v  0.004497271 -0.013066269 0.24696477
v  0.003925642 -0.012562145 0.24696477
v  0.0035826731 -0.011817844 0.24696477
v  0.0034683477 -0.010833366 0.24696477
v  0.0034683477 0.0028922353 0.24696477
v  -0.0026602913 -0.011088726 0.24696477
v  -0.0027834848 -0.011973732 0.24696477
v  -0.0026602913 0.0028922353 0.24696477
v  -0.0031530578 -0.012647043 0.24696477
v  -0.0037690122 -0.013108663 0.24696477
v  -0.0045074448 -0.013405143 0.24696477
v  -0.0052444264 -0.013583031 0.24696477
v  -0.005979972 -0.013642326 0.24696477
v  -0.0067953188 -0.013578321 0.24696477
v  -0.0075589027 -0.013386301 0.24696477
v  -0.0082707312 -0.013066269 0.24696477
v  -0.0088423565 -0.012562145 0.24696477
v  -0.0091853272 -0.011817844 0.24696477
v  -0.0092996527 -0.010833366 0.24696477
v  -0.014662213 0.0028922353 0.24696477
v  -0.015525051 0.002996305 0.24696477
v  -0.0092996527 0.0028922353 0.24696477
v  -0.016238263 0.0033085234 0.24696477
v  -0.016801849 0.0038288869 0.24696477
v  -0.017209165 0.004481582 0.24696477
v  -0.017453551 0.0051908065 0.24696477
v  -0.017535012 0.0059565548 0.24696477
v  -0.017453052 0.0067626424 0.24696477
v  -0.017207168 0.0074758604 0.24696477
v  -0.01679736 0.008096192 0.24696477
v  -0.016218092 0.0085744336 0.24696477
v  -0.015463815 0.0088613853 0.24696477
v  -0.014534533 0.0089570358 0.24696477
v  0.015342589 0.0089570358 0.24696477
v  0.016266875 0.0088607185 0.24696477
v  0.017019495 0.0085717775 0.24696477
v  0.017600432 0.0080902055 0.24696477
v  0.018013004 0.0074678771 0.24696477
v  0.018260553 0.0067566596 0.24696477
v  0.018343069 0.0059565548 0.24696477
v  0.018261053 0.0051972847 0.24696477
v  0.018015001 0.0044902302 0.24696477
v  0.017604917 0.0038353726 0.24696477
v  0.017039664 0.003311405 0.24696477
v  0.016328119 0.0029970277 0.24696477
v  0.01547027 0.0028922353 0.24696477

# 0 UV coordinates

# 55 vertex normals
vn 1.5100401e-12 1.9225452e-12 0.00040534837
vn -1.5100401e-12 -1.9225452e-12 -0.00040534837
vn 0.00099760969 -6.9102076e-05 -3.3886379e-12
vn 0.00094918784 -0.00031471017 -2.0433468e-12
vn 0.00075521023 -0.0006554827 2.9554137e-13
vn 0.00049033179 -0.00087153591 2.3070194e-12
vn 0.00030441134 -0.00095254072 3.3838284e-12
vn 0.00015797636 -0.00098744291 4.0948807e-12
vn 1.0499349e-06 -0.00099999947 4.7390316e-12
vn -0.00016163981 -0.00098684989 5.28273e-12
vn -0.00032823923 -0.00094459474 5.7029472e-12
vn -0.00054183783 -0.00084048312 6.0048685e-12
vn -0.00080213754 -0.00059713947 5.8203945e-12
vn -0.00096277701 -0.0002702972 4.8686281e-12
vn -0.00099832984 -5.7772504e-05 3.9930797e-12
vn -0.001 -5.0433626e-21 3.72529e-12
vn 2.271221e-20 -0.001 4.7429456e-12
vn 0.001 5.0433626e-21 -3.72529e-12
vn 0.00099760969 -6.9101014e-05 -3.3886429e-12
vn 0.00094918819 -0.00031470918 -2.0433529e-12
vn 0.00049033138 -0.00087153621 2.3070218e-12
vn 0.00030441122 -0.00095254078 3.3838292e-12
vn 0.00015797676 -0.00098744291 4.0948785e-12
vn 1.0500396e-06 -0.00099999947 4.7390312e-12
vn -0.0001616395 -0.00098685001 5.2827295e-12
vn -0.00032823847 -0.00094459497 5.7029459e-12
vn -0.00054183882 -0.00084048259 6.0048693e-12
vn -0.00080213783 -0.00059713895 5.8203936e-12
vn -0.00096277671 -0.00027029819 4.868632e-12
vn -5.9980171e-05 -0.00099819968 4.9578501e-12
vn -0.00026319534 -0.00096474262 5.5562005e-12
vn -0.00054726092 -0.00083696214 6.0083713e-12
vn -0.00077023625 -0.00063775876 5.8942079e-12
vn -0.00090266333 -0.0004303476 5.4037981e-12
vn -0.00097613432 -0.00021716779 4.6663983e-12
vn -0.00099999737 -2.3278449e-06 3.7363207e-12
vn -0.00097662059 0.00021497057 2.6186011e-12
vn -0.00089698262 0.00044206608 1.2448248e-12
vn -0.00074368867 0.00066852616 -4.0032712e-13
vn -0.00050280342 0.00086440082 -2.2267175e-12
vn -0.00023094231 0.00097296748 -3.7544048e-12
vn -5.1261239e-05 0.00099868537 -4.545747e-12
vn 5.189293e-05 0.00099865277 -4.9298716e-12
vn 0.0002330334 0.00097246876 -5.4804833e-12
vn 0.00050497631 0.00086313329 -5.974977e-12
vn 0.00074381626 0.00066838431 -5.9410411e-12
vn 0.00089596969 0.0004441154 -5.4441616e-12
vn 0.00097614573 0.00021711647 -4.6661971e-12
vn 0.00099999714 -2.41723e-06 -3.7138144e-12
vn 0.00097562507 -0.00021944428 -2.593674e-12
vn 0.00090166973 -0.00043242559 -1.3080101e-12
vn 0.00077036704 -0.00063760072 1.5426484e-13
vn 0.00054950587 -0.00083548989 1.9156144e-12
vn 0.00026556876 -0.00096409197 3.5833151e-12
vn 6.073961e-05 -0.0009981537 4.5079162e-12

# Mesh 'mesh_id212' with 220 faces
g mesh_id212
usemtl 175
f  1//1 2//1 3//1
f  2//1 4//1 5//1
f  4//1 6//1 7//1
f  6//1 8//1 9//1
f  8//1 10//1 11//1
f  10//1 12//1 13//1
f  12//1 14//1 15//1
f  16//1 17//1 18//1
f  16//1 19//1 17//1
f  19//1 20//1 21//1
f  20//1 22//1 23//1
f  22//1 24//1 25//1
f  24//1 26//1 27//1
f  26//1 28//1 29//1
f  30//1 31//1 32//1
f  30//1 33//1 31//1
f  33//1 34//1 35//1
f  34//1 36//1 37//1
f  36//1 38//1 39//1
f  38//1 40//1 41//1
f  40//1 42//1 43//1
f  42//1 44//1 45//1
f  44//1 46//1 47//1
f  46//1 48//1 49//1
f  48//1 50//1 51//1
f  50//1 52//1 53//1
f  52//1 54//1 55//1
f  54//1 1//1 56//1
f  1//1 4//1 2//1
f  4//1 8//1 6//1
f  8//1 12//1 10//1
f  16//1 20//1 19//1
f  16//1 22//1 20//1
f  16//1 24//1 22//1
f  24//1 28//1 26//1
f  30//1 34//1 33//1
f  30//1 36//1 34//1
f  36//1 40//1 38//1
f  40//1 44//1 42//1
f  44//1 48//1 46//1
f  48//1 52//1 50//1
f  52//1 1//1 54//1
f  1//1 8//1 4//1
f  8//1 14//1 12//1
f  16//1 28//1 24//1
f  16//1 30//1 28//1
f  30//1 40//1 36//1
f  40//1 48//1 44//1
f  48//1 1//1 52//1
f  1//1 14//1 8//1
f  14//1 30//1 16//1
f  30//1 48//1 40//1
f  48//1 14//1 1//1
f  48//1 30//1 14//1
f  57//2 58//2 59//2
f  60//2 61//2 58//2
f  62//2 63//2 61//2
f  64//2 65//2 63//2
f  66//2 67//2 65//2
f  68//2 69//2 67//2
f  70//2 71//2 69//2
f  72//2 73//2 74//2
f  73//2 75//2 74//2
f  76//2 77//2 75//2
f  78//2 79//2 77//2
f  80//2 81//2 79//2
f  82//2 83//2 81//2
f  84//2 85//2 83//2
f  86//2 87//2 88//2
f  87//2 89//2 88//2
f  90//2 91//2 89//2
f  92//2 93//2 91//2
f  94//2 95//2 93//2
f  96//2 97//2 95//2
f  98//2 99//2 97//2
f  100//2 101//2 99//2
f  102//2 103//2 101//2
f  104//2 105//2 103//2
f  106//2 107//2 105//2
f  108//2 109//2 107//2
f  110//2 111//2 109//2
f  112//2 59//2 111//2
f  58//2 61//2 59//2
f  63//2 65//2 61//2
f  67//2 69//2 65//2
f  75//2 77//2 74//2
f  77//2 79//2 74//2
f  79//2 81//2 74//2
f  83//2 85//2 81//2
f  89//2 91//2 88//2
f  91//2 93//2 88//2
f  95//2 97//2 93//2
f  99//2 101//2 97//2
f  103//2 105//2 101//2
f  107//2 109//2 105//2
f  111//2 59//2 109//2
f  61//2 65//2 59//2
f  69//2 71//2 65//2
f  81//2 85//2 74//2
f  85//2 88//2 74//2
f  93//2 97//2 88//2
f  101//2 105//2 97//2
f  109//2 59//2 105//2
f  65//2 71//2 59//2
f  74//2 88//2 71//2
f  97//2 105//2 88//2
f  59//2 71//2 105//2
f  71//2 88//2 105//2
f  3//3 58//4 57//3
f  3//3 2//4 58//4
f  2//4 60//5 58//4
f  2//4 5//5 60//5
f  5//5 61//6 60//5
f  5//5 4//6 61//6
f  4//6 62//7 61//6
f  4//6 7//7 62//7
f  7//7 63//8 62//7
f  7//7 6//8 63//8
f  6//8 64//9 63//8
f  6//8 9//9 64//9
f  9//9 65//10 64//9
f  9//9 8//10 65//10
f  8//10 66//11 65//10
f  8//10 11//11 66//11
f  11//11 67//12 66//11
f  11//11 10//12 67//12
f  10//12 68//13 67//12
f  10//12 13//13 68//13
f  13//13 69//14 68//13
f  13//13 12//14 69//14
f  12//14 70//15 69//14
f  12//14 15//15 70//15
f  15//15 71//16 70//15
f  15//15 14//16 71//16
f  14//17 74//17 71//17
f  14//17 16//17 74//17
f  16//18 72//19 74//18
f  16//18 18//19 72//19
f  18//19 73//20 72//19
f  18//19 17//20 73//20
f  17//20 75//5 73//20
f  17//20 19//5 75//5
f  19//5 76//21 75//5
f  19//5 21//21 76//21
f  21//21 77//22 76//21
f  21//21 20//22 77//22
f  20//22 78//23 77//22
f  20//22 23//23 78//23
f  23//23 79//24 78//23
f  23//23 22//24 79//24
f  22//24 80//25 79//24
f  22//24 25//25 80//25
f  25//25 81//26 80//25
f  25//25 24//26 81//26
f  24//26 82//27 81//26
f  24//26 27//27 82//27
f  27//27 83//28 82//27
f  27//27 26//28 83//28
f  26//28 84//29 83//28
f  26//28 29//29 84//29
f  29//29 85//15 84//29
f  29//29 28//15 85//15
f  28//15 88//16 85//15
f  28//15 30//16 88//16
f  30//17 86//30 88//17
f  30//17 32//30 86//30
f  32//30 87//31 86//30
f  32//30 31//31 87//31
f  31//31 89//32 87//31
f  31//31 33//32 89//32
f  33//32 90//33 89//32
f  33//32 35//33 90//33
f  35//33 91//34 90//33
f  35//33 34//34 91//34
f  34//34 92//35 91//34
f  34//34 37//35 92//35
f  37//35 93//36 92//35
f  37//35 36//36 93//36
f  36//36 94//37 93//36
f  36//36 39//37 94//37
f  39//37 95//38 94//37
f  39//37 38//38 95//38
f  38//38 96//39 95//38
f  38//38 41//39 96//39
f  41//39 97//40 96//39
f  41//39 40//40 97//40
f  40//40 98//41 97//40
f  40//40 43//41 98//41
f  43//41 99//42 98//41
f  43//41 42//42 99//42
f  42//42 100//43 99//42
f  42//42 45//43 100//43
f  45//43 101//44 100//43
f  45//43 44//44 101//44
f  44//44 102//45 101//44
f  44//44 47//45 102//45
f  47//45 103//46 102//45
f  47//45 46//46 103//46
f  46//46 104//47 103//46
f  46//46 49//47 104//47
f  49//47 105//48 104//47
f  49//47 48//48 105//48
f  48//48 106//49 105//48
f  48//48 51//49 106//49
f  51//49 107//50 106//49
f  51//49 50//50 107//50
f  50//50 108//51 107//50
f  50//50 53//51 108//51
f  53//51 109//52 108//51
f  53//51 52//52 109//52
f  52//52 110//53 109//52
f  52//52 55//53 110//53
f  55//53 111//54 110//53
f  55//53 54//54 111//54
f  54//54 112//55 111//54
f  54//54 56//55 112//55
f  56//55 59//17 112//55
f  56//55 1//17 59//17
f  1//18 57//3 59//18
f  1//18 3//3 57//3

