# File produced by Open Asset Import Library (http://www.assimp.sf.net)
# (assimp v5.0.1588609223)

mtllib result.mtl

# 52 vertex positions
v  -0.014193606 0.0033906605 0.25290999
v  0.016607802 0.0032943413 0.25290999
v  0.015683517 0.0033906605 0.25290999
v  0.017941359 0.002523832 0.25290999
v  0.017360423 0.003005404 0.25290999
v  0.018601481 0.0011902843 0.25290999
v  0.018353932 0.0019015037 0.25290999
v  0.01860198 -0.000369085 0.25290999
v  0.018683996 0.00039018132 0.25290999
v  0.017945845 -0.0017310027 0.25290999
v  0.018355928 -0.0010761451 0.25290999
v  0.016669046 -0.0025693476 0.25290999
v  0.017380591 -0.0022549704 0.25290999
v  -0.014321285 -0.00267414 0.25290999
v  0.015811197 -0.00267414 0.25290999
v  -0.015897335 -0.00225785 0.25290999
v  -0.015184124 -0.0025700685 0.25290999
v  -0.016868237 -0.0010847915 0.25290999
v  -0.016460922 -0.0017374884 0.25290999
v  -0.017194085 0.00039018132 0.25290999
v  -0.017112624 -0.000375567 0.25290999
v  -0.016866241 0.0019094832 0.25290999
v  -0.017112125 0.0011962689 0.25290999
v  -0.015877165 0.0030080583 0.25290999
v  -0.016456433 0.0025298186 0.25290999
v  -0.015122888 0.00329501 0.25290999
v  0.015683517 0.0033906605 0.24709982
v  0.016607802 0.0032943413 0.24709982
v  -0.014193606 0.0033906605 0.24709982
v  0.017360423 0.003005404 0.24709982
v  0.017941359 0.002523832 0.24709982
v  0.018353932 0.0019015037 0.24709982
v  0.018601481 0.0011902843 0.24709982
v  0.018683996 0.00039018132 0.24709982
v  0.01860198 -0.000369085 0.24709982
v  0.018355928 -0.0010761451 0.24709982
v  0.017945845 -0.0017310027 0.24709982
v  0.017380591 -0.0022549704 0.24709982
v  0.016669046 -0.0025693476 0.24709982
v  0.015811197 -0.00267414 0.24709982
v  -0.014321285 -0.00267414 0.24709982
v  -0.015184124 -0.0025700685 0.24709982
v  -0.015897335 -0.00225785 0.24709982
v  -0.016460922 -0.0017374884 0.24709982
v  -0.016868237 -0.0010847915 0.24709982
v  -0.017112624 -0.000375567 0.24709982
v  -0.017194085 0.00039018132 0.24709982
v  -0.017112125 0.0011962689 0.24709982
v  -0.016866241 0.0019094832 0.24709982
v  -0.016456433 0.0025298186 0.24709982
v  -0.015877165 0.0030080583 0.24709982
v  -0.015122888 0.00329501 0.24709982

# 0 UV coordinates

# 28 vertex normals
vn 0 2.8362924e-12 0.00038734509
vn 0 -2.8362924e-12 -0.00038734509
vn 5.1893949e-05 0.00099865266 -7.3125256e-12
vn 0.00023303331 0.00097246881 -7.1207974e-12
vn 0.00050497532 0.00086313381 -6.3202039e-12
vn 0.00074381626 0.00066838431 -4.8941714e-12
vn 0.00089596969 0.0004441154 -3.2519868e-12
vn 0.00097614573 0.00021711647 -1.5898118e-12
vn 0.00099999714 -2.417496e-06 1.7701852e-14
vn 0.00097562518 -0.00021944374 1.6068529e-12
vn 0.00090167008 -0.0004324248 3.1663836e-12
vn 0.00077036704 -0.00063760072 4.6687623e-12
vn 0.00054950587 -0.00083548989 6.1177842e-12
vn 0.00026556978 -0.00096409168 7.0594568e-12
vn 6.0740702e-05 -0.0009981537 7.3088723e-12
vn -5.9982347e-05 -0.00099819957 7.3092079e-12
vn -0.00026319642 -0.00096474233 7.0642212e-12
vn -0.00054725987 -0.00083696278 6.1285694e-12
vn -0.00077023666 -0.00063775829 4.6699159e-12
vn -0.00090266363 -0.00043034699 3.151169e-12
vn -0.00097613432 -0.00021716795 1.5901888e-12
vn -0.00099999737 -2.3279797e-06 1.7046379e-14
vn -0.00097662059 0.00021497098 -1.5741016e-12
vn -0.00089698267 0.00044206582 -3.236979e-12
vn -0.00074368913 0.00066852575 -4.8952071e-12
vn -0.00050280342 0.00086440082 -6.3294812e-12
vn -0.00023094231 0.00097296748 -7.124449e-12
vn -5.1261239e-05 0.00099868537 -7.312765e-12

# Mesh 'mesh_id221' with 100 faces
g mesh_id221
usemtl 182
f  1//1 2//1 3//1
f  2//1 4//1 5//1
f  4//1 6//1 7//1
f  6//1 8//1 9//1
f  8//1 10//1 11//1
f  10//1 12//1 13//1
f  12//1 14//1 15//1
f  14//1 16//1 17//1
f  16//1 18//1 19//1
f  18//1 20//1 21//1
f  20//1 22//1 23//1
f  22//1 24//1 25//1
f  24//1 1//1 26//1
f  1//1 4//1 2//1
f  4//1 8//1 6//1
f  8//1 12//1 10//1
f  12//1 16//1 14//1
f  16//1 20//1 18//1
f  20//1 24//1 22//1
f  24//1 4//1 1//1
f  4//1 12//1 8//1
f  12//1 20//1 16//1
f  20//1 4//1 24//1
f  20//1 12//1 4//1
f  27//2 28//2 29//2
f  30//2 31//2 28//2
f  32//2 33//2 31//2
f  34//2 35//2 33//2
f  36//2 37//2 35//2
f  38//2 39//2 37//2
f  40//2 41//2 39//2
f  42//2 43//2 41//2
f  44//2 45//2 43//2
f  46//2 47//2 45//2
f  48//2 49//2 47//2
f  50//2 51//2 49//2
f  52//2 29//2 51//2
f  28//2 31//2 29//2
f  33//2 35//2 31//2
f  37//2 39//2 35//2
f  41//2 43//2 39//2
f  45//2 47//2 43//2
f  49//2 51//2 47//2
f  29//2 31//2 51//2
f  35//2 39//2 31//2
f  43//2 47//2 39//2
f  51//2 31//2 47//2
f  31//2 39//2 47//2
f  3//3 28//4 27//3
f  3//3 2//4 28//4
f  2//4 30//5 28//4
f  2//4 5//5 30//5
f  5//5 31//6 30//5
f  5//5 4//6 31//6
f  4//6 32//7 31//6
f  4//6 7//7 32//7
f  7//7 33//8 32//7
f  7//7 6//8 33//8
f  6//8 34//9 33//8
f  6//8 9//9 34//9
f  9//9 35//10 34//9
f  9//9 8//10 35//10
f  8//10 36//11 35//10
f  8//10 11//11 36//11
f  11//11 37//12 36//11
f  11//11 10//12 37//12
f  10//12 38//13 37//12
f  10//12 13//13 38//13
f  13//13 39//14 38//13
f  13//13 12//14 39//14
f  12//14 40//15 39//14
f  12//14 15//15 40//15
f  15//15 41//16 40//15
f  15//15 14//16 41//16
f  14//16 42//17 41//16
f  14//16 17//17 42//17
f  17//17 43//18 42//17
f  17//17 16//18 43//18
f  16//18 44//19 43//18
f  16//18 19//19 44//19
f  19//19 45//20 44//19
f  19//19 18//20 45//20
f  18//20 46//21 45//20
f  18//20 21//21 46//21
f  21//21 47//22 46//21
f  21//21 20//22 47//22
f  20//22 48//23 47//22
f  20//22 23//23 48//23
f  23//23 49//24 48//23
f  23//23 22//24 49//24
f  22//24 50//25 49//24
f  22//24 25//25 50//25
f  25//25 51//26 50//25
f  25//25 24//26 51//26
f  24//26 52//27 51//26
f  24//26 26//27 52//27
f  26//27 29//28 52//27
f  26//27 1//28 29//28
f  1//28 27//3 29//28
f  1//28 3//3 27//3

