# File produced by Open Asset Import Library (http://www.assimp.sf.net)
# (assimp v5.0.1588609223)

mtllib result.mtl

# 64 vertex positions
v  0.0029733032 0.01405148 0.25351703
v  0.0028638504 -0.01845555 0.25351703
v  0.0029733032 -0.017591216 0.25351703
v  0.0019882713 -0.019732349 0.25351703
v  0.0025355089 -0.01916926 0.25351703
v  0.00052350014 -0.020354345 0.25351703
v  0.0012937337 -0.020131739 0.25351703
v  -0.0010950584 -0.020290617 0.25351703
v  -0.00032243691 -0.020400176 0.25351703
v  -0.0024959892 -0.019713398 0.25351703
v  -0.0018195752 -0.02006169 0.25351703
v  -0.0033658091 -0.018583341 0.25351703
v  -0.0030396301 -0.019226894 0.25351703
v  -0.0034745373 0.012407603 0.25351703
v  -0.0034745373 -0.017782737 0.25351703
v  -0.0041774437 0.013002774 0.25351703
v  -0.0038102008 0.012643507 0.25351703
v  -0.0049218033 0.01404128 0.25351703
v  -0.0045762751 0.0134854 0.25351703
v  -0.0051982179 0.015222548 0.25351703
v  -0.0051291119 0.014620328 0.25351703
v  -0.004779933 0.016805025 0.25351703
v  -0.005093649 0.01605474 0.25351703
v  -0.003581604 0.017996257 0.25351703
v  -0.0042570774 0.017473405 0.25351703
v  -0.0019423775 0.018414548 0.25351703
v  -0.0028100368 0.018309971 0.25351703
v  0.00043322518 0.017845308 0.25351703
v  -0.00065887533 0.018272234 0.25351703
v  0.0020527188 0.016222036 0.25351703
v  0.001333911 0.017133756 0.25351703
v  0.0025991853 0.015194615 0.25351703
v  0.0029733032 -0.017591216 0.24649274
v  0.0028638504 -0.01845555 0.24649274
v  0.0029733032 0.01405148 0.24649274
v  0.0025355089 -0.01916926 0.24649274
v  0.0019882713 -0.019732349 0.24649274
v  0.0012937337 -0.020131739 0.24649274
v  0.00052350014 -0.020354345 0.24649274
v  -0.00032243691 -0.020400176 0.24649274
v  -0.0010950584 -0.020290617 0.24649274
v  -0.0018195752 -0.02006169 0.24649274
v  -0.0024959892 -0.019713398 0.24649274
v  -0.0030396301 -0.019226894 0.24649274
v  -0.0033658091 -0.018583341 0.24649274
v  -0.0034745373 -0.017782737 0.24649274
v  -0.0034745373 0.012407603 0.24649274
v  -0.0038102008 0.012643507 0.24649274
v  -0.0041774437 0.013002774 0.24649274
v  -0.0045762751 0.0134854 0.24649274
v  -0.0049218033 0.01404128 0.24649274
v  -0.0051291119 0.014620328 0.24649274
v  -0.0051982179 0.015222548 0.24649274
v  -0.005093649 0.01605474 0.24649274
v  -0.004779933 0.016805025 0.24649274
v  -0.0042570774 0.017473405 0.24649274
v  -0.003581604 0.017996257 0.24649274
v  -0.0028100368 0.018309971 0.24649274
v  -0.0019423775 0.018414548 0.24649274
v  -0.00065887533 0.018272234 0.24649274
v  0.00043322518 0.017845308 0.24649274
v  0.001333911 0.017133756 0.24649274
v  0.0020527188 0.016222036 0.24649274
v  0.0025991853 0.015194615 0.24649274

# 0 UV coordinates

# 34 vertex normals
vn -1.7445005e-12 4.4979396e-13 0.00046828578
vn 1.7445005e-12 -4.4979396e-13 -0.00046828578
vn 0.00099801749 -6.2938561e-05 3.7783583e-12
vn 0.0009614497 -0.0002749812 3.8458017e-12
vn 0.00082468503 -0.00056559237 3.6154493e-12
vn 0.00061372475 -0.0007895201 3.0446461e-12
vn 0.00039089785 -0.00092043407 2.3402957e-12
vn 0.00016695006 -0.00098596537 1.5689687e-12
vn -4.3355732e-05 -0.00099905976 7.9809591e-13
vn -0.00022159835 -0.0009751381 1.1111332e-13
vn -0.00038090532 -0.00092461414 -5.3088024e-13
vn -0.00056690793 -0.00082378124 -1.3206451e-12
vn -0.00079307467 -0.00060912455 -2.3693621e-12
vn -0.00095473061 -0.000297472 -3.2709235e-12
vn -0.00099772343 -6.7439789e-05 -3.6520327e-12
vn -0.00088741205 -0.00046097714 -2.8630937e-12
vn -0.00063924282 -0.00076900504 -1.6427268e-12
vn -0.0007361052 -0.00067686726 -2.0920665e-12
vn -0.00081190933 -0.00058378372 -2.4638668e-12
vn -0.00090046023 -0.00043493847 -2.9367123e-12
vn -0.00097388815 -0.00022702868 -3.4099524e-12
vn -0.00099998561 5.3739832e-06 -3.7303984e-12
vn -0.00096625666 0.00025758127 -3.8469965e-12
vn -0.00086283882 0.00050547923 -3.6998438e-12
vn -0.00070529408 0.00070891489 -3.3083462e-12
vn -0.00049900351 0.00086660008 -2.6913125e-12
vn -0.00025037164 0.00096814986 -1.8626264e-12
vn -4.7595681e-06 0.00099998876 -9.7823171e-13
vn 0.00023920058 0.0009709702 -4.1536598e-14
vn 0.00049743371 0.00086750207 1.0198392e-12
vn 0.00070745597 0.00070675754 1.95663e-12
vn 0.00083743152 0.00054654235 2.5947152e-12
vn 0.00092006242 0.0003917719 3.0511982e-12
vn 0.00098752149 0.00015748471 3.5275383e-12

# Mesh 'mesh_id251' with 124 faces
g mesh_id251
usemtl 206
f  1//1 2//1 3//1
f  2//1 4//1 5//1
f  4//1 6//1 7//1
f  6//1 8//1 9//1
f  8//1 10//1 11//1
f  10//1 12//1 13//1
f  12//1 14//1 15//1
f  14//1 16//1 17//1
f  16//1 18//1 19//1
f  18//1 20//1 21//1
f  20//1 22//1 23//1
f  22//1 24//1 25//1
f  24//1 26//1 27//1
f  26//1 28//1 29//1
f  28//1 30//1 31//1
f  30//1 1//1 32//1
f  1//1 4//1 2//1
f  4//1 8//1 6//1
f  8//1 12//1 10//1
f  14//1 18//1 16//1
f  14//1 20//1 18//1
f  20//1 24//1 22//1
f  24//1 28//1 26//1
f  28//1 1//1 30//1
f  1//1 8//1 4//1
f  8//1 14//1 12//1
f  14//1 24//1 20//1
f  24//1 1//1 28//1
f  1//1 14//1 8//1
f  1//1 24//1 14//1
f  33//2 34//2 35//2
f  36//2 37//2 34//2
f  38//2 39//2 37//2
f  40//2 41//2 39//2
f  42//2 43//2 41//2
f  44//2 45//2 43//2
f  46//2 47//2 45//2
f  48//2 49//2 47//2
f  50//2 51//2 49//2
f  52//2 53//2 51//2
f  54//2 55//2 53//2
f  56//2 57//2 55//2
f  58//2 59//2 57//2
f  60//2 61//2 59//2
f  62//2 63//2 61//2
f  64//2 35//2 63//2
f  34//2 37//2 35//2
f  39//2 41//2 37//2
f  43//2 45//2 41//2
f  49//2 51//2 47//2
f  51//2 53//2 47//2
f  55//2 57//2 53//2
f  59//2 61//2 57//2
f  63//2 35//2 61//2
f  37//2 41//2 35//2
f  45//2 47//2 41//2
f  53//2 57//2 47//2
f  61//2 35//2 57//2
f  41//2 47//2 35//2
f  47//2 57//2 35//2
f  3//3 34//4 33//3
f  3//3 2//4 34//4
f  2//4 36//5 34//4
f  2//4 5//5 36//5
f  5//5 37//6 36//5
f  5//5 4//6 37//6
f  4//6 38//7 37//6
f  4//6 7//7 38//7
f  7//7 39//8 38//7
f  7//7 6//8 39//8
f  6//8 40//9 39//8
f  6//8 9//9 40//9
f  9//9 41//10 40//9
f  9//9 8//10 41//10
f  8//10 42//11 41//10
f  8//10 11//11 42//11
f  11//11 43//12 42//11
f  11//11 10//12 43//12
f  10//12 44//13 43//12
f  10//12 13//13 44//13
f  13//13 45//14 44//13
f  13//13 12//14 45//14
f  12//14 46//15 45//14
f  12//14 15//15 46//15
f  15//15 47//16 46//15
f  15//15 14//16 47//16
f  14//16 48//17 47//16
f  14//16 17//17 48//17
f  17//17 49//18 48//17
f  17//17 16//18 49//18
f  16//18 50//19 49//18
f  16//18 19//19 50//19
f  19//19 51//20 50//19
f  19//19 18//20 51//20
f  18//20 52//21 51//20
f  18//20 21//21 52//21
f  21//21 53//22 52//21
f  21//21 20//22 53//22
f  20//22 54//23 53//22
f  20//22 23//23 54//23
f  23//23 55//24 54//23
f  23//23 22//24 55//24
f  22//24 56//25 55//24
f  22//24 25//25 56//25
f  25//25 57//26 56//25
f  25//25 24//26 57//26
f  24//26 58//27 57//26
f  24//26 27//27 58//27
f  27//27 59//28 58//27
f  27//27 26//28 59//28
f  26//28 60//29 59//28
f  26//28 29//29 60//29
f  29//29 61//30 60//29
f  29//29 28//30 61//30
f  28//30 62//31 61//30
f  28//30 31//31 62//31
f  31//31 63//32 62//31
f  31//31 30//32 63//32
f  30//32 64//33 63//32
f  30//32 32//33 64//33
f  32//33 35//34 64//33
f  32//33 1//34 35//34
f  1//34 33//3 35//34
f  1//34 3//3 33//3

