# File produced by Open Asset Import Library (http://www.assimp.sf.net)
# (assimp v5.0.1588609223)

mtllib result.mtl

# 94 vertex positions
v  0.004863238 0.01533117 0.25395611
v  0.0047537852 -0.017175861 0.25395611
v  0.004863238 -0.016311526 0.25395611
v  0.0038782079 -0.018452659 0.25395611
v  0.0044254456 -0.01788957 0.25395611
v  0.0024134349 -0.019074656 0.25395611
v  0.0031836648 -0.018852049 0.25395611
v  0.00079487637 -0.019010928 0.25395611
v  0.0015674997 -0.019120486 0.25395611
v  -0.00060605444 -0.018433709 0.25395611
v  7.0359558e-05 -0.018782001 0.25395611
v  -0.0014758781 -0.017303651 0.25395611
v  -0.0011496935 -0.017947204 0.25395611
v  -0.0015846007 -0.0042457655 0.25395611
v  -0.0015846007 -0.016503047 0.25395611
v  -0.0093564596 -0.0041341018 0.25395611
v  -0.0083516408 -0.0042457655 0.25395611
v  -0.010803498 -0.0032407846 0.25395611
v  -0.010173744 -0.0037991069 0.25395611
v  -0.011518149 -0.0017937459 0.25395611
v  -0.011250157 -0.0025440324 0.25395611
v  -0.011516102 -0.00023847818 0.25395611
v  -0.011607481 -0.00098992512 0.25395611
v  -0.010785043 0.0012085643 0.25395611
v  -0.011241954 0.00049435161 0.25395611
v  -0.0093380027 0.0021484327 0.25395611
v  -0.010149142 0.0017959792 0.25395611
v  -0.0015846007 0.0022659153 0.25395611
v  -0.0083516408 0.0022659153 0.25395611
v  -0.0015846007 0.013687292 0.25395611
v  -0.0022875071 0.014282463 0.25395611
v  -0.0019202642 0.013923196 0.25395611
v  -0.0026863404 0.014765089 0.25395611
v  -0.0032391772 0.015900018 0.25395611
v  -0.0030318648 0.01532097 0.25395611
v  -0.0032037124 0.01733443 0.25395611
v  -0.0033082813 0.016502237 0.25395611
v  -0.0023671407 0.018753095 0.25395611
v  -0.0028899983 0.018084714 0.25395611
v  -0.00092010386 0.019589661 0.25395611
v  -0.0016916711 0.019275947 0.25395611
v  0.0012310594 0.019551923 0.25395611
v  -5.2440912e-05 0.019694237 0.25395611
v  0.0032238495 0.018413445 0.25395611
v  0.0023231599 0.019124998 0.25395611
v  0.004489122 0.016474305 0.25395611
v  0.0039426517 0.017501725 0.25395611
v  0.004863238 -0.016311526 0.24605368
v  0.0047537852 -0.017175861 0.24605368
v  0.004863238 0.01533117 0.24605368
v  0.0044254456 -0.01788957 0.24605368
v  0.0038782079 -0.018452659 0.24605368
v  0.0031836648 -0.018852049 0.24605368
v  0.0024134349 -0.019074656 0.24605368
v  0.0015674997 -0.019120486 0.24605368
v  0.00079487637 -0.019010928 0.24605368
v  7.0359558e-05 -0.018782001 0.24605368
v  -0.00060605444 -0.018433709 0.24605368
v  -0.0011496935 -0.017947204 0.24605368
v  -0.0014758781 -0.017303651 0.24605368
v  -0.0015846007 -0.016503047 0.24605368
v  -0.0015846007 -0.0042457655 0.24605368
v  -0.0083516408 -0.0042457655 0.24605368
v  -0.0093564596 -0.0041341018 0.24605368
v  -0.010173744 -0.0037991069 0.24605368
v  -0.010803498 -0.0032407846 0.24605368
v  -0.011250157 -0.0025440324 0.24605368
v  -0.011518149 -0.0017937459 0.24605368
v  -0.011607481 -0.00098992512 0.24605368
v  -0.011516102 -0.00023847818 0.24605368
v  -0.011241954 0.00049435161 0.24605368
v  -0.010785043 0.0012085643 0.24605368
v  -0.010149142 0.0017959792 0.24605368
v  -0.0093380027 0.0021484327 0.24605368
v  -0.0083516408 0.0022659153 0.24605368
v  -0.0015846007 0.0022659153 0.24605368
v  -0.0019202642 0.013923196 0.24605368
v  -0.0022875071 0.014282463 0.24605368
v  -0.0015846007 0.013687292 0.24605368
v  -0.0026863404 0.014765089 0.24605368
v  -0.0030318648 0.01532097 0.24605368
v  -0.0032391772 0.015900018 0.24605368
v  -0.0033082813 0.016502237 0.24605368
v  -0.0032037124 0.01733443 0.24605368
v  -0.0028899983 0.018084714 0.24605368
v  -0.0023671407 0.018753095 0.24605368
v  -0.0016916711 0.019275947 0.24605368
v  -0.00092010386 0.019589661 0.24605368
v  -5.2440912e-05 0.019694237 0.24605368
v  0.0012310594 0.019551923 0.24605368
v  0.0023231599 0.019124998 0.24605368
v  0.0032238495 0.018413445 0.24605368
v  0.0039426517 0.017501725 0.24605368
v  0.004489122 0.016474305 0.24605368

# 0 UV coordinates

# 50 vertex normals
vn -9.8129545e-13 -1.9429454e-12 0.00052682898
vn 9.8129545e-13 1.9429454e-12 -0.00052682898
vn 0.00099801749 -6.2938561e-05 1.6268351e-12
vn 0.0009614497 -0.0002749812 7.7670888e-13
vn 0.00082468503 -0.00056559237 -5.4980922e-13
vn 0.00061372377 -0.00078952085 -1.7686035e-12
vn 0.00039089707 -0.00092043448 -2.6664599e-12
vn 0.00016695051 -0.00098596537 -3.3252708e-12
vn -4.3355438e-05 -0.00099905976 -3.7652884e-12
vn -0.00022159818 -0.0009751381 -4.0090683e-12
vn -0.00038090532 -0.00092461414 -4.1194687e-12
vn -0.00056690793 -0.00082378124 -4.0940537e-12
vn -0.00079307321 -0.00060912647 -3.7236724e-12
vn -0.00095473096 -0.00029747089 -2.8753978e-12
vn -0.00099772366 -6.7436289e-05 -2.1071103e-12
vn -0.001 -3.4728973e-23 -1.8626452e-12
vn 6.9041648e-21 -0.001 -3.6880004e-12
vn -5.5308916e-05 -0.0009984693 -3.7853761e-12
vn -0.00024724711 -0.00096895255 -4.0340309e-12
vn -0.00052878988 -0.00084875285 -4.1151488e-12
vn -0.00075982173 -0.00065013155 -3.8129638e-12
vn -0.0008975729 -0.00044086613 -3.2977744e-12
vn -0.00097437494 -0.00022493016 -2.6444571e-12
vn -0.00099998678 5.1645266e-06 -1.8435737e-12
vn -0.00097145821 0.00023721116 -9.3464711e-13
vn -0.00089446967 0.00044712887 -1.7068161e-14
vn -0.0007667258 0.0006419748 9.3946498e-13
vn -0.00054621836 0.00083764287 2.0718162e-12
vn -0.00026116261 0.00096529489 3.0735544e-12
vn -5.9239792e-05 0.00099824381 3.5711807e-12
vn -6.9041648e-21 0.001 3.6880004e-12
vn -0.00088741205 -0.00046097714 -3.3530175e-12
vn -0.00063924282 -0.00076900504 -4.0267733e-12
vn -0.00073610438 -0.00067686819 -3.8673912e-12
vn -0.00081191002 -0.00058378268 -3.6652912e-12
vn -0.00090046006 -0.00043493888 -3.2812923e-12
vn -0.0009738878 -0.00022702999 -2.6512941e-12
vn -0.00099998561 5.3755507e-06 -1.8427933e-12
vn -0.00096625701 0.00025758022 -8.49838e-13
vn -0.00086283893 0.00050547905 2.5704417e-13
vn -0.00070529449 0.00070891454 1.3007636e-12
vn -0.00049900467 0.00086659938 2.2665502e-12
vn -0.00025037138 0.00096814992 3.1041842e-12
vn -4.7592343e-06 0.00099998876 3.6790939e-12
vn 0.00023920069 0.0009709702 4.0264844e-12
vn 0.00049743324 0.0008675023 4.1258906e-12
vn 0.00070745649 0.00070675701 3.9242602e-12
vn 0.00083743146 0.00054654252 3.5754867e-12
vn 0.00092006219 0.00039177257 3.1586066e-12
vn 0.00098752161 0.00015748397 2.4202034e-12

# Mesh 'mesh_id131' with 184 faces
g mesh_id131
usemtl 110
f  1//1 2//1 3//1
f  2//1 4//1 5//1
f  4//1 6//1 7//1
f  6//1 8//1 9//1
f  8//1 10//1 11//1
f  10//1 12//1 13//1
f  12//1 14//1 15//1
f  14//1 16//1 17//1
f  16//1 18//1 19//1
f  18//1 20//1 21//1
f  20//1 22//1 23//1
f  22//1 24//1 25//1
f  24//1 26//1 27//1
f  26//1 28//1 29//1
f  30//1 31//1 32//1
f  30//1 33//1 31//1
f  33//1 34//1 35//1
f  34//1 36//1 37//1
f  36//1 38//1 39//1
f  38//1 40//1 41//1
f  40//1 42//1 43//1
f  42//1 44//1 45//1
f  44//1 46//1 47//1
f  46//1 2//1 1//1
f  2//1 6//1 4//1
f  6//1 10//1 8//1
f  10//1 14//1 12//1
f  14//1 18//1 16//1
f  18//1 22//1 20//1
f  22//1 26//1 24//1
f  30//1 34//1 33//1
f  30//1 36//1 34//1
f  30//1 38//1 36//1
f  38//1 42//1 40//1
f  42//1 46//1 44//1
f  46//1 6//1 2//1
f  6//1 14//1 10//1
f  14//1 22//1 18//1
f  22//1 28//1 26//1
f  30//1 42//1 38//1
f  30//1 46//1 42//1
f  46//1 14//1 6//1
f  14//1 28//1 22//1
f  28//1 46//1 30//1
f  28//1 14//1 46//1
f  48//2 49//2 50//2
f  51//2 52//2 49//2
f  53//2 54//2 52//2
f  55//2 56//2 54//2
f  57//2 58//2 56//2
f  59//2 60//2 58//2
f  61//2 62//2 60//2
f  63//2 64//2 62//2
f  65//2 66//2 64//2
f  67//2 68//2 66//2
f  69//2 70//2 68//2
f  71//2 72//2 70//2
f  73//2 74//2 72//2
f  75//2 76//2 74//2
f  77//2 78//2 79//2
f  78//2 80//2 79//2
f  81//2 82//2 80//2
f  83//2 84//2 82//2
f  85//2 86//2 84//2
f  87//2 88//2 86//2
f  89//2 90//2 88//2
f  91//2 92//2 90//2
f  93//2 94//2 92//2
f  50//2 49//2 94//2
f  52//2 54//2 49//2
f  56//2 58//2 54//2
f  60//2 62//2 58//2
f  64//2 66//2 62//2
f  68//2 70//2 66//2
f  72//2 74//2 70//2
f  80//2 82//2 79//2
f  82//2 84//2 79//2
f  84//2 86//2 79//2
f  88//2 90//2 86//2
f  92//2 94//2 90//2
f  49//2 54//2 94//2
f  58//2 62//2 54//2
f  66//2 70//2 62//2
f  74//2 76//2 70//2
f  86//2 90//2 79//2
f  90//2 94//2 79//2
f  54//2 62//2 94//2
f  70//2 76//2 62//2
f  79//2 94//2 76//2
f  94//2 62//2 76//2
f  3//3 49//4 48//3
f  3//3 2//4 49//4
f  2//4 51//5 49//4
f  2//4 5//5 51//5
f  5//5 52//6 51//5
f  5//5 4//6 52//6
f  4//6 53//7 52//6
f  4//6 7//7 53//7
f  7//7 54//8 53//7
f  7//7 6//8 54//8
f  6//8 55//9 54//8
f  6//8 9//9 55//9
f  9//9 56//10 55//9
f  9//9 8//10 56//10
f  8//10 57//11 56//10
f  8//10 11//11 57//11
f  11//11 58//12 57//11
f  11//11 10//12 58//12
f  10//12 59//13 58//12
f  10//12 13//13 59//13
f  13//13 60//14 59//13
f  13//13 12//14 60//14
f  12//14 61//15 60//14
f  12//14 15//15 61//15
f  15//15 62//16 61//15
f  15//15 14//16 62//16
f  14//17 63//18 62//17
f  14//17 17//18 63//18
f  17//18 64//19 63//18
f  17//18 16//19 64//19
f  16//19 65//20 64//19
f  16//19 19//20 65//20
f  19//20 66//21 65//20
f  19//20 18//21 66//21
f  18//21 67//22 66//21
f  18//21 21//22 67//22
f  21//22 68//23 67//22
f  21//22 20//23 68//23
f  20//23 69//24 68//23
f  20//23 23//24 69//24
f  23//24 70//25 69//24
f  23//24 22//25 70//25
f  22//25 71//26 70//25
f  22//25 25//26 71//26
f  25//26 72//27 71//26
f  25//26 24//27 72//27
f  24//27 73//28 72//27
f  24//27 27//28 73//28
f  27//28 74//29 73//28
f  27//28 26//29 74//29
f  26//29 75//30 74//29
f  26//29 29//30 75//30
f  29//30 76//31 75//30
f  29//30 28//31 76//31
f  28//16 79//32 76//16
f  28//16 30//32 79//32
f  30//32 77//33 79//32
f  30//32 32//33 77//33
f  32//33 78//34 77//33
f  32//33 31//34 78//34
f  31//34 80//35 78//34
f  31//34 33//35 80//35
f  33//35 81//36 80//35
f  33//35 35//36 81//36
f  35//36 82//37 81//36
f  35//36 34//37 82//37
f  34//37 83//38 82//37
f  34//37 37//38 83//38
f  37//38 84//39 83//38
f  37//38 36//39 84//39
f  36//39 85//40 84//39
f  36//39 39//40 85//40
f  39//40 86//41 85//40
f  39//40 38//41 86//41
f  38//41 87//42 86//41
f  38//41 41//42 87//42
f  41//42 88//43 87//42
f  41//42 40//43 88//43
f  40//43 89//44 88//43
f  40//43 43//44 89//44
f  43//44 90//45 89//44
f  43//44 42//45 90//45
f  42//45 91//46 90//45
f  42//45 45//46 91//46
f  45//46 92//47 91//46
f  45//46 44//47 92//47
f  44//47 93//48 92//47
f  44//47 47//48 93//48
f  47//48 94//49 93//48
f  47//48 46//49 94//49
f  46//49 50//50 94//49
f  46//49 1//50 50//50
f  1//50 48//3 50//50
f  1//50 3//3 48//3

