# File produced by Open Asset Import Library (http://www.assimp.sf.net)
# (assimp v5.0.1588609223)

mtllib result.mtl

# 204 vertex positions
v  0.0091292392 0.015013818 0.25362918
v  0.0090197902 -0.017237851 0.25362918
v  0.0091292392 -0.016373517 0.25362918
v  0.0081442092 -0.018514652 0.25362918
v  0.0086914469 -0.017951563 0.25362918
v  0.0066794325 -0.019136649 0.25362918
v  0.007449666 -0.01891404 0.25362918
v  0.0050608758 -0.01907292 0.25362918
v  0.0058334973 -0.019182477 0.25362918
v  0.003659945 -0.018495698 0.25362918
v  0.004336359 -0.018843992 0.25362918
v  0.0027901251 -0.017365642 0.25362918
v  0.0031163059 -0.018009195 0.25362918
v  0.0026813969 0.01336994 0.25362918
v  0.0026813969 -0.016565038 0.25362918
v  0.0019784924 0.013965111 0.25362918
v  0.0023457371 0.013605844 0.25362918
v  0.0012341328 0.015003614 0.25362918
v  0.0015796591 0.014447741 0.25362918
v  0.00095771812 0.016184885 0.25362918
v  0.0010268223 0.015582673 0.25362918
v  0.0013760068 0.017767366 0.25362918
v  0.0010622852 0.017017074 0.25362918
v  0.0025743302 0.018958598 0.25362918
v  0.0018988606 0.018435743 0.25362918
v  0.0042135585 0.019376885 0.25362918
v  0.0033459011 0.019272313 0.25362918
v  0.0065891575 0.01880765 0.25362918
v  0.0054970589 0.019234572 0.25362918
v  0.0082086492 0.017184377 0.25362918
v  0.007489847 0.018096093 0.25362918
v  0.0087551195 0.016156953 0.25362918
v  0.001723798 0.012141019 0.25362918
v  0.001614349 -0.016152572 0.25362918
v  0.001723798 -0.015288237 0.25362918
v  0.00073876604 -0.01742937 0.25362918
v  0.0012860056 -0.016866282 0.25362918
v  -0.00072600693 -0.018051367 0.25362918
v  4.4224784e-05 -0.017828759 0.25362918
v  -0.0023445636 -0.017987639 0.25362918
v  -0.0015719421 -0.018097198 0.25362918
v  -0.0037454944 -0.017410418 0.25362918
v  -0.0030690785 -0.017758712 0.25362918
v  -0.0046153143 -0.016280361 0.25362918
v  -0.0042891353 -0.016923916 0.25362918
v  -0.0047240425 -0.0089680767 0.25362918
v  -0.0047240425 -0.015479757 0.25362918
v  -0.0057237595 -0.009234299 0.25362918
v  -0.0050823689 -0.0091180913 0.25362918
v  -0.0076765344 -0.0093391482 0.25362918
v  -0.0066482201 -0.0093167024 0.25362918
v  -0.0095070545 -0.0091256816 0.25362918
v  -0.0086294785 -0.0092754737 0.25362918
v  -0.011100395 -0.0078892242 0.25362918
v  -0.010502895 -0.0087078419 0.25362918
v  -0.011132428 -0.0055739209 0.25362918
v  -0.011299564 -0.0066698361 0.25362918
v  -0.0097953342 -0.0043436661 0.25362918
v  -0.010631016 -0.0047985259 0.25362918
v  -0.008422995 -0.0040162634 0.25362918
v  -0.0092048701 -0.0041717105 0.25362918
v  -0.0064342041 -0.0037635677 0.25362918
v  -0.0074497107 -0.0038773362 0.25362918
v  -0.0047240425 -0.0036374368 0.25362918
v  -0.005525643 -0.0036836006 0.25362918
v  -0.0047240425 0.00073560327 0.25362918
v  -0.0057237595 0.00046938285 0.25362918
v  -0.0050823689 0.00058558956 0.25362918
v  -0.0066482201 0.00038697757 0.25362918
v  -0.0086294785 0.00042820536 0.25362918
v  -0.0076765344 0.00036452897 0.25362918
v  -0.010502895 0.00099583901 0.25362918
v  -0.0095070545 0.00057799928 0.25362918
v  -0.011299564 0.0030338448 0.25362918
v  -0.011100395 0.0018144548 0.25362918
v  -0.010631016 0.0049051531 0.25362918
v  -0.011132428 0.00412976 0.25362918
v  -0.0092048701 0.0055319704 0.25362918
v  -0.0097953342 0.0053600147 0.25362918
v  -0.0074497107 0.0058263466 0.25362918
v  -0.008422995 0.0056874175 0.25362918
v  -0.005525643 0.006020084 0.25362918
v  -0.0064342041 0.0059401132 0.25362918
v  -0.0047240425 0.010497142 0.25362918
v  -0.0054269489 0.011092313 0.25362918
v  -0.0050597042 0.010733046 0.25362918
v  -0.0058257803 0.011574939 0.25362918
v  -0.0061713085 0.012130819 0.25362918
v  -0.0064477231 0.013312086 0.25362918
v  -0.0063786171 0.012709867 0.25362918
v  -0.0060294382 0.014894564 0.25362918
v  -0.0063431524 0.014144275 0.25362918
v  -0.0048311092 0.016085792 0.25362918
v  -0.0055065826 0.015562944 0.25362918
v  -0.0031918827 0.016504087 0.25362918
v  -0.004059542 0.01639951 0.25362918
v  -0.00081628188 0.015934847 0.25362918
v  -0.0019083805 0.016361769 0.25362918
v  0.0008032117 0.014311574 0.25362918
v  8.4405765e-05 0.015223294 0.25362918
v  0.0013496801 0.013284154 0.25362918
v  -0.0047240425 0.006066246 0.25362918
v  0.0091292392 -0.016373517 0.24638057
v  0.0090197902 -0.017237851 0.24638057
v  0.0091292392 0.015013818 0.24638057
v  0.0086914469 -0.017951563 0.24638057
v  0.0081442092 -0.018514652 0.24638057
v  0.007449666 -0.01891404 0.24638057
v  0.0066794325 -0.019136649 0.24638057
v  0.0058334973 -0.019182477 0.24638057
v  0.0050608758 -0.01907292 0.24638057
v  0.004336359 -0.018843992 0.24638057
v  0.003659945 -0.018495698 0.24638057
v  0.0031163059 -0.018009195 0.24638057
v  0.0027901251 -0.017365642 0.24638057
v  0.0026813969 -0.016565038 0.24638057
v  0.0026813969 0.01336994 0.24638057
v  0.0023457371 0.013605844 0.24638057
v  0.0019784924 0.013965111 0.24638057
v  0.0015796591 0.014447741 0.24638057
v  0.0012341328 0.015003614 0.24638057
v  0.0010268223 0.015582673 0.24638057
v  0.00095771812 0.016184885 0.24638057
v  0.0010622852 0.017017074 0.24638057
v  0.0013760068 0.017767366 0.24638057
v  0.0018988606 0.018435743 0.24638057
v  0.0025743302 0.018958598 0.24638057
v  0.0033459011 0.019272313 0.24638057
v  0.0042135585 0.019376885 0.24638057
v  0.0054970589 0.019234572 0.24638057
v  0.0065891575 0.01880765 0.24638057
v  0.007489847 0.018096093 0.24638057
v  0.0082086492 0.017184377 0.24638057
v  0.0087551195 0.016156953 0.24638057
v  0.001723798 -0.015288237 0.24638057
v  0.001614349 -0.016152572 0.24638057
v  0.001723798 0.012141019 0.24638057
v  0.0012860056 -0.016866282 0.24638057
v  0.00073876604 -0.01742937 0.24638057
v  4.4224784e-05 -0.017828759 0.24638057
v  -0.00072600693 -0.018051367 0.24638057
v  -0.0015719421 -0.018097198 0.24638057
v  -0.0023445636 -0.017987639 0.24638057
v  -0.0030690785 -0.017758712 0.24638057
v  -0.0037454944 -0.017410418 0.24638057
v  -0.0042891353 -0.016923916 0.24638057
v  -0.0046153143 -0.016280361 0.24638057
v  -0.0047240425 -0.015479757 0.24638057
v  -0.0047240425 -0.0089680767 0.24638057
v  -0.0050823689 -0.0091180913 0.24638057
v  -0.0057237595 -0.009234299 0.24638057
v  -0.0066482201 -0.0093167024 0.24638057
v  -0.0076765344 -0.0093391482 0.24638057
v  -0.0086294785 -0.0092754737 0.24638057
v  -0.0095070545 -0.0091256816 0.24638057
v  -0.010502895 -0.0087078419 0.24638057
v  -0.011100395 -0.0078892242 0.24638057
v  -0.011299564 -0.0066698361 0.24638057
v  -0.011132428 -0.0055739209 0.24638057
v  -0.010631016 -0.0047985259 0.24638057
v  -0.0097953342 -0.0043436661 0.24638057
v  -0.0092048701 -0.0041717105 0.24638057
v  -0.008422995 -0.0040162634 0.24638057
v  -0.0074497107 -0.0038773362 0.24638057
v  -0.0064342041 -0.0037635677 0.24638057
v  -0.005525643 -0.0036836006 0.24638057
v  -0.0047240425 -0.0036374368 0.24638057
v  -0.0050823689 0.00058558956 0.24638057
v  -0.0057237595 0.00046938285 0.24638057
v  -0.0047240425 0.00073560327 0.24638057
v  -0.0066482201 0.00038697757 0.24638057
v  -0.0076765344 0.00036452897 0.24638057
v  -0.0086294785 0.00042820536 0.24638057
v  -0.0095070545 0.00057799928 0.24638057
v  -0.010502895 0.00099583901 0.24638057
v  -0.011100395 0.0018144548 0.24638057
v  -0.011299564 0.0030338448 0.24638057
v  -0.011132428 0.00412976 0.24638057
v  -0.010631016 0.0049051531 0.24638057
v  -0.0097953342 0.0053600147 0.24638057
v  -0.0092048701 0.0055319704 0.24638057
v  -0.008422995 0.0056874175 0.24638057
v  -0.0074497107 0.0058263466 0.24638057
v  -0.0064342041 0.0059401132 0.24638057
v  -0.005525643 0.006020084 0.24638057
v  -0.0050597042 0.010733046 0.24638057
v  -0.0054269489 0.011092313 0.24638057
v  -0.0047240425 0.010497142 0.24638057
v  -0.0058257803 0.011574939 0.24638057
v  -0.0061713085 0.012130819 0.24638057
v  -0.0063786171 0.012709867 0.24638057
v  -0.0064477231 0.013312086 0.24638057
v  -0.0063431524 0.014144275 0.24638057
v  -0.0060294382 0.014894564 0.24638057
v  -0.0055065826 0.015562944 0.24638057
v  -0.0048311092 0.016085792 0.24638057
v  -0.004059542 0.01639951 0.24638057
v  -0.0031918827 0.016504087 0.24638057
v  -0.0019083805 0.016361769 0.24638057
v  -0.00081628188 0.015934847 0.24638057
v  8.4405765e-05 0.015223294 0.24638057
v  0.0008032117 0.014311574 0.24638057
v  0.0013496801 0.013284154 0.24638057
v  -0.0047240425 0.006066246 0.24638057

# 0 UV coordinates

# 101 vertex normals
vn -1.8002122e-12 -1.8994309e-12 0.00048324067
vn 1.8002122e-12 1.8994309e-12 -0.00048324067
vn 0.00099801761 -6.2936349e-05 3.4705279e-12
vn 0.00096144975 -0.00027498117 2.5008363e-12
vn 0.00082468375 -0.00056559424 8.490565e-13
vn 0.00061372365 -0.00078952103 -8.1700011e-13
vn 0.00039089681 -0.0009204346 -2.1616654e-12
vn 0.00016695014 -0.00098596537 -3.2535081e-12
vn -4.3355809e-05 -0.00099905976 -4.0884279e-12
vn -0.00022159835 -0.0009751381 -4.6584065e-12
vn -0.00038090532 -0.00092461414 -5.0532811e-12
vn -0.00056690804 -0.00082378124 -5.3498603e-12
vn -0.00079307461 -0.0006091246 -5.3486651e-12
vn -0.00095473055 -0.00029747211 -4.7258963e-12
vn -0.00099772343 -6.7439789e-05 -3.9818899e-12
vn -0.00088741269 -0.00046097595 -5.1177877e-12
vn -0.00063924288 -0.00076900504 -5.4040249e-12
vn -0.00073610566 -0.0006768668 -5.4027078e-12
vn -0.00081190938 -0.00058378367 -5.3192251e-12
vn -0.00090046017 -0.00043493861 -5.0640503e-12
vn -0.00097388873 -0.0002270262 -4.5203706e-12
vn -0.00099998561 5.3739855e-06 -3.7041147e-12
vn -0.00096625683 0.00025758083 -2.5871382e-12
vn -0.00086283841 0.00050548004 -1.2274795e-12
vn -0.00070529553 0.00070891355 1.5903164e-13
vn -0.00049900525 0.00086659903 1.5473233e-12
vn -0.00025036911 0.00096815056 2.8727246e-12
vn -4.7573208e-06 0.00099998876 3.9128436e-12
vn 0.00023919951 0.00097097049 4.7075946e-12
vn 0.00049743336 0.00086750224 5.2628978e-12
vn 0.00070745673 0.00070675678 5.4134683e-12
vn 0.00083743135 0.00054654269 5.2679219e-12
vn 0.0009200619 0.00039177321 4.9674063e-12
vn 0.00098752137 0.00015748545 4.2978186e-12
vn 0.00099801749 -6.2937397e-05 3.4705233e-12
vn 0.00096144999 -0.00027498018 2.5008411e-12
vn 0.00082468439 -0.00056559325 8.4906279e-13
vn 0.00061372312 -0.00078952144 -8.170038e-13
vn 0.00039089707 -0.00092043448 -2.1616639e-12
vn 0.00016695031 -0.00098596537 -3.2535071e-12
vn -4.3355671e-05 -0.00099905976 -4.0884271e-12
vn -0.0002215987 -0.00097513798 -4.6584073e-12
vn -0.00038090514 -0.0009246142 -5.0532807e-12
vn -0.00056690729 -0.00082378165 -5.3498594e-12
vn -0.00079307467 -0.00060912455 -5.3486651e-12
vn -0.00095473067 -0.00029747185 -4.7258959e-12
vn -0.00099772343 -6.7439818e-05 -3.9818899e-12
vn -0.001 3.8243954e-22 -3.7252913e-12
vn 0.00038617745 -0.00092242454 -2.1870682e-12
vn 0.00028390132 -0.00095885358 -2.7112648e-12
vn 0.00013366796 -0.00099102629 -3.3973861e-12
vn 5.5334633e-05 -0.00099846791 -3.7184509e-12
vn -2.2446035e-05 -0.00099974812 -4.0132385e-12
vn -0.00011761644 -0.00099305913 -4.3414842e-12
vn -0.00027939802 -0.00096017541 -4.814915e-12
vn -0.00062003179 -0.00078457681 -5.3936647e-12
vn -0.00092253211 -0.0003859204 -4.9536035e-12
vn -0.00099998608 -5.2822156e-06 -3.7460018e-12
vn -0.00093494926 0.00035478175 -2.0884496e-12
vn -0.0006798922 0.00073331216 3.4956803e-13
vn -0.00038103847 0.00092455925 2.2146031e-12
vn -0.00023752624 0.00097138115 2.9332669e-12
vn -0.00016821497 0.00098575035 3.247951e-12
vn -0.0001263357 0.00099198765 3.4284799e-12
vn -9.9512356e-05 0.00099503645 3.540388e-12
vn -7.2593626e-05 0.00099736161 3.6498075e-12
vn -5.7493911e-05 0.0009983459 3.7099273e-12
vn 0.00028390056 -0.00095885375 -2.7112683e-12
vn 0.00013366825 -0.00099102617 -3.3973848e-12
vn 5.5336586e-05 -0.00099846791 -3.7184431e-12
vn -2.2446104e-05 -0.00099974812 -4.013239e-12
vn -0.00011761848 -0.0009930589 -4.3414907e-12
vn -0.00027939864 -0.00096017524 -4.8149158e-12
vn -0.00062003103 -0.00078457739 -5.3936642e-12
vn -0.000922532 -0.00038592069 -4.9536044e-12
vn -0.00099998608 -5.2819737e-06 -3.7460005e-12
vn -0.00093494903 0.00035478227 -2.0884466e-12
vn -0.00067989243 0.00073331193 3.4956608e-13
vn -0.00038103925 0.0009245589 2.2145987e-12
vn -0.00016821593 0.00098575023 3.2479471e-12
vn -0.00012633666 0.00099198753 3.4284754e-12
vn -9.9513389e-05 0.00099503633 3.5403839e-12
vn -7.2593473e-05 0.00099736161 3.6498083e-12
vn -5.7491543e-05 0.00099834614 3.7099364e-12
vn -0.00073610427 -0.00067686825 -5.4027078e-12
vn -0.00081190933 -0.00058378372 -5.3192251e-12
vn -0.00090046023 -0.00043493847 -5.0640503e-12
vn -0.00097388815 -0.00022702868 -4.520378e-12
vn -0.00099998561 5.3751096e-06 -3.7041099e-12
vn -0.00096625672 0.00025758133 -2.5871358e-12
vn -0.00086283934 0.00050547835 -1.2274892e-12
vn -0.00070529408 0.00070891489 1.5904248e-13
vn -0.00049900351 0.00086660008 1.5473339e-12
vn -0.00025037164 0.00096814986 2.8727127e-12
vn -4.7581025e-06 0.00099998876 3.9128405e-12
vn 0.00023920085 0.0009709702 4.7075985e-12
vn 0.00049743225 0.00086750288 5.262896e-12
vn 0.00070745603 0.00070675748 5.4134683e-12
vn 0.00083743146 0.0005465424 5.2679215e-12
vn 0.00092006219 0.00039177263 4.967405e-12
vn 0.00098752149 0.00015748471 4.297816e-12

# Mesh 'mesh_id158' with 400 faces
g mesh_id158
usemtl 133
f  1//1 2//1 3//1
f  2//1 4//1 5//1
f  4//1 6//1 7//1
f  6//1 8//1 9//1
f  8//1 10//1 11//1
f  10//1 12//1 13//1
f  12//1 14//1 15//1
f  14//1 16//1 17//1
f  16//1 18//1 19//1
f  18//1 20//1 21//1
f  20//1 22//1 23//1
f  22//1 24//1 25//1
f  24//1 26//1 27//1
f  26//1 28//1 29//1
f  28//1 30//1 31//1
f  30//1 1//1 32//1
f  1//1 4//1 2//1
f  4//1 8//1 6//1
f  8//1 12//1 10//1
f  14//1 18//1 16//1
f  14//1 20//1 18//1
f  20//1 24//1 22//1
f  24//1 28//1 26//1
f  28//1 1//1 30//1
f  1//1 8//1 4//1
f  8//1 14//1 12//1
f  14//1 24//1 20//1
f  24//1 1//1 28//1
f  1//1 14//1 8//1
f  1//1 24//1 14//1
f  33//1 34//1 35//1
f  34//1 36//1 37//1
f  36//1 38//1 39//1
f  38//1 40//1 41//1
f  40//1 42//1 43//1
f  42//1 44//1 45//1
f  44//1 46//1 47//1
f  46//1 48//1 49//1
f  48//1 50//1 51//1
f  50//1 52//1 53//1
f  52//1 54//1 55//1
f  54//1 56//1 57//1
f  56//1 58//1 59//1
f  58//1 60//1 61//1
f  60//1 62//1 63//1
f  62//1 64//1 65//1
f  66//1 67//1 68//1
f  66//1 69//1 67//1
f  69//1 70//1 71//1
f  70//1 72//1 73//1
f  72//1 74//1 75//1
f  74//1 76//1 77//1
f  76//1 78//1 79//1
f  78//1 80//1 81//1
f  80//1 82//1 83//1
f  84//1 85//1 86//1
f  84//1 87//1 85//1
f  84//1 88//1 87//1
f  88//1 89//1 90//1
f  89//1 91//1 92//1
f  91//1 93//1 94//1
f  93//1 95//1 96//1
f  95//1 97//1 98//1
f  97//1 99//1 100//1
f  99//1 33//1 101//1
f  33//1 36//1 34//1
f  36//1 40//1 38//1
f  40//1 44//1 42//1
f  46//1 50//1 48//1
f  46//1 52//1 50//1
f  52//1 56//1 54//1
f  56//1 60//1 58//1
f  60//1 64//1 62//1
f  66//1 70//1 69//1
f  66//1 72//1 70//1
f  72//1 76//1 74//1
f  76//1 80//1 78//1
f  80//1 102//1 82//1
f  84//1 89//1 88//1
f  84//1 91//1 89//1
f  91//1 95//1 93//1
f  95//1 99//1 97//1
f  99//1 36//1 33//1
f  36//1 44//1 40//1
f  46//1 56//1 52//1
f  46//1 60//1 56//1
f  66//1 76//1 72//1
f  66//1 80//1 76//1
f  66//1 102//1 80//1
f  84//1 95//1 91//1
f  84//1 99//1 95//1
f  99//1 44//1 36//1
f  46//1 64//1 60//1
f  46//1 66//1 64//1
f  66//1 84//1 102//1
f  84//1 44//1 99//1
f  44//1 66//1 46//1
f  44//1 84//1 66//1
f  103//2 104//2 105//2
f  106//2 107//2 104//2
f  108//2 109//2 107//2
f  110//2 111//2 109//2
f  112//2 113//2 111//2
f  114//2 115//2 113//2
f  116//2 117//2 115//2
f  118//2 119//2 117//2
f  120//2 121//2 119//2
f  122//2 123//2 121//2
f  124//2 125//2 123//2
f  126//2 127//2 125//2
f  128//2 129//2 127//2
f  130//2 131//2 129//2
f  132//2 133//2 131//2
f  134//2 105//2 133//2
f  104//2 107//2 105//2
f  109//2 111//2 107//2
f  113//2 115//2 111//2
f  119//2 121//2 117//2
f  121//2 123//2 117//2
f  125//2 127//2 123//2
f  129//2 131//2 127//2
f  133//2 105//2 131//2
f  107//2 111//2 105//2
f  115//2 117//2 111//2
f  123//2 127//2 117//2
f  131//2 105//2 127//2
f  111//2 117//2 105//2
f  117//2 127//2 105//2
f  135//2 136//2 137//2
f  138//2 139//2 136//2
f  140//2 141//2 139//2
f  142//2 143//2 141//2
f  144//2 145//2 143//2
f  146//2 147//2 145//2
f  148//2 149//2 147//2
f  150//2 151//2 149//2
f  152//2 153//2 151//2
f  154//2 155//2 153//2
f  156//2 157//2 155//2
f  158//2 159//2 157//2
f  160//2 161//2 159//2
f  162//2 163//2 161//2
f  164//2 165//2 163//2
f  166//2 167//2 165//2
f  168//2 169//2 170//2
f  169//2 171//2 170//2
f  172//2 173//2 171//2
f  174//2 175//2 173//2
f  176//2 177//2 175//2
f  178//2 179//2 177//2
f  180//2 181//2 179//2
f  182//2 183//2 181//2
f  184//2 185//2 183//2
f  186//2 187//2 188//2
f  187//2 189//2 188//2
f  189//2 190//2 188//2
f  191//2 192//2 190//2
f  193//2 194//2 192//2
f  195//2 196//2 194//2
f  197//2 198//2 196//2
f  199//2 200//2 198//2
f  201//2 202//2 200//2
f  203//2 137//2 202//2
f  136//2 139//2 137//2
f  141//2 143//2 139//2
f  145//2 147//2 143//2
f  151//2 153//2 149//2
f  153//2 155//2 149//2
f  157//2 159//2 155//2
f  161//2 163//2 159//2
f  165//2 167//2 163//2
f  171//2 173//2 170//2
f  173//2 175//2 170//2
f  177//2 179//2 175//2
f  181//2 183//2 179//2
f  185//2 204//2 183//2
f  190//2 192//2 188//2
f  192//2 194//2 188//2
f  196//2 198//2 194//2
f  200//2 202//2 198//2
f  137//2 139//2 202//2
f  143//2 147//2 139//2
f  155//2 159//2 149//2
f  159//2 163//2 149//2
f  175//2 179//2 170//2
f  179//2 183//2 170//2
f  183//2 204//2 170//2
f  194//2 198//2 188//2
f  198//2 202//2 188//2
f  139//2 147//2 202//2
f  163//2 167//2 149//2
f  167//2 170//2 149//2
f  204//2 188//2 170//2
f  202//2 147//2 188//2
f  149//2 170//2 147//2
f  170//2 188//2 147//2
f  3//3 104//4 103//3
f  3//3 2//4 104//4
f  2//4 106//5 104//4
f  2//4 5//5 106//5
f  5//5 107//6 106//5
f  5//5 4//6 107//6
f  4//6 108//7 107//6
f  4//6 7//7 108//7
f  7//7 109//8 108//7
f  7//7 6//8 109//8
f  6//8 110//9 109//8
f  6//8 9//9 110//9
f  9//9 111//10 110//9
f  9//9 8//10 111//10
f  8//10 112//11 111//10
f  8//10 11//11 112//11
f  11//11 113//12 112//11
f  11//11 10//12 113//12
f  10//12 114//13 113//12
f  10//12 13//13 114//13
f  13//13 115//14 114//13
f  13//13 12//14 115//14
f  12//14 116//15 115//14
f  12//14 15//15 116//15
f  15//15 117//16 116//15
f  15//15 14//16 117//16
f  14//16 118//17 117//16
f  14//16 17//17 118//17
f  17//17 119//18 118//17
f  17//17 16//18 119//18
f  16//18 120//19 119//18
f  16//18 19//19 120//19
f  19//19 121//20 120//19
f  19//19 18//20 121//20
f  18//20 122//21 121//20
f  18//20 21//21 122//21
f  21//21 123//22 122//21
f  21//21 20//22 123//22
f  20//22 124//23 123//22
f  20//22 23//23 124//23
f  23//23 125//24 124//23
f  23//23 22//24 125//24
f  22//24 126//25 125//24
f  22//24 25//25 126//25
f  25//25 127//26 126//25
f  25//25 24//26 127//26
f  24//26 128//27 127//26
f  24//26 27//27 128//27
f  27//27 129//28 128//27
f  27//27 26//28 129//28
f  26//28 130//29 129//28
f  26//28 29//29 130//29
f  29//29 131//30 130//29
f  29//29 28//30 131//30
f  28//30 132//31 131//30
f  28//30 31//31 132//31
f  31//31 133//32 132//31
f  31//31 30//32 133//32
f  30//32 134//33 133//32
f  30//32 32//33 134//33
f  32//33 105//34 134//33
f  32//33 1//34 105//34
f  1//34 103//3 105//34
f  1//34 3//3 103//3
f  35//35 136//36 135//35
f  35//35 34//36 136//36
f  34//36 138//37 136//36
f  34//36 37//37 138//37
f  37//37 139//38 138//37
f  37//37 36//38 139//38
f  36//38 140//39 139//38
f  36//38 39//39 140//39
f  39//39 141//40 140//39
f  39//39 38//40 141//40
f  38//40 142//41 141//40
f  38//40 41//41 142//41
f  41//41 143//42 142//41
f  41//41 40//42 143//42
f  40//42 144//43 143//42
f  40//42 43//43 144//43
f  43//43 145//44 144//43
f  43//43 42//44 145//44
f  42//44 146//45 145//44
f  42//44 45//45 146//45
f  45//45 147//46 146//45
f  45//45 44//46 147//46
f  44//46 148//47 147//46
f  44//46 47//47 148//47
f  47//47 149//48 148//47
f  47//47 46//48 149//48
f  46//49 150//50 149//49
f  46//49 49//50 150//50
f  49//50 151//51 150//50
f  49//50 48//51 151//51
f  48//51 152//52 151//51
f  48//51 51//52 152//52
f  51//52 153//53 152//52
f  51//52 50//53 153//53
f  50//53 154//54 153//53
f  50//53 53//54 154//54
f  53//54 155//55 154//54
f  53//54 52//55 155//55
f  52//55 156//56 155//55
f  52//55 55//56 156//56
f  55//56 157//57 156//56
f  55//56 54//57 157//57
f  54//57 158//58 157//57
f  54//57 57//58 158//58
f  57//58 159//59 158//58
f  57//58 56//59 159//59
f  56//59 160//60 159//59
f  56//59 59//60 160//60
f  59//60 161//61 160//60
f  59//60 58//61 161//61
f  58//61 162//62 161//61
f  58//61 61//62 162//62
f  61//62 163//63 162//62
f  61//62 60//63 163//63
f  60//63 164//64 163//63
f  60//63 63//64 164//64
f  63//64 165//65 164//64
f  63//64 62//65 165//65
f  62//65 166//66 165//65
f  62//65 65//66 166//66
f  65//66 167//67 166//66
f  65//66 64//67 167//67
f  64//48 170//48 167//48
f  64//48 66//48 170//48
f  66//49 168//68 170//49
f  66//49 68//68 168//68
f  68//68 169//69 168//68
f  68//68 67//69 169//69
f  67//69 171//70 169//69
f  67//69 69//70 171//70
f  69//70 172//71 171//70
f  69//70 71//71 172//71
f  71//71 173//72 172//71
f  71//71 70//72 173//72
f  70//72 174//73 173//72
f  70//72 73//73 174//73
f  73//73 175//74 174//73
f  73//73 72//74 175//74
f  72//74 176//75 175//74
f  72//74 75//75 176//75
f  75//75 177//76 176//75
f  75//75 74//76 177//76
f  74//76 178//77 177//76
f  74//76 77//77 178//77
f  77//77 179//78 178//77
f  77//77 76//78 179//78
f  76//78 180//79 179//78
f  76//78 79//79 180//79
f  79//79 181//62 180//79
f  79//79 78//62 181//62
f  78//62 182//80 181//62
f  78//62 81//80 182//80
f  81//80 183//81 182//80
f  81//80 80//81 183//81
f  80//81 184//82 183//81
f  80//81 83//82 184//82
f  83//82 185//83 184//82
f  83//82 82//83 185//83
f  82//83 204//84 185//83
f  82//83 102//84 204//84
f  102//48 188//16 204//48
f  102//48 84//16 188//16
f  84//16 186//17 188//16
f  84//16 86//17 186//17
f  86//17 187//85 186//17
f  86//17 85//85 187//85
f  85//85 189//86 187//85
f  85//85 87//86 189//86
f  87//86 190//87 189//86
f  87//86 88//87 190//87
f  88//87 191//88 190//87
f  88//87 90//88 191//88
f  90//88 192//89 191//88
f  90//88 89//89 192//89
f  89//89 193//90 192//89
f  89//89 92//90 193//90
f  92//90 194//91 193//90
f  92//90 91//91 194//91
f  91//91 195//92 194//91
f  91//91 94//92 195//92
f  94//92 196//93 195//92
f  94//92 93//93 196//93
f  93//93 197//94 196//93
f  93//93 96//94 197//94
f  96//94 198//95 197//94
f  96//94 95//95 198//95
f  95//95 199//96 198//95
f  95//95 98//96 199//96
f  98//96 200//97 199//96
f  98//96 97//97 200//97
f  97//97 201//98 200//97
f  97//97 100//98 201//98
f  100//98 202//99 201//98
f  100//98 99//99 202//99
f  99//99 203//100 202//99
f  99//99 101//100 203//100
f  101//100 137//101 203//100
f  101//100 33//101 137//101
f  33//101 135//35 137//101
f  33//101 35//35 135//35

