# File produced by Open Asset Import Library (http://www.assimp.sf.net)
# (assimp v5.0.1588609223)

mtllib result.mtl

# 82 vertex positions
v  0.0027637891 -0.0052370988 0.25347415
v  0.015243117 -0.0053334162 0.25347415
v  0.014318831 -0.0052370988 0.25347415
v  0.016576674 -0.0061039263 0.25347415
v  0.015995737 -0.0056223553 0.25347415
v  0.017236795 -0.0074374732 0.25347415
v  0.016989246 -0.0067262566 0.25347415
v  0.017237294 -0.0089968443 0.25347415
v  0.01731931 -0.0082375789 0.25347415
v  0.016581159 -0.010358763 0.25347415
v  0.016991243 -0.0097039044 0.25347415
v  0.015304361 -0.011197106 0.25347415
v  0.016015906 -0.01088273 0.25347415
v  -0.015685972 -0.011301898 0.25347415
v  0.014446512 -0.011301898 0.25347415
v  -0.017262021 -0.010885608 0.25347415
v  -0.016548809 -0.011197828 0.25347415
v  -0.018232923 -0.0097125499 0.25347415
v  -0.017825607 -0.010365247 0.25347415
v  -0.01855877 -0.0082375789 0.25347415
v  -0.018477309 -0.0090033263 0.25347415
v  -0.018230926 -0.0067182751 0.25347415
v  -0.01847681 -0.0074314894 0.25347415
v  -0.01724185 -0.0056196973 0.25347415
v  -0.017821118 -0.0060979407 0.25347415
v  -0.015558291 -0.0052370988 0.25347415
v  -0.016487572 -0.0053327493 0.25347415
v  -0.0038755704 -0.0052370988 0.25347415
v  -0.003761135 0.0091816504 0.25347415
v  -0.0038755704 0.0082331412 0.25347415
v  -0.0034178272 0.0099045075 0.25347415
v  -0.0021334942 0.010722011 0.25347415
v  -0.0028456524 0.010401707 0.25347415
v  -0.00055588968 0.010978263 0.25347415
v  -0.0013702381 0.010914203 0.25347415
v  0.00091265328 0.010740414 0.25347415
v  0.00017665885 0.010918796 0.25347415
v  0.0022696927 0.0099880733 0.25347415
v  0.0016520768 0.010443103 0.25347415
v  0.0027637891 0.0084885024 0.25347415
v  0.0026402678 0.0093365423 0.25347415
v  0.014318831 -0.0052370988 0.24653564
v  0.015243117 -0.0053334162 0.24653564
v  0.0027637891 -0.0052370988 0.24653564
v  0.015995737 -0.0056223553 0.24653564
v  0.016576674 -0.0061039263 0.24653564
v  0.016989246 -0.0067262566 0.24653564
v  0.017236795 -0.0074374732 0.24653564
v  0.01731931 -0.0082375789 0.24653564
v  0.017237294 -0.0089968443 0.24653564
v  0.016991243 -0.0097039044 0.24653564
v  0.016581159 -0.010358763 0.24653564
v  0.016015906 -0.01088273 0.24653564
v  0.015304361 -0.011197106 0.24653564
v  0.014446512 -0.011301898 0.24653564
v  -0.015685972 -0.011301898 0.24653564
v  -0.016548809 -0.011197828 0.24653564
v  -0.017262021 -0.010885608 0.24653564
v  -0.017825607 -0.010365247 0.24653564
v  -0.018232923 -0.0097125499 0.24653564
v  -0.018477309 -0.0090033263 0.24653564
v  -0.01855877 -0.0082375789 0.24653564
v  -0.01847681 -0.0074314894 0.24653564
v  -0.018230926 -0.0067182751 0.24653564
v  -0.017821118 -0.0060979407 0.24653564
v  -0.01724185 -0.0056196973 0.24653564
v  -0.016487572 -0.0053327493 0.24653564
v  -0.015558291 -0.0052370988 0.24653564
v  -0.0038755704 0.0082331412 0.24653564
v  -0.003761135 0.0091816504 0.24653564
v  -0.0038755704 -0.0052370988 0.24653564
v  -0.0034178272 0.0099045075 0.24653564
v  -0.0028456524 0.010401707 0.24653564
v  -0.0021334942 0.010722011 0.24653564
v  -0.0013702381 0.010914203 0.24653564
v  -0.00055588968 0.010978263 0.24653564
v  0.00017665885 0.010918796 0.24653564
v  0.00091265328 0.010740414 0.24653564
v  0.0016520768 0.010443103 0.24653564
v  0.0022696927 0.0099880733 0.24653564
v  0.0026402678 0.0093365423 0.24653564
v  0.0027637891 0.0084885024 0.24653564

# 0 UV coordinates

# 44 vertex normals
vn 0 -2.4735144e-12 0.00046256676
vn 0 2.4735144e-12 -0.00046256676
vn 5.189293e-05 0.00099865277 5.3401628e-12
vn 0.00023303447 0.00097246852 5.2001463e-12
vn 0.00050497684 0.000863133 4.615489e-12
vn 0.0007438162 0.00066838443 3.574097e-12
vn 0.00089596963 0.00044411546 2.3748484e-12
vn 0.00097614567 0.00021711676 1.161003e-12
vn 0.00099999714 -2.4176832e-06 -1.292824e-14
vn 0.00097562518 -0.0002194438 -1.1734465e-12
vn 0.0009016702 -0.00043242448 -2.3123324e-12
vn 0.00077036704 -0.00063760084 -3.4094858e-12
vn 0.00054950546 -0.00083549018 -4.4676732e-12
vn 0.00026556928 -0.00096409186 -5.1553536e-12
vn 6.0740156e-05 -0.0009981537 -5.3374943e-12
vn -5.9981259e-05 -0.00099819957 -5.3377398e-12
vn -0.00026319642 -0.00096474233 -5.1588317e-12
vn -0.00054726051 -0.00083696243 -4.4755454e-12
vn -0.00077023642 -0.00063775864 -3.4103297e-12
vn -0.00090266351 -0.00043034717 -2.3012243e-12
vn -0.00097613427 -0.00021716811 -1.1612777e-12
vn -0.00099999737 -2.3280995e-06 -1.2449203e-14
vn -0.00097662059 0.00021497085 1.1495281e-12
vn -0.00089698256 0.00044206617 2.3638903e-12
vn -0.0007436896 0.00066852517 3.5748496e-12
vn -0.0005028033 0.00086440088 4.6222691e-12
vn -0.00023094175 0.00097296765 5.2028156e-12
vn -5.1261741e-05 0.00099868525 5.3403371e-12
vn 0 0.001 5.3473675e-12
vn -0.001 0 -0
vn -0.00099819864 5.9997506e-05 3.208287e-13
vn -0.000960576 0.00027801775 1.486663e-12
vn -0.00079645036 0.00060470396 3.2335744e-12
vn -0.00053881534 0.00084242393 4.5047503e-12
vn -0.00032845387 0.00094452011 5.050696e-12
vn -0.00016187227 0.00098681182 5.2768449e-12
vn 1.2466148e-06 0.00099999923 5.3473632e-12
vn 0.00015871626 0.00098732428 5.2795854e-12
vn 0.00030510046 0.00095232029 5.0924061e-12
vn 0.00048698628 0.00087340974 4.6704424e-12
vn 0.00074751291 0.00066424737 3.5519747e-12
vn 0.00094575307 0.00032488647 1.7372872e-12
vn 0.00099738617 7.2256109e-05 3.8637995e-13
vn 0.001 0 0

# Mesh 'mesh_id167' with 160 faces
g mesh_id167
usemtl 140
f  1//1 2//1 3//1
f  2//1 4//1 5//1
f  4//1 6//1 7//1
f  6//1 8//1 9//1
f  8//1 10//1 11//1
f  10//1 12//1 13//1
f  12//1 14//1 15//1
f  14//1 16//1 17//1
f  16//1 18//1 19//1
f  18//1 20//1 21//1
f  20//1 22//1 23//1
f  22//1 24//1 25//1
f  24//1 26//1 27//1
f  28//1 29//1 30//1
f  28//1 31//1 29//1
f  31//1 32//1 33//1
f  32//1 34//1 35//1
f  34//1 36//1 37//1
f  36//1 38//1 39//1
f  38//1 40//1 41//1
f  1//1 4//1 2//1
f  1//1 6//1 4//1
f  6//1 10//1 8//1
f  10//1 14//1 12//1
f  14//1 18//1 16//1
f  18//1 22//1 20//1
f  22//1 26//1 24//1
f  28//1 32//1 31//1
f  28//1 34//1 32//1
f  34//1 38//1 36//1
f  38//1 1//1 40//1
f  1//1 10//1 6//1
f  10//1 18//1 14//1
f  18//1 26//1 22//1
f  28//1 38//1 34//1
f  28//1 1//1 38//1
f  1//1 18//1 10//1
f  18//1 28//1 26//1
f  18//1 1//1 28//1
f  42//2 43//2 44//2
f  45//2 46//2 43//2
f  47//2 48//2 46//2
f  49//2 50//2 48//2
f  51//2 52//2 50//2
f  53//2 54//2 52//2
f  55//2 56//2 54//2
f  57//2 58//2 56//2
f  59//2 60//2 58//2
f  61//2 62//2 60//2
f  63//2 64//2 62//2
f  65//2 66//2 64//2
f  67//2 68//2 66//2
f  69//2 70//2 71//2
f  70//2 72//2 71//2
f  73//2 74//2 72//2
f  75//2 76//2 74//2
f  77//2 78//2 76//2
f  79//2 80//2 78//2
f  81//2 82//2 80//2
f  43//2 46//2 44//2
f  46//2 48//2 44//2
f  50//2 52//2 48//2
f  54//2 56//2 52//2
f  58//2 60//2 56//2
f  62//2 64//2 60//2
f  66//2 68//2 64//2
f  72//2 74//2 71//2
f  74//2 76//2 71//2
f  78//2 80//2 76//2
f  82//2 44//2 80//2
f  48//2 52//2 44//2
f  56//2 60//2 52//2
f  64//2 68//2 60//2
f  76//2 80//2 71//2
f  80//2 44//2 71//2
f  52//2 60//2 44//2
f  68//2 71//2 60//2
f  71//2 44//2 60//2
f  3//3 43//4 42//3
f  3//3 2//4 43//4
f  2//4 45//5 43//4
f  2//4 5//5 45//5
f  5//5 46//6 45//5
f  5//5 4//6 46//6
f  4//6 47//7 46//6
f  4//6 7//7 47//7
f  7//7 48//8 47//7
f  7//7 6//8 48//8
f  6//8 49//9 48//8
f  6//8 9//9 49//9
f  9//9 50//10 49//9
f  9//9 8//10 50//10
f  8//10 51//11 50//10
f  8//10 11//11 51//11
f  11//11 52//12 51//11
f  11//11 10//12 52//12
f  10//12 53//13 52//12
f  10//12 13//13 53//13
f  13//13 54//14 53//13
f  13//13 12//14 54//14
f  12//14 55//15 54//14
f  12//14 15//15 55//15
f  15//15 56//16 55//15
f  15//15 14//16 56//16
f  14//16 57//17 56//16
f  14//16 17//17 57//17
f  17//17 58//18 57//17
f  17//17 16//18 58//18
f  16//18 59//19 58//18
f  16//18 19//19 59//19
f  19//19 60//20 59//19
f  19//19 18//20 60//20
f  18//20 61//21 60//20
f  18//20 21//21 61//21
f  21//21 62//22 61//21
f  21//21 20//22 62//22
f  20//22 63//23 62//22
f  20//22 23//23 63//23
f  23//23 64//24 63//23
f  23//23 22//24 64//24
f  22//24 65//25 64//24
f  22//24 25//25 65//25
f  25//25 66//26 65//25
f  25//25 24//26 66//26
f  24//26 67//27 66//26
f  24//26 27//27 67//27
f  27//27 68//28 67//27
f  27//27 26//28 68//28
f  26//28 71//29 68//28
f  26//28 28//29 71//29
f  28//30 69//31 71//30
f  28//30 30//31 69//31
f  30//31 70//32 69//31
f  30//31 29//32 70//32
f  29//32 72//33 70//32
f  29//32 31//33 72//33
f  31//33 73//34 72//33
f  31//33 33//34 73//34
f  33//34 74//35 73//34
f  33//34 32//35 74//35
f  32//35 75//36 74//35
f  32//35 35//36 75//36
f  35//36 76//37 75//36
f  35//36 34//37 76//37
f  34//37 77//38 76//37
f  34//37 37//38 77//38
f  37//38 78//39 77//38
f  37//38 36//39 78//39
f  36//39 79//40 78//39
f  36//39 39//40 79//40
f  39//40 80//41 79//40
f  39//40 38//41 80//41
f  38//41 81//42 80//41
f  38//41 41//42 81//42
f  41//42 82//43 81//42
f  41//42 40//43 82//43
f  40//43 44//44 82//43
f  40//43 1//44 44//44
f  1//29 42//3 44//29
f  1//29 3//3 42//3

